<?xml version="1.0" standalone="no"?>
<!DOCTYPE svg PUBLIC "-//W3C//DTD SVG 1.1//EN" "http://www.w3.org/Graphics/SVG/1.1/DTD/svg11.dtd" >
<svg xmlns="http://www.w3.org/2000/svg" xmlns:xlink="http://www.w3.org/1999/xlink" version="1.1">
<metadata>
Created by FontForge 20170731 at Fri Oct 18 23:10:08 2013
 By Aleksey,,,
Copyright (c) 2012 by Toni Hurme. All rights reserved. wf-rip
</metadata>
<defs>
<font id="HurmeGeometricSans4-Oblique" horiz-adv-x="606" >
  <font-face 
    font-family="Hurme Geometric Sans 4"
    font-weight="400"
    font-style="oblique"
    font-stretch="normal"
    units-per-em="1000"
    panose-1="2 11 5 0 2 0 0 0 0 0"
    ascent="800"
    descent="-200"
    x-height="504"
    cap-height="697"
    bbox="-161 -296 1450 1052"
    underline-thickness="50"
    underline-position="-290"
    slope="-11.5"
    unicode-range="U+0020-FB04"
  />
<missing-glyph horiz-adv-x="712" 
d="M641 0h-712l142 697h712zM119 637l-118 -577h592l118 577h-592zM348 308l-223 -185l-32 40l223 185l-148 185l49 40l147 -185l223 185l31 -40l-222 -185l147 -185l-48 -40z" />
    <glyph glyph-name="ff" unicode="ff" horiz-adv-x="546" 
d="M115 0h-74l89 435h-81l14 69h81l15 75q13 64 55.5 98.5t106.5 34.5q33 0 55 -5l-14 -68q-13 3 -52 3q-63 0 -80 -77l-12 -61h160l15 75q13 64 55.5 98.5t106.5 34.5q33 0 55 -5l-14 -68q-13 3 -52 3q-63 0 -80 -77l-12 -61h95l-14 -69h-95l-89 -435h-74l89 435h-160z" />
    <glyph glyph-name="fj" unicode="fj" horiz-adv-x="477" 
d="M115 0h-74l89 435h-81l14 69h81l15 75q13 64 59.5 98.5t117.5 34.5q42 0 70 -5l-14 -68q-18 3 -67 3q-75 0 -95 -77l-12 -61h234l-118 -575q-15 -76 -55.5 -106.5t-108.5 -30.5q-30 0 -42 5l14 68q15 -4 38 -4q34 0 53 18.5t29 60.5l102 495h-160z" />
    <glyph glyph-name="ffj" unicode="ffj" horiz-adv-x="711" 
d="M115 0h-74l89 435h-81l14 69h81l15 75q13 64 55.5 98.5t106.5 34.5q33 0 55 -5l-14 -68q-13 3 -52 3q-63 0 -80 -77l-12 -61h160l15 75q13 64 59.5 98.5t117.5 34.5q42 0 70 -5l-14 -68q-18 3 -67 3q-75 0 -95 -77l-12 -61h234l-118 -575q-15 -76 -55.5 -106.5
t-108.5 -30.5q-30 0 -42 5l14 68q15 -4 38 -4q34 0 53 18.5t29 60.5l102 495h-160l-89 -435h-74l89 435h-160z" />
    <glyph glyph-name=".notdef" horiz-adv-x="712" 
d="M641 0h-712l142 697h712zM119 637l-118 -577h592l118 577h-592zM348 308l-223 -185l-32 40l223 185l-148 185l49 40l147 -185l223 185l31 -40l-222 -185l147 -185l-48 -40z" />
    <glyph glyph-name=".null" horiz-adv-x="0" 
 />
    <glyph glyph-name="nonmarkingreturn" horiz-adv-x="333" 
 />
    <glyph glyph-name="space" unicode=" " horiz-adv-x="412" 
 />
    <glyph glyph-name="exclam" unicode="!" horiz-adv-x="240" 
d="M112 155h-62l94 542h94zM5 29q0 22 16.5 39t38.5 17q21 0 34 -12.5t13 -32.5q0 -22 -16 -38.5t-40 -16.5q-20 0 -33 12.5t-13 31.5z" />
    <glyph glyph-name="quotedbl" unicode="&#x22;" horiz-adv-x="289" 
d="M253 445h-51l39 252h75zM127 445h-51l39 252h75z" />
    <glyph glyph-name="numbersign" unicode="#" horiz-adv-x="547" 
d="M109 116h-69l50 108h-88l12 62h104l54 118h-89l13 62h105l49 107h69l-50 -107h118l50 107h68l-49 -107h88l-13 -62h-104l-54 -118h90l-12 -62h-105l-50 -108h-69l50 108h-118zM240 404l-54 -118h118l55 118h-119z" />
    <glyph glyph-name="dollar" unicode="$" horiz-adv-x="544" 
d="M6 158l68 29q22 -105 113 -124l58 285q-128 65 -128 168q0 75 59 132t143 62l20 97h64l-21 -103q100 -25 128 -115l-71 -33q-21 58 -72 75l-47 -232q156 -77 156 -192q0 -85 -69 -153q-70 -67 -171 -68l-19 -93h-64l20 99q-68 13 -112 55.5t-55 110.5zM262 429l42 207
q-45 -6 -77 -38q-30 -32 -30 -70q0 -58 65 -99zM304 318l-53 -260q61 4 103 46q42 40 42 92q0 38 -22 66.5t-70 55.5z" />
    <glyph glyph-name="percent" unicode="%" horiz-adv-x="733" 
d="M220 400q-64 0 -104.5 38.5t-40.5 98.5q0 69 51 122t122 53q64 0 105 -39.5t41 -100.5q0 -67 -50 -120q-49 -52 -124 -52zM115 0h-87l593 697h87zM226 461q42 0 71 32q30 31 30 73q0 37 -23 61t-61 24q-43 0 -71 -33q-29 -32 -29 -74q0 -36 23 -59.5t60 -23.5zM339 122
q0 70 51 122q51 53 122 53q64 0 105 -39.5t41 -100.5q0 -67 -50 -120q-49 -52 -124 -52q-64 0 -104.5 38.5t-40.5 98.5zM407 129q0 -36 23 -59.5t60 -23.5q42 0 71 32q30 32 30 73q0 37 -23 61t-61 24q-43 0 -71 -33q-29 -32 -29 -74z" />
    <glyph glyph-name="ampersand" unicode="&#x26;" horiz-adv-x="739" 
d="M11 197q0 166 191 238q-15 30 -15 85q0 75 57 132q58 58 137 58q72 0 118 -40.5t46 -103.5q0 -65 -43 -101h233l-15 -72h-135q-19 -198 -80 -278l83 -115h-94l-39 54q-47 -37 -92 -53t-109 -16q-107 0 -175 59q-68 60 -68 153zM324 364l131 -187q11 22 23 58q9 29 13 48
l9 62q7 43 7 48h-149l10 48q43 9 71.5 40.5t28.5 72.5q0 37 -26 60.5t-68 23.5q-45 0 -77 -35q-31 -34 -31 -79q0 -78 58 -160zM90 203q0 -64 47.5 -105t122.5 -41q82 0 149 55q-156 220 -177 256q-142 -46 -142 -165z" />
    <glyph glyph-name="quotesingle" unicode="'" horiz-adv-x="163" 
d="M127 445h-51l39 252h75z" />
    <glyph glyph-name="parenleft" unicode="(" horiz-adv-x="294" 
d="M99 203q0 -194 113 -334l-45 -40q-141 161 -141 398q0 322 337 562l31 -44q-151 -121 -223 -252t-72 -290z" />
    <glyph glyph-name="parenright" unicode=")" horiz-adv-x="294" 
d="M-85 -171l-31 44q151 121 223 252t72 290q0 194 -113 334l45 40q141 -161 141 -398q0 -322 -337 -562z" />
    <glyph glyph-name="asterisk" unicode="*" horiz-adv-x="388" 
d="M229 508l-87 -94l-43 38l94 87l-102 34l32 53l92 -44l18 115h64l-30 -116l113 44l9 -56l-119 -34l58 -85l-50 -33z" />
    <glyph glyph-name="plus" unicode="+" horiz-adv-x="384" 
d="M198 190h-76l25 123h-112l14 69h112l25 124h76l-25 -124h112l-14 -69h-112z" />
    <glyph glyph-name="comma" unicode="," horiz-adv-x="192" 
d="M-133 -128l139 239h99l-175 -239h-63z" />
    <glyph glyph-name="hyphen" unicode="-" horiz-adv-x="384" 
d="M318 229h-300l14 69h300z" />
    <glyph glyph-name="period" unicode="." horiz-adv-x="188" 
d="M27 -7q-20 0 -33 12.5t-13 31.5q0 22 16.5 39t38.5 17q21 0 34 -12.5t13 -32.5q0 -22 -16 -38.5t-40 -16.5z" />
    <glyph glyph-name="slash" unicode="/" horiz-adv-x="422" 
d="M466 723l-489 -859h-81l487 859h83z" />
    <glyph glyph-name="zero" unicode="0" horiz-adv-x="554" 
d="M11 176q0 32 30 173q25 121 34 149q19 93 87 153q67 61 171 61q91 0 149 -54q60 -52 60 -135q0 -40 -28 -174q-20 -103 -34 -150q-5 -17 -14 -48q-6 -17 -26 -53q-20 -34 -45 -57q-66 -56 -171 -56q-94 0 -154 54q-59 54 -59 137zM91 180q0 -56 36.5 -88.5t104.5 -32.5
q132 0 172 145q10 39 32 145q27 127 27 163q0 56 -37.5 91t-97.5 35q-63 0 -109.5 -39.5t-64.5 -105.5q-8 -25 -33 -144q-30 -137 -30 -169z" />
    <glyph glyph-name="one" unicode="1" horiz-adv-x="301" 
d="M141 0h-80l127 625h-94l15 72h174z" />
    <glyph glyph-name="two" unicode="2" horiz-adv-x="502" 
d="M396 0h-454l10 51l384 345q72 64 72 131q0 49 -32 80t-85 31q-51 0 -87 -35t-45 -89h-77q13 84 70 141q56 57 147 57q83 0 136 -51q53 -50 53 -129q0 -30 -4 -49q-4 -24 -31.5 -65t-70.5 -79l-303 -267h332z" />
    <glyph glyph-name="three" unicode="3" horiz-adv-x="561" 
d="M-31 166l70 24q32 -131 186 -131q83 0 140 54q58 55 58 125q0 61 -43.5 99.5t-114.5 38.5q-41 0 -82 -12l-21 53l261 208h-291l15 72h419l-11 -52l-255 -203h1q85 0 141 -57q57 -57 57 -141q0 -103 -80 -181q-79 -78 -201 -78q-95 0 -162 49.5t-87 131.5z" />
    <glyph glyph-name="four" unicode="4" horiz-adv-x="571" 
d="M378 155h-364l10 52l342 490h88l-329 -470h267l31 152h78l-77 -379h-78z" />
    <glyph glyph-name="five" unicode="5" horiz-adv-x="550" 
d="M-18 128l70 32q42 -101 167 -101q82 0 139 58q57 59 57 133q0 66 -37.5 107.5t-99.5 41.5q-76 0 -139 -45l-52 13l126 330h323l-15 -72h-257l-66 -171q37 19 94 19q86 0 142 -62t56 -157q0 -109 -79 -189q-80 -80 -199 -80q-78 0 -140.5 38.5t-89.5 104.5z" />
    <glyph glyph-name="six" unicode="6" horiz-adv-x="563" 
d="M11 208q0 71 39 130q21 31 42 55l60 66l221 238h95l-220 -239q14 7 40 7q96 0 157 -61q61 -60 61 -153q0 -106 -77 -186t-192 -80q-99 0 -163 62q-63 63 -63 161zM90 210q0 -66 42 -108.5t111 -42.5q78 0 132 56q55 55 55 128q0 66 -43.5 108.5t-114.5 42.5
q-76 0 -129 -56t-53 -128z" />
    <glyph glyph-name="seven" unicode="7" horiz-adv-x="548" 
d="M126 0h-86l435 625h-383l15 72h476l-11 -54z" />
    <glyph glyph-name="eight" unicode="8" horiz-adv-x="542" 
d="M5 188q0 72 45 137q44 63 114 89q-39 44 -39 104q0 78 58 136t142 58q74 0 120 -46q47 -45 47 -115q0 -48 -24 -91.5t-66 -70.5q34 -24 56.5 -67t22.5 -85q0 -102 -72 -177t-181 -75q-98 0 -161 57q-62 57 -62 146zM299 426q48 0 81 36t33 82q0 41 -26.5 67.5t-68.5 26.5
q-46 0 -81 -36q-34 -34 -34 -82q0 -41 26.5 -67.5t69.5 -26.5zM85 196q0 -60 40.5 -98.5t104.5 -38.5q71 0 121 50q50 52 50 117q0 59 -41 98q-40 39 -104 39q-70 0 -121 -51q-50 -50 -50 -116z" />
    <glyph glyph-name="nine" unicode="9" horiz-adv-x="552" 
d="M180 0h-95l236 252q-15 -9 -47 -9q-94 0 -155 58q-60 59 -60 151q0 112 75 186q76 74 186 74q100 0 161 -60q63 -60 63 -153q0 -73 -29 -123q-31 -53 -109 -136zM287 312q85 0 133 49.5t48 129.5q0 66 -42.5 107.5t-111.5 41.5q-76 0 -128 -52q-51 -51 -51 -128
q0 -66 42 -107t110 -41z" />
    <glyph glyph-name="colon" unicode=":" horiz-adv-x="188" 
d="M97 340q-20 0 -33 12.5t-13 31.5q0 22 16.5 39t38.5 17q21 0 34 -12.5t13 -32.5q0 -22 -16 -38.5t-40 -16.5zM41 64q-20 0 -33 12.5t-13 31.5q0 22 16.5 39t38.5 17q21 0 34 -12.5t13 -32.5q0 -22 -16 -38.5t-40 -16.5z" />
    <glyph glyph-name="semicolon" unicode=";" horiz-adv-x="228" 
d="M117 340q-20 0 -33 12.5t-13 31.5q0 22 16.5 39t38.5 17q21 0 34 -12.5t13 -32.5q0 -22 -16 -38.5t-40 -16.5zM-109 -112l130 223h99l-163 -223h-66z" />
    <glyph glyph-name="less" unicode="&#x3c;" horiz-adv-x="414" 
d="M318 134l-277 195l11 54l357 196l-18 -89l-258 -139l201 -141z" />
    <glyph glyph-name="equal" unicode="=" horiz-adv-x="426" 
d="M395 402h-342l14 69h342zM361 238h-342l14 69h342z" />
    <glyph glyph-name="greater" unicode="&#x3e;" horiz-adv-x="413" 
d="M364 330l-357 -196l18 89l258 139l-201 141l16 76l277 -195z" />
    <glyph glyph-name="question" unicode="?" horiz-adv-x="396" 
d="M192 156q-56 0 -92 30.5t-36 78.5t28.5 86.5t93.5 79.5l44 27q42 25 64 41q19 15 25 28.5t9 43.5q0 30 -24.5 49.5t-65.5 19.5q-63 0 -139 -53l17 83q52 42 127 42q73 0 119 -37.5t46 -96.5q0 -30 -9 -66q-2 -7 -7.5 -16t-14.5 -19.5t-10 -12.5q-4 -5 -26 -22l-29 -20
l-39 -25l-42 -28q-42 -26 -60 -42q-28 -24 -28 -56q0 -19 15 -31t39 -12q35 0 67 12l-15 -73q-28 -11 -57 -11zM77 29q0 22 16.5 39t38.5 17q21 0 34 -12.5t13 -32.5q0 -22 -16 -38.5t-40 -16.5q-20 0 -33 12.5t-13 31.5z" />
    <glyph glyph-name="at" unicode="@" horiz-adv-x="803" 
d="M19 258q0 160 117 278q118 120 283 120q151 0 248 -89q97 -88 97 -227q0 -95 -53 -169q-52 -73 -130 -73q-64 0 -93 44l-8 17q-35 -47 -112 -47q-70 0 -114.5 43t-44.5 110q0 79 57 138q59 59 141 59q73 0 105 -44l7 35h68l-46 -229q-3 -15 -3 -22q0 -18 13 -29.5
t35 -11.5q45 0 77 53q32 55 32 123q0 112 -78 184q-77 72 -204 72q-137 0 -231 -100t-94 -228q0 -121 75 -197t199 -76q64 0 121 23l19 -58q-57 -28 -143 -28q-150 0 -245 92q-95 93 -95 237zM278 272q0 -42 25.5 -68t68.5 -26q50 0 86 36q37 36 37 97q0 39 -26.5 62.5
t-71.5 23.5q-50 0 -85 -38q-34 -37 -34 -87z" />
    <glyph glyph-name="A" unicode="A" horiz-adv-x="700" 
d="M39 0h-85l437 697h59l154 -697h-78l-38 172h-341zM400 578l-207 -334h279z" />
    <glyph glyph-name="B" unicode="B" horiz-adv-x="592" 
d="M294 0h-273l142 697h195q76 0 124 -45q48 -44 48 -112q0 -50 -27 -96t-72 -71q39 -17 62 -55.5t23 -86.5q0 -95 -61 -163q-60 -68 -161 -68zM229 625l-45 -219h150q51 0 87 37t36 86q0 42 -27.5 69t-72.5 27h-128zM170 336l-54 -264h178q63 0 105 45q43 46 43 104
q0 50 -35 82.5t-90 32.5h-147z" />
    <glyph glyph-name="C" unicode="C" horiz-adv-x="711" 
d="M39 305q0 106 52 198t145 150q93 57 203 57q89 0 161 -37.5t117 -104.5l-61 -48q-73 118 -221 118q-133 0 -226 -100t-93 -227q0 -112 73 -182q74 -71 192 -71q122 0 212 90l48 -53q-112 -109 -267 -109q-146 0 -241 89q-94 90 -94 230z" />
    <glyph glyph-name="D" unicode="D" horiz-adv-x="726" 
d="M300 0h-279l142 697h196q144 0 235 -88t91 -225q0 -150 -111 -267t-274 -117zM229 625l-113 -553h189q127 0 215 93q88 94 88 213q0 108 -69 177q-67 70 -180 70h-130z" />
    <glyph glyph-name="E" unicode="E" horiz-adv-x="549" 
d="M422 0h-401l142 697h394l-15 -72h-314l-45 -221h295l-14 -72h-295l-53 -260h321z" />
    <glyph glyph-name="F" unicode="F" horiz-adv-x="506" 
d="M101 0h-80l142 697h364l-15 -72h-284l-46 -225h259l-14 -72h-259z" />
    <glyph glyph-name="G" unicode="G" horiz-adv-x="740" 
d="M39 295q0 108 49 202q50 95 142 153q93 60 209 60q154 0 253 -115l-58 -51q-75 94 -202 94q-126 0 -221 -98q-93 -98 -93 -226q0 -116 72 -187q72 -69 191 -69q96 0 172 53l40 197h-213l14 72h291l-61 -306q-49 -42 -116 -65t-134 -23q-150 0 -243 90q-92 92 -92 219z
" />
    <glyph glyph-name="H" unicode="H" horiz-adv-x="727" 
d="M101 0h-80l142 697h80l-59 -291h383l59 291h80l-142 -697h-80l68 334h-383z" />
    <glyph glyph-name="I" unicode="I" horiz-adv-x="272" 
d="M105 0h-80l142 697h80z" />
    <glyph glyph-name="J" unicode="J" horiz-adv-x="310" 
d="M-59 1l15 70q27 -12 64 -12q39 0 58.5 30.5t33.5 99.5l104 508h78l-103 -505q-7 -37 -19 -81q-7 -24 -26 -61q-34 -64 -124 -64q-54 0 -81 15z" />
    <glyph glyph-name="K" unicode="K" horiz-adv-x="628" 
d="M100 0h-79l142 697h79l-73 -361l401 361h102l-346 -315l212 -382h-86l-185 333l-121 -109z" />
    <glyph glyph-name="L" unicode="L" horiz-adv-x="496" 
d="M386 0h-365l142 697h80l-127 -625h285z" />
    <glyph glyph-name="M" unicode="M" horiz-adv-x="859" 
d="M98 0h-77l142 697h72l170 -444l362 444h71l-142 -697h-77l110 537l-346 -420l-172 436z" />
    <glyph glyph-name="N" unicode="N" horiz-adv-x="751" 
d="M99 0h-78l142 697h61l314 -562l114 562h78l-142 -697h-57l-317 567z" />
    <glyph glyph-name="O" unicode="O" horiz-adv-x="820" 
d="M42 305q0 106 52 198t145 150q93 57 203 57q148 0 243 -92t95 -233q0 -101 -51 -193q-50 -90 -145 -149q-93 -57 -207 -57q-146 0 -241 89q-94 90 -94 230zM119 311q0 -112 73 -182q74 -71 192 -71q133 0 226 98t93 223q0 114 -73 186q-73 73 -192 73q-133 0 -226 -100
t-93 -227z" />
    <glyph glyph-name="P" unicode="P" horiz-adv-x="573" 
d="M101 0h-80l142 697h197q88 0 144 -54q56 -53 56 -136q0 -92 -68 -163t-167 -71h-168zM228 625l-57 -280h161q64 0 107 48q44 50 44 111q0 53 -35 87t-91 34h-129z" />
    <glyph glyph-name="Q" unicode="Q" horiz-adv-x="820" 
d="M42 305q0 106 52 198t145 150q93 57 203 57q148 0 243 -92t95 -233q0 -88 -41 -171t-113 -140l48 -77l-59 -39l-47 76q-90 -48 -191 -48q-146 0 -241 89q-94 90 -94 230zM119 311q0 -112 73 -182q74 -71 192 -71q78 0 146 37l-95 153l59 39l94 -152q54 47 84.5 111.5
t30.5 132.5q0 114 -73 186q-73 73 -192 73q-133 0 -226 -100t-93 -227z" />
    <glyph glyph-name="R" unicode="R" 
d="M101 0h-80l142 697h209q88 0 144 -54q56 -53 56 -135q0 -76 -49 -140q-48 -64 -126 -84l106 -284h-83l-104 276h-159zM227 625l-56 -277h170q65 0 108 48q45 48 45 109q0 52 -35 86t-91 34h-141z" />
    <glyph glyph-name="S" unicode="S" horiz-adv-x="550" 
d="M9 158l68 29q27 -129 163 -129q64 0 107 42q45 44 45 96q0 46 -29 77.5t-97 65.5q-75 37 -111.5 78t-36.5 99q0 77 61 135q62 59 147 59q66 0 114 -32t65 -89l-71 -33q-27 82 -114 82q-52 0 -87 -34q-35 -33 -35 -76q0 -40 27.5 -69t87.5 -58q159 -77 159 -194
q0 -86 -69 -154q-68 -67 -170 -67q-83 0 -147 44q-63 44 -77 128z" />
    <glyph glyph-name="T" unicode="T" horiz-adv-x="518" 
d="M228 0h-80l127 625h-189l15 72h458l-15 -72h-189z" />
    <glyph glyph-name="U" unicode="U" horiz-adv-x="696" 
d="M61 210q0 34 9 78l83 409h80l-91 -442q-3 -16 -3 -43q0 -70 42.5 -111t119.5 -41q80 0 133.5 48.5t73.5 142.5l91 446h79l-93 -461q-26 -122 -102.5 -185t-187.5 -63q-107 0 -171 61q-63 61 -63 161z" />
    <glyph glyph-name="V" unicode="V" horiz-adv-x="689" 
d="M298 0h-55l-150 697h77l123 -566l353 566h86z" />
    <glyph glyph-name="W" unicode="W" horiz-adv-x="920" 
d="M208 0h-50l-62 697h76l47 -530l283 530h54l63 -529l262 529h81l-346 -697h-50l-65 543z" />
    <glyph glyph-name="X" unicode="X" horiz-adv-x="643" 
d="M56 0h-95l310 367l-154 330h83l127 -274l233 274h95l-292 -345l167 -352h-84l-139 296z" />
    <glyph glyph-name="Y" unicode="Y" horiz-adv-x="612" 
d="M271 0h-79l57 282l-162 415h82l133 -339l261 339h92l-329 -426z" />
    <glyph glyph-name="Z" unicode="Z" horiz-adv-x="625" 
d="M508 0h-540l10 48l541 577h-375l15 72h484l-11 -52l-537 -573h428z" />
    <glyph glyph-name="bracketleft" unicode="[" horiz-adv-x="307" 
d="M218 625l-152 -746h147l-14 -72h-225l181 890h225l-15 -72h-147z" />
    <glyph glyph-name="backslash" unicode="\" horiz-adv-x="422" 
d="M311 -136h-71l-139 859h71z" />
    <glyph glyph-name="bracketright" unicode="]" horiz-adv-x="307" 
d="M-98 -121h147l152 746h-147l15 72h225l-181 -890h-225z" />
    <glyph glyph-name="asciicircum" unicode="^" horiz-adv-x="520" 
d="M111 350h-88l278 347h59l137 -347h-79l-100 256z" />
    <glyph glyph-name="underscore" unicode="_" horiz-adv-x="296" 
d="M-112 -193l14 69h300l-14 -69h-300z" />
    <glyph glyph-name="grave" unicode="`" horiz-adv-x="538" 
d="M349 552h-59l-63 145h99z" />
    <glyph glyph-name="a" unicode="a" horiz-adv-x="645" 
d="M9 221q0 120 87 208q88 90 209 90q72 0 124.5 -27t72.5 -64l16 76h76l-82 -401q-3 -13 -3 -24q0 -29 31 -29q8 0 26 2l-12 -57q-11 -7 -37 -7q-30 0 -50 17q-26 23 -26 63v1q-27 -37 -78 -59t-112 -22q-107 0 -175 65q-67 66 -67 168zM85 225q0 -75 47 -122t125 -47
q92 0 157 65q66 65 66 174q0 69 -50.5 112t-131.5 43q-90 0 -151 -69q-62 -68 -62 -156z" />
    <glyph glyph-name="b" unicode="b" horiz-adv-x="600" 
d="M60 0h-74l142 697h74l-48 -236q55 58 156 58q105 0 173 -68t68 -173q0 -68 -33 -133q-32 -65 -99 -111t-153 -46q-67 0 -117.5 26t-72.5 67zM98 225q0 -75 45.5 -122t120.5 -47q89 0 150 67q62 68 62 151q0 77 -49 126q-48 50 -127 50q-86 0 -144 -69q-58 -67 -58 -156z
" />
    <glyph glyph-name="c" unicode="c" horiz-adv-x="517" 
d="M9 221q0 118 87 208t207 90q129 0 206 -96l-52 -48q-53 75 -153 75q-90 0 -155 -69q-64 -68 -64 -156q0 -75 49 -124q50 -48 131 -48q86 0 144 61l45 -48q-82 -81 -197 -81q-109 0 -179 66q-69 67 -69 170z" />
    <glyph glyph-name="d" unicode="d" horiz-adv-x="644" 
d="M9 221q0 120 87 208q88 90 209 90q72 0 124.5 -27t72.5 -64l56 269h76l-122 -594q-3 -13 -3 -24q0 -29 31 -29q8 0 26 2l-12 -57q-11 -7 -37 -7q-30 0 -50 17q-26 23 -26 63v1q-27 -37 -78 -59t-112 -22q-107 0 -175 65q-67 66 -67 168zM85 225q0 -75 47 -122t125 -47
q92 0 157 65q66 65 66 174q0 69 -50.5 112t-131.5 43q-90 0 -151 -69q-62 -68 -62 -156z" />
    <glyph glyph-name="e" unicode="e" horiz-adv-x="551" 
d="M3 206q0 124 84 216q85 93 209 93q98 0 154 -63q55 -62 55 -161q0 -30 -8 -57h-416q-2 -2 -2 -20q0 -79 43.5 -121.5t126.5 -42.5q85 0 142 62l47 -50q-81 -81 -192 -81q-113 0 -178 60.5t-65 164.5zM95 299h335q1 3 1 10q0 60 -39 98.5t-101 38.5q-65 0 -117 -40
t-79 -107z" />
    <glyph glyph-name="f" unicode="f" horiz-adv-x="313" 
d="M115 0h-74l89 435h-81l14 69h81l15 75q13 64 55.5 98.5t106.5 34.5q37 0 55 -7l-14 -68q-22 5 -52 5q-63 0 -80 -77l-12 -61h95l-14 -69h-95z" />
    <glyph glyph-name="g" unicode="g" horiz-adv-x="621" 
d="M-18 -130l47 56q80 -77 186 -77q161 0 207 184l10 41q-54 -86 -179 -86q-107 0 -175 65q-67 66 -67 168q0 120 87 208q89 90 209 90q72 0 124.5 -27t72.5 -64l16 76h76l-88 -427q-16 -74 -35.5 -123t-52.5 -90q-68 -84 -214 -84q-132 0 -224 90zM87 225q0 -75 47 -122
t125 -47q92 0 157 65q66 65 66 174q0 69 -50.5 112t-131.5 43q-90 0 -151 -69q-62 -68 -62 -156z" />
    <glyph glyph-name="h" unicode="h" horiz-adv-x="545" 
d="M62 0h-76l142 697h76l-56 -271q52 86 155 86q76 0 118.5 -44t42.5 -121q0 -22 -5 -50l-38 -185q-3 -15 -3 -23q0 -30 26 -30q5 0 21 2l-12 -57q-11 -7 -32 -7q-35 0 -57.5 21t-22.5 55q0 19 4 31l38 189q4 25 4 40q0 52 -28 81t-80 29q-58 0 -103 -45q-43 -43 -57 -112z
" />
    <glyph glyph-name="i" unicode="i" horiz-adv-x="214" 
d="M2 64q0 14 4 31l84 409h76l-82 -401q-3 -13 -3 -24q0 -29 31 -29q8 0 26 2l-12 -57q-13 -7 -39 -7q-38 0 -61.5 21t-23.5 55zM149 588q-20 0 -33 12.5t-13 31.5q0 22 16.5 39t38.5 17q21 0 34 -12.5t13 -32.5q0 -22 -16 -38.5t-40 -16.5z" />
    <glyph glyph-name="j" unicode="j" horiz-adv-x="188" 
d="M149 586q-20 0 -33 12.5t-13 31.5q0 22 16.5 39t38.5 17q21 0 34 -12.5t13 -32.5q0 -22 -16 -38.5t-40 -16.5zM-27 -60l116 564h74l-118 -575q-15 -76 -55.5 -106.5t-108.5 -30.5q-30 0 -42 5l14 68q15 -4 38 -4q34 0 53 18.5t29 60.5z" />
    <glyph glyph-name="k" unicode="k" horiz-adv-x="466" 
d="M62 0h-76l142 697h76l-86 -424l247 231h99l-235 -223l159 -281h-86l-130 231l-79 -76z" />
    <glyph glyph-name="l" unicode="l" horiz-adv-x="267" 
d="M11 98q0 19 6 49l112 550h76l-113 -555q-4 -17 -4 -31q0 -24 15.5 -38.5t44.5 -14.5q14 0 27 3l-14 -68q-9 -4 -29 -4q-56 0 -88.5 30t-32.5 79z" />
    <glyph glyph-name="m" unicode="m" horiz-adv-x="818" 
d="M62 0h-76l103 504h76l-15 -75q47 83 133 83q110 0 140 -91q24 44 68.5 67.5t100.5 23.5q68 0 105.5 -42.5t37.5 -117.5q0 -30 -4 -46l-39 -194q-3 -15 -3 -23q0 -30 26 -30q5 0 21 2l-12 -57q-11 -7 -32 -7q-36 0 -59 21t-23 55q0 11 4 31l41 201q3 18 3 38
q0 47 -24.5 73.5t-69.5 26.5q-48 0 -84 -32.5t-46 -82.5l-66 -328h-76l63 309q3 18 3 36q0 46 -25.5 72t-72.5 26q-50 0 -87.5 -37.5t-48.5 -95.5z" />
    <glyph glyph-name="n" unicode="n" horiz-adv-x="548" 
d="M60 0h-74l102 504h74l-16 -78q24 40 65 63t89 23q79 0 123.5 -47t44.5 -129q0 -26 -5 -54l-35 -170q-3 -15 -3 -23q0 -30 26 -30q5 0 21 2l-12 -57q-11 -7 -32 -7q-35 0 -56.5 21t-21.5 55q4 7 4 33l35 174q4 13 4 44q0 56 -30 87.5t-85 31.5q-59 0 -103 -43.5
t-58 -113.5z" />
    <glyph glyph-name="o" unicode="o" 
d="M9 221q0 119 88 208q89 90 211 90q108 0 179 -68q70 -67 70 -173q0 -116 -87 -204q-86 -89 -211 -89q-109 0 -180 66q-70 66 -70 170zM85 225q0 -76 49.5 -124t130.5 -48q90 0 153 67q64 67 64 154q0 76 -50 126t-131 50q-90 0 -153 -69q-63 -67 -63 -156z" />
    <glyph glyph-name="p" unicode="p" horiz-adv-x="600" 
d="M76 81l-55 -274h-74l142 697h74l-9 -43q55 58 156 58q105 0 173 -68t68 -173q0 -68 -33 -133q-32 -65 -99 -111t-153 -46q-67 0 -118 26t-72 67zM98 225q0 -75 45.5 -122t120.5 -47q89 0 150 67q62 68 62 151q0 77 -49 126q-48 50 -127 50q-86 0 -144 -69
q-58 -67 -58 -156z" />
    <glyph glyph-name="q" unicode="q" horiz-adv-x="616" 
d="M9 221q0 120 87 208q88 90 209 90q72 0 124.5 -27t72.5 -64l16 76h76l-142 -697h-76l54 267q-54 -86 -179 -86q-107 0 -175 65q-67 66 -67 168zM85 225q0 -75 47 -122t125 -47q92 0 157 65q66 65 66 174q0 69 -50.5 112t-131.5 43q-90 0 -151 -69q-62 -68 -62 -156z" />
    <glyph glyph-name="r" unicode="r" horiz-adv-x="361" 
d="M62 0h-76l103 504h76l-17 -78q25 40 68.5 63t96.5 23q19 0 37 -3l-16 -73q-22 5 -43 5q-62 0 -111 -44q-48 -45 -61 -111z" />
    <glyph glyph-name="s" unicode="s" horiz-adv-x="414" 
d="M-28 130l66 23q13 -45 48.5 -70.5t86.5 -25.5q42 0 73 24.5t31 55.5q0 30 -23 52t-79 49q-115 57 -115 144q0 54 45 95q46 42 109 42q57 0 99 -28.5t56 -76.5l-65 -26q-18 63 -87 63q-33 0 -57 -20t-24 -45q0 -48 93 -93q124 -60 124 -154q0 -59 -52 -105
q-50 -46 -127 -46t-131 38t-71 104z" />
    <glyph glyph-name="t" unicode="t" horiz-adv-x="310" 
d="M42 98q0 22 6 49l59 288h-59l14 69h59l39 193h76l-39 -193h117l-14 -69h-117l-60 -293q-4 -17 -4 -31q0 -24 15.5 -38.5t43.5 -14.5q26 0 45 3l-14 -67q-18 -5 -45 -5q-56 0 -89 30t-33 79z" />
    <glyph glyph-name="u" unicode="u" horiz-adv-x="544" 
d="M11 160q0 18 8 63l61 281h77l-64 -298q-5 -27 -5 -47q0 -45 29 -73.5t81 -28.5q63 0 109.5 43.5t63.5 128.5l56 275h76l-80 -392q-3 -15 -3 -23q0 -30 26 -30q5 0 21 2l-12 -57q-11 -7 -32 -7q-31 0 -52 21q-19 21 -21 51v1q-18 -36 -62.5 -59t-100.5 -23q-80 0 -128 49
t-48 123z" />
    <glyph glyph-name="v" unicode="v" horiz-adv-x="512" 
d="M211 0h-51l-113 504h73l85 -388l241 388h84z" />
    <glyph glyph-name="w" unicode="w" horiz-adv-x="746" 
d="M175 0h-49l-79 504h72l55 -370l205 370h52l48 -366l205 366h79l-285 -504h-49l-50 367z" />
    <glyph glyph-name="x" unicode="x" horiz-adv-x="513" 
d="M230 204l-185 -204h-91l242 266l-122 238h81l93 -184l163 184h92l-221 -246l135 -258h-78z" />
    <glyph glyph-name="y" unicode="y" horiz-adv-x="504" 
d="M94 -83l49 86l-96 501h74l78 -411l240 411h82l-348 -590q-39 -67 -73 -95t-86 -28q-38 0 -62 11l14 66q21 -8 49 -8q27 0 44 13t35 44z" />
    <glyph glyph-name="z" unicode="z" horiz-adv-x="499" 
d="M387 0h-430l9 44l388 391h-275l14 69h381l-10 -49l-384 -386h321z" />
    <glyph glyph-name="braceleft" unicode="{" horiz-adv-x="318" 
d="M29 -65l38 190q4 17 4 33q0 32 -19.5 50.5t-48.5 19.5l10 48q86 7 106 103l39 190q14 69 46.5 98.5t95.5 29.5h49l-12 -59h-37q-31 0 -46.5 -17t-21.5 -52l-38 -183q-11 -50 -19 -69q-10 -26 -28.5 -41t-56.5 -29q53 -23 53 -90q0 -17 -6 -51l-37 -186q-2 -12 -2 -19
q0 -16 12.5 -25.5t32.5 -9.5h37l-12 -59h-45q-45 0 -71 26.5t-26 71.5q0 13 3 30z" />
    <glyph glyph-name="bar" unicode="|" horiz-adv-x="248" 
d="M85 -25h-74l152 747h74z" />
    <glyph glyph-name="braceright" unicode="}" horiz-adv-x="318" 
d="M47 -65l38 183q10 46 18 69q11 26 29.5 41t56.5 29q-53 23 -53 90q0 17 6 51l37 186q2 12 2 19q0 16 -12.5 25.5t-32.5 9.5h-37l12 59h45q45 0 71 -26.5t26 -71.5q0 -13 -3 -30l-38 -190q-4 -17 -4 -33q0 -32 19.5 -50.5t48.5 -19.5l-10 -48q-86 -7 -106 -103l-39 -190
q-14 -69 -46.5 -98.5t-95.5 -29.5h-49l12 59h37q31 0 46.5 17t21.5 52z" />
    <glyph glyph-name="asciitilde" unicode="~" horiz-adv-x="418" 
d="M67 299l-48 4q13 41 45 66.5t73 25.5q35 0 81 -20q44 -19 68 -19q42 0 65 41l48 -4q-33 -98 -122 -98q-39 0 -83 19q-45 20 -67 20q-43 0 -60 -35z" />
    <glyph glyph-name="exclamdown" unicode="&#xa1;" horiz-adv-x="240" 
d="M138 411q-20 0 -33 12.5t-13 31.5q0 22 16.5 39t38.5 17q21 0 34 -12.5t13 -32.5q0 -22 -16 -38.5t-40 -16.5zM55 -201h-94l126 542h62z" />
    <glyph glyph-name="cent" unicode="&#xa2;" horiz-adv-x="533" 
d="M185 0h-68l45 109q-61 29 -95 84.5t-34 126.5q0 118 87 208t207 90q22 0 43 -3l34 82h68l-40 -97q59 -23 102 -73l-52 -48q-29 38 -77 56l-156 -380q18 -3 40 -3q86 0 144 61l45 -48q-82 -81 -197 -81q-32 0 -59 6zM190 177l153 371q-3 1 -15 1q-90 0 -155 -69
q-64 -68 -64 -156q0 -100 81 -147z" />
    <glyph glyph-name="sterling" unicode="&#xa3;" horiz-adv-x="586" 
d="M471 0h-502l14 67h9q58 0 101.5 17.5t64.5 45.5q38 50 38 99q0 31 -12 68h-104l15 72h68q-28 57 -28 126q0 87 66 151q67 66 159 66q85 0 138 -50q54 -50 54 -128q0 -10 -4 -27h-77q3 13 3 18q0 51 -32.5 83t-86.5 32q-60 0 -100 -43q-41 -44 -41 -98q0 -61 30 -130h153
l-15 -72h-115q8 -29 8 -56q0 -111 -88 -169h299z" />
    <glyph glyph-name="currency" unicode="&#xa4;" horiz-adv-x="645" 
d="M150 148l-80 -77l-46 55l87 66q-31 49 -31 114q0 107 80 187l-69 77l55 46l62 -85q62 38 132 38q91 0 150 -52l81 78l46 -55l-89 -67q32 -50 32 -115q0 -108 -81 -186l69 -76l-55 -45l-63 83q-58 -36 -132 -36q-89 0 -148 50zM305 163q78 0 130 58q54 59 54 131
q0 67 -42 109.5t-111 42.5q-77 0 -131 -59t-54 -133q0 -66 42.5 -107.5t111.5 -41.5z" />
    <glyph glyph-name="yen" unicode="&#xa5;" horiz-adv-x="614" 
d="M279 0h-79l42 211h-213l15 72h214l-35 88h-162l15 72h118l-99 254h81l134 -339l261 339h92l-196 -254h111l-15 -72h-152l-68 -88h203l-15 -72h-209z" />
    <glyph glyph-name="brokenbar" unicode="&#xa6;" horiz-adv-x="248" 
d="M174 415h-74l58 282h74zM90 0h-74l60 294h74z" />
    <glyph glyph-name="section" unicode="&#xa7;" horiz-adv-x="517" 
d="M7 -23h77q-4 -17 -4 -28q0 -37 24.5 -61t65.5 -24q44 0 74 31q31 30 31 69q0 28 -13 48q-8 14 -18.5 23.5t-19.5 15t-37 21.5q-100 60 -127 90q-44 42 -44 104q0 120 132 175q-15 15 -24.5 41t-9.5 50q0 71 56 125q55 55 134 55q72 0 117 -42q46 -42 46 -107
q0 -21 -4 -36h-78q3 15 3 30q0 36 -24.5 59.5t-65.5 23.5q-43 0 -74 -31q-30 -30 -30 -69q0 -34 19.5 -56.5t68.5 -52.5q104 -63 129 -90q41 -41 41 -103q0 -61 -36 -105.5t-94 -69.5q32 -35 32 -90q0 -71 -55 -126t-135 -55q-72 0 -117.5 42.5t-45.5 108.5q0 21 6 34z
M221 143q20 -10 44 -26q42 9 67 33q41 36 41 75q0 45 -35 75q-21 18 -36 27q-13 9 -55 34q-21 11 -43 26q-41 -9 -68 -33q-40 -37 -40 -75q0 -45 35 -76q24 -21 36 -28q23 -15 54 -32z" />
    <glyph glyph-name="dieresis" unicode="&#xa8;" 
d="M459 586q-20 0 -33 12.5t-13 31.5q0 22 16.5 39t38.5 17q21 0 34 -12.5t13 -32.5q0 -22 -16 -38.5t-40 -16.5zM253 586q-20 0 -33 12.5t-13 31.5q0 22 16.5 39t38.5 17q21 0 34 -12.5t13 -32.5q0 -22 -16 -38.5t-40 -16.5z" />
    <glyph glyph-name="copyright" unicode="&#xa9;" horiz-adv-x="812" 
d="M34 304q0 162 119 284q119 123 285 123q150 0 245 -92q96 -91 96 -234q0 -103 -51 -194q-50 -90 -146 -149q-94 -58 -209 -58q-149 0 -244 90t-95 230zM81 306q0 -122 81 -202q82 -79 215 -79q100 0 182 52q83 53 129 134q46 82 46 171q0 128 -81 207q-81 81 -215 81
q-99 0 -182 -53q-82 -52 -129 -137q-46 -82 -46 -174zM206 323q0 91 66 158q66 68 156 68q98 0 157 -69l-52 -47q-38 47 -104 47q-61 0 -104 -46t-43 -104q0 -51 33.5 -83t87.5 -32q56 0 95 39l45 -48q-62 -61 -150 -61q-82 0 -135 50q-52 49 -52 128z" />
    <glyph glyph-name="ordfeminine" unicode="&#xaa;" horiz-adv-x="447" 
d="M181 315q-53 0 -87.5 28.5t-34.5 73.5q0 123 183 132q61 3 79 12t18 41q0 22 -20 36t-53 14q-59 0 -100 -56l-40 34q25 35 63.5 55.5t81.5 20.5q54 0 89.5 -29t35.5 -75q0 -1 -2 -23l-39 -187q-1 -3 -1 -10q0 -15 18 -15q9 0 15 2l-10 -42q-15 -9 -34 -9q-21 0 -32.5 10
t-11.5 25q0 8 1 11q-34 -49 -119 -49zM185 369q111 0 130 105l6 33q-4 -4 -23 -9q-2 0 -67 -5q-112 -7 -112 -69q0 -24 18.5 -39.5t47.5 -15.5z" />
    <glyph glyph-name="guillemotleft" unicode="&#xab;" horiz-adv-x="416" 
d="M326 78h-80l-75 175l146 175h92l-154 -184zM170 78h-80l-75 175l146 175h92l-154 -184z" />
    <glyph glyph-name="logicalnot" unicode="&#xac;" horiz-adv-x="568" 
d="M459 382h-410l14 69h484l-55 -270h-74z" />
    <glyph glyph-name="registered" unicode="&#xae;" horiz-adv-x="394" 
d="M223 393q-66 0 -108 39.5t-42 101.5q0 71 53 124q52 54 126 54q66 0 109 -41q43 -40 43 -102q0 -68 -53 -123q-53 -53 -128 -53zM226 424q61 0 103 44t42 100q0 51 -33.5 83.5t-87.5 32.5q-61 0 -103 -45t-42 -102q0 -49 33.5 -81t87.5 -32zM195 465h-34l37 183h59
q24 0 39.5 -14.5t15.5 -36.5q0 -44 -43 -60l30 -72h-40l-27 67h-24zM225 616l-11 -56h31q13 0 22 10t9 22q0 10 -7.5 17t-18.5 7h-25z" />
    <glyph glyph-name="overscore" unicode="&#xaf;" horiz-adv-x="620" 
d="M514 628h-294l14 69h294z" />
    <glyph glyph-name="degree" unicode="&#xb0;" horiz-adv-x="360" 
d="M212 436q-54 0 -88 32.5t-34 83.5q0 60 43 103q43 45 103 45q54 0 88.5 -33.5t34.5 -85.5q0 -58 -43 -101q-42 -44 -104 -44zM219 502q28 0 48 22t20 51q0 26 -15.5 42.5t-41.5 16.5q-28 0 -48 -22.5t-20 -51.5q0 -26 15.5 -42t41.5 -16z" />
    <glyph glyph-name="plusminus" unicode="&#xb1;" horiz-adv-x="384" 
d="M198 190h-76l25 123h-112l14 69h112l25 124h76l-25 -124h112l-14 -69h-112zM271 0h-300l14 69h300z" />
    <glyph glyph-name="twosuperior" unicode="&#xb2;" horiz-adv-x="325" 
d="M283 328h-243l8 40l189 177q36 35 36 57t-14 35.5t-38 13.5q-43 0 -59 -55h-56q10 51 41 80t80 29q46 0 75 -28t29 -71q0 -48 -54 -95l-141 -130h158z" />
    <glyph glyph-name="threesuperior" unicode="&#xb3;" horiz-adv-x="346" 
d="M38 419l51 18q19 -63 89 -63q38 0 65 24t27 55q0 30 -24.5 49t-65.5 19q-23 0 -38 -5l-15 26l122 102h-128l11 53h224l-7 -33l-125 -99q7 0 10 -1q42 -7 67 -36.5t25 -70.5q0 -57 -43 -97t-111 -40q-50 0 -86 27t-48 72z" />
    <glyph glyph-name="acute" unicode="&#xb4;" horiz-adv-x="538" 
d="M331 552h-62l83 145h102z" />
    <glyph glyph-name="paragraph" unicode="&#xb6;" horiz-adv-x="539" 
d="M239 0h-78l54 267q-74 9 -119 63t-45 133q0 93 70 163q71 71 167 71h311l-15 -72h-66l-127 -625h-78l127 625h-74z" />
    <glyph glyph-name="middot" unicode="&#xb7;" horiz-adv-x="188" 
d="M69 202q-20 0 -33 12.5t-13 31.5q0 22 16.5 39t38.5 17q21 0 34 -12.5t13 -32.5q0 -22 -16 -38.5t-40 -16.5z" />
    <glyph glyph-name="cedilla" unicode="&#xb8;" horiz-adv-x="529" 
d="M131 -78h-1l48 78h59l-31 -47h1q23 -4 38 -21t15 -41q0 -39 -31.5 -64t-77.5 -25q-59 0 -84 25l26 37q33 -14 56 -14q20 0 34 12t14 27q0 33 -66 33z" />
    <glyph glyph-name="onesuperior" unicode="&#xb9;" horiz-adv-x="222" 
d="M141 328h-57l64 316h-48l11 53h105z" />
    <glyph glyph-name="ordmasculine" unicode="&#xba;" horiz-adv-x="456" 
d="M243 318q-79 0 -130 48t-51 123q0 87 64 151q64 66 152 66q81 0 131 -49q51 -49 51 -125q0 -84 -63 -149q-62 -65 -154 -65zM249 379q60 0 102 45t42 102q0 52 -33 85.5t-87 33.5q-60 0 -102 -46q-42 -47 -42 -104q0 -51 33 -83.5t87 -32.5z" />
    <glyph glyph-name="guillemotright" unicode="&#xbb;" horiz-adv-x="416" 
d="M216 78h-92l154 184l-71 166h80l75 -175zM59 78h-92l154 184l-71 166h80l75 -175z" />
    <glyph glyph-name="onequarter" unicode="&#xbc;" horiz-adv-x="672" 
d="M81 0h-74l532 697h74zM161 328h-57l64 316h-48l11 53h105zM491 73h-204l8 39l180 257h63l-170 -242h134l15 74h57l-41 -201h-57z" />
    <glyph glyph-name="onehalf" unicode="&#xbd;" horiz-adv-x="704" 
d="M81 0h-74l532 697h74zM161 328h-57l64 316h-48l11 53h105zM575 0h-243l8 40l189 177q36 35 36 57t-14 35.5t-38 13.5q-43 0 -59 -55h-56q10 51 41 80t80 29q46 0 75 -28t29 -71q0 -49 -54 -95l-141 -130h158z" />
    <glyph glyph-name="threequarters" unicode="&#xbe;" horiz-adv-x="770" 
d="M179 0h-74l532 697h74zM589 73h-204l8 39l180 257h63l-170 -242h134l15 74h57l-41 -201h-57zM48 419l51 18q19 -63 89 -63q38 0 65 24t27 55q0 30 -24.5 49t-65.5 19q-23 0 -38 -5l-15 26l122 102h-128l11 53h224l-7 -33l-125 -99q7 0 10 -1q42 -7 67 -36.5t25 -70.5
q0 -57 -43 -97t-111 -40q-50 0 -86 27t-48 72z" />
    <glyph glyph-name="questiondown" unicode="&#xbf;" horiz-adv-x="396" 
d="M223 411q-21 0 -34 12.5t-13 32.5q0 22 16 38.5t40 16.5q20 0 33 -12.5t13 -31.5q0 -22 -16.5 -39t-38.5 -17zM27 -75q0 -30 24.5 -49.5t65.5 -19.5q63 0 139 53l-17 -83q-52 -42 -127 -42q-73 0 -119 37.5t-46 96.5q0 30 9 66q4 15 32 47q7 9 26 22l29 21l38 25l43 28
q39 24 59 41q29 26 29 57q0 19 -15 31t-39 12q-36 0 -67 -12l15 73q28 11 57 11q56 0 92 -30.5t36 -78.5t-28.5 -86.5t-93.5 -79.5l-45 -27q-42 -25 -63 -41q-19 -15 -25 -28.5t-9 -43.5z" />
    <glyph glyph-name="Agrave" unicode="&#xc0;" horiz-adv-x="700" 
d="M39 0h-85l437 697h59l154 -697h-78l-38 172h-341zM400 578l-207 -334h279zM450 745h-59l-63 145h99z" />
    <glyph glyph-name="Aacute" unicode="&#xc1;" horiz-adv-x="700" 
d="M39 0h-85l437 697h59l154 -697h-78l-38 172h-341zM400 578l-207 -334h279zM449 745h-62l83 145h102z" />
    <glyph glyph-name="Acircumflex" unicode="&#xc2;" horiz-adv-x="700" 
d="M39 0h-85l437 697h59l154 -697h-78l-38 172h-341zM400 578l-207 -334h279zM358 769h-94l147 121h88l97 -121h-84l-59 81z" />
    <glyph glyph-name="Atilde" unicode="&#xc3;" horiz-adv-x="700" 
d="M334 758l-52 4q12 42 41 67t68 25q27 0 59 -20q32 -19 50 -19q33 0 50 41l52 -4q-29 -98 -111 -98q-29 0 -61 19q-34 20 -50 20q-32 0 -46 -35zM39 0h-85l437 697h59l154 -697h-78l-38 172h-341zM400 578l-207 -334h279z" />
    <glyph glyph-name="Adieresis" unicode="&#xc4;" horiz-adv-x="700" 
d="M536 744q-20 0 -33 12.5t-13 31.5q0 22 16.5 39t38.5 17q21 0 34 -12.5t13 -32.5q0 -22 -16 -38.5t-40 -16.5zM330 744q-20 0 -33 12.5t-13 31.5q0 22 16.5 39t38.5 17q21 0 34 -12.5t13 -32.5q0 -22 -16 -38.5t-40 -16.5zM39 0h-85l437 697h59l154 -697h-78l-38 172
h-341zM400 578l-207 -334h279z" />
    <glyph glyph-name="Aring" unicode="&#xc5;" horiz-adv-x="656" 
d="M26 0h-87l425 665q-27 8 -43.5 30t-16.5 52q0 42 32 76q32 33 76 33q40 0 65.5 -25t25.5 -63q0 -37 -25.5 -67.5t-63.5 -37.5l156 -663h-77l-42 172h-315zM399 712q21 0 36.5 15.5t15.5 36.5q0 18 -12 29.5t-31 11.5q-21 0 -36.5 -15.5t-15.5 -36.5q0 -18 12 -29.5
t31 -11.5zM368 537l-185 -293h251z" />
    <glyph glyph-name="AE" unicode="&#xc6;" horiz-adv-x="890" 
d="M13 0h-100l676 697h310l-15 -72h-250l-45 -221h231l-14 -72h-231l-53 -260h257l-15 -72h-337l35 172h-282zM537 539l-287 -295h227z" />
    <glyph glyph-name="Ccedilla" unicode="&#xc7;" horiz-adv-x="711" 
d="M199 -173l26 37q33 -14 56 -14q20 0 34 12t14 27q0 33 -66 33h-1l43 70q-119 19 -193 105q-73 85 -73 208q0 106 52 198t145 150q93 57 203 57q89 0 161 -37.5t117 -104.5l-61 -48q-73 118 -221 118q-133 0 -226 -100t-93 -227q0 -112 73 -182q74 -71 192 -71
q122 0 212 90l48 -53q-112 -109 -267 -109h-14l-21 -33q23 -4 38 -21t15 -41q0 -39 -31.5 -64t-77.5 -25q-59 0 -84 25z" />
    <glyph glyph-name="Egrave" unicode="&#xc8;" horiz-adv-x="549" 
d="M422 0h-401l142 697h394l-15 -72h-314l-45 -221h295l-14 -72h-295l-53 -260h321zM417 745h-59l-63 145h99z" />
    <glyph glyph-name="Eacute" unicode="&#xc9;" horiz-adv-x="549" 
d="M422 0h-401l142 697h394l-15 -72h-314l-45 -221h295l-14 -72h-295l-53 -260h321zM388 745h-62l83 145h102z" />
    <glyph glyph-name="Ecircumflex" unicode="&#xca;" horiz-adv-x="549" 
d="M422 0h-401l142 697h394l-15 -72h-314l-45 -221h295l-14 -72h-295l-53 -260h321zM298 769h-94l147 121h88l97 -121h-84l-59 81z" />
    <glyph glyph-name="Edieresis" unicode="&#xcb;" horiz-adv-x="549" 
d="M482 763q-20 0 -33 12.5t-13 31.5q0 22 16.5 39t38.5 17q21 0 34 -12.5t13 -32.5q0 -22 -16 -38.5t-40 -16.5zM276 763q-20 0 -33 12.5t-13 31.5q0 22 16.5 39t38.5 17q21 0 34 -12.5t13 -32.5q0 -22 -16 -38.5t-40 -16.5zM422 0h-401l142 697h394l-15 -72h-314l-45 -221
h295l-14 -72h-295l-53 -260h321z" />
    <glyph glyph-name="Igrave" unicode="&#xcc;" horiz-adv-x="272" 
d="M105 0h-80l142 697h80zM245 745h-59l-63 145h99z" />
    <glyph glyph-name="Iacute" unicode="&#xcd;" horiz-adv-x="272" 
d="M105 0h-80l142 697h80zM245 745h-62l83 145h102z" />
    <glyph glyph-name="Icircumflex" unicode="&#xce;" horiz-adv-x="272" 
d="M148 769h-94l147 121h88l97 -121h-84l-59 81zM105 0h-80l142 697h80z" />
    <glyph glyph-name="Idieresis" unicode="&#xcf;" horiz-adv-x="272" 
d="M311 763q-20 0 -33 12.5t-13 31.5q0 22 16.5 39t38.5 17q21 0 34 -12.5t13 -32.5q0 -22 -16 -38.5t-40 -16.5zM125 763q-20 0 -33 12.5t-13 31.5q0 22 16.5 39t38.5 17q21 0 34 -12.5t13 -32.5q0 -22 -16 -38.5t-40 -16.5zM105 0h-80l142 697h80z" />
    <glyph glyph-name="Eth" unicode="&#xd0;" horiz-adv-x="726" 
d="M300 0h-279l65 322h-64l14 72h65l62 303h196q144 0 235 -88t91 -225q0 -150 -111 -267t-274 -117zM167 322l-51 -250h189q127 0 215 93q88 94 88 213q0 108 -69 177q-67 70 -180 70h-130l-48 -231h143l-14 -72h-143z" />
    <glyph glyph-name="Ntilde" unicode="&#xd1;" horiz-adv-x="751" 
d="M348 758l-52 4q12 42 41 67t68 25q27 0 59 -20q32 -19 50 -19q33 0 50 41l52 -4q-29 -98 -111 -98q-29 0 -61 19q-34 20 -50 20q-32 0 -46 -35zM99 0h-78l142 697h61l314 -562l114 562h78l-142 -697h-57l-317 567z" />
    <glyph glyph-name="Ograve" unicode="&#xd2;" horiz-adv-x="820" 
d="M42 305q0 106 52 198t145 150q93 57 203 57q148 0 243 -92t95 -233q0 -101 -51 -193q-50 -90 -145 -149q-93 -57 -207 -57q-146 0 -241 89q-94 90 -94 230zM119 311q0 -112 73 -182q74 -71 192 -71q133 0 226 98t93 223q0 114 -73 186q-73 73 -192 73q-133 0 -226 -100
t-93 -227zM524 745h-59l-63 145h99z" />
    <glyph glyph-name="Oacute" unicode="&#xd3;" horiz-adv-x="820" 
d="M42 305q0 106 52 198t145 150q93 57 203 57q148 0 243 -92t95 -233q0 -101 -51 -193q-50 -90 -145 -149q-93 -57 -207 -57q-146 0 -241 89q-94 90 -94 230zM119 311q0 -112 73 -182q74 -71 192 -71q133 0 226 98t93 223q0 114 -73 186q-73 73 -192 73q-133 0 -226 -100
t-93 -227zM507 745h-62l83 145h102z" />
    <glyph glyph-name="Ocircumflex" unicode="&#xd4;" horiz-adv-x="820" 
d="M42 305q0 106 52 198t145 150q93 57 203 57q148 0 243 -92t95 -233q0 -101 -51 -193q-50 -90 -145 -149q-93 -57 -207 -57q-146 0 -241 89q-94 90 -94 230zM119 311q0 -112 73 -182q74 -71 192 -71q133 0 226 98t93 223q0 114 -73 186q-73 73 -192 73q-133 0 -226 -100
t-93 -227zM411 769h-94l147 121h88l97 -121h-84l-59 81z" />
    <glyph glyph-name="Otilde" unicode="&#xd5;" horiz-adv-x="820" 
d="M42 305q0 106 52 198t145 150q93 57 203 57q148 0 243 -92t95 -233q0 -101 -51 -193q-50 -90 -145 -149q-93 -57 -207 -57q-146 0 -241 89q-94 90 -94 230zM119 311q0 -112 73 -182q74 -71 192 -71q133 0 226 98t93 223q0 114 -73 186q-73 73 -192 73q-133 0 -226 -100
t-93 -227zM385 758l-52 4q12 42 41 67t68 25q27 0 59 -20q32 -19 50 -19q33 0 50 41l52 -4q-29 -98 -111 -98q-29 0 -61 19q-34 20 -50 20q-32 0 -46 -35z" />
    <glyph glyph-name="Odieresis" unicode="&#xd6;" horiz-adv-x="820" 
d="M42 305q0 106 52 198t145 150q93 57 203 57q148 0 243 -92t95 -233q0 -101 -51 -193q-50 -90 -145 -149q-93 -57 -207 -57q-146 0 -241 89q-94 90 -94 230zM119 311q0 -112 73 -182q74 -71 192 -71q133 0 226 98t93 223q0 114 -73 186q-73 73 -192 73q-133 0 -226 -100
t-93 -227zM578 744q-20 0 -33 12.5t-13 31.5q0 22 16.5 39t38.5 17q21 0 34 -12.5t13 -32.5q0 -22 -16 -38.5t-40 -16.5zM371 744q-20 0 -33 12.5t-13 31.5q0 22 16.5 39t38.5 17q21 0 34 -12.5t13 -32.5q0 -22 -16 -38.5t-40 -16.5z" />
    <glyph glyph-name="multiply" unicode="&#xd7;" horiz-adv-x="384" 
d="M179 287l-130 -109l-41 54l129 108l-83 105l57 47l83 -105l128 108l43 -52l-130 -109l83 -105l-56 -47z" />
    <glyph glyph-name="Oslash" unicode="&#xd8;" horiz-adv-x="820" 
d="M91 -42l-48 42l82 86q-83 89 -83 219q0 106 52 198t145 150q93 57 203 57q123 0 213 -66l85 90l49 -43l-86 -91q77 -89 77 -215q0 -101 -51 -193q-50 -90 -145 -149q-93 -57 -207 -57q-118 0 -204 59zM178 143l424 446q-67 49 -164 49q-133 0 -226 -100t-93 -227
q0 -100 59 -168zM649 544l-422 -443q64 -43 157 -43q133 0 226 98t93 223q0 97 -54 165z" />
    <glyph glyph-name="Ugrave" unicode="&#xd9;" horiz-adv-x="696" 
d="M61 210q0 34 9 78l83 409h80l-91 -442q-3 -16 -3 -43q0 -70 42.5 -111t119.5 -41q80 0 133.5 48.5t73.5 142.5l91 446h79l-93 -461q-26 -122 -102.5 -185t-187.5 -63q-107 0 -171 61q-63 61 -63 161zM460 745h-59l-63 145h99z" />
    <glyph glyph-name="Uacute" unicode="&#xda;" horiz-adv-x="696" 
d="M61 210q0 34 9 78l83 409h80l-91 -442q-3 -16 -3 -43q0 -70 42.5 -111t119.5 -41q80 0 133.5 48.5t73.5 142.5l91 446h79l-93 -461q-26 -122 -102.5 -185t-187.5 -63q-107 0 -171 61q-63 61 -63 161zM436 745h-62l83 145h102z" />
    <glyph glyph-name="Ucircumflex" unicode="&#xdb;" horiz-adv-x="696" 
d="M61 210q0 34 9 78l83 409h80l-91 -442q-3 -16 -3 -43q0 -70 42.5 -111t119.5 -41q80 0 133.5 48.5t73.5 142.5l91 446h79l-93 -461q-26 -122 -102.5 -185t-187.5 -63q-107 0 -171 61q-63 61 -63 161zM351 769h-94l147 121h88l97 -121h-84l-59 81z" />
    <glyph glyph-name="Udieresis" unicode="&#xdc;" horiz-adv-x="696" 
d="M526 744q-20 0 -33 12.5t-13 31.5q0 22 16.5 39t38.5 17q21 0 34 -12.5t13 -32.5q0 -22 -16 -38.5t-40 -16.5zM320 744q-20 0 -33 12.5t-13 31.5q0 22 16.5 39t38.5 17q21 0 34 -12.5t13 -32.5q0 -22 -16 -38.5t-40 -16.5zM61 210q0 34 9 78l83 409h80l-91 -442
q-3 -16 -3 -43q0 -70 42.5 -111t119.5 -41q80 0 133.5 48.5t73.5 142.5l91 446h79l-93 -461q-26 -122 -102.5 -185t-187.5 -63q-107 0 -171 61q-63 61 -63 161z" />
    <glyph glyph-name="Yacute" unicode="&#xdd;" horiz-adv-x="612" 
d="M271 0h-79l57 282l-162 415h82l133 -339l261 339h92l-329 -426zM389 745h-62l83 145h102z" />
    <glyph glyph-name="Thorn" unicode="&#xde;" horiz-adv-x="490" 
d="M101 0h-80l142 697h80l-31 -149h36q90 0 147 -51q58 -49 58 -128q0 -89 -66 -156q-66 -68 -163 -68h-93zM198 475l-53 -257h79q62 0 106 45q44 47 44 103q0 48 -36.5 78.5t-95.5 30.5h-44z" />
    <glyph glyph-name="germandbls" unicode="&#xdf;" horiz-adv-x="550" 
d="M63 0h-78l110 540q34 172 186 172q70 0 116 -44q45 -44 45 -111q0 -40 -21 -76t-55 -55q62 -20 97.5 -69t35.5 -116q0 -101 -78 -179q-77 -77 -190 -77q-47 0 -77 5l15 76q23 -9 69 -9q75 0 128 53t53 122q0 64 -43.5 104.5t-112.5 40.5q-22 0 -31 -4l13 64
q50 9 83.5 41.5t33.5 71.5q0 40 -24 65t-63 25t-66 -27t-36 -73z" />
    <glyph glyph-name="agrave" unicode="&#xe0;" horiz-adv-x="645" 
d="M9 221q0 120 87 208q88 90 209 90q72 0 124.5 -27t72.5 -64l16 76h76l-82 -401q-3 -13 -3 -24q0 -29 31 -29q8 0 26 2l-12 -57q-11 -7 -37 -7q-30 0 -50 17q-26 23 -26 63v1q-27 -37 -78 -59t-112 -22q-107 0 -175 65q-67 66 -67 168zM85 225q0 -75 47 -122t125 -47
q92 0 157 65q66 65 66 174q0 69 -50.5 112t-131.5 43q-90 0 -151 -69q-62 -68 -62 -156zM366 552h-59l-63 145h99z" />
    <glyph glyph-name="aacute" unicode="&#xe1;" horiz-adv-x="645" 
d="M9 221q0 120 87 208q88 90 209 90q72 0 124.5 -27t72.5 -64l16 76h76l-82 -401q-3 -13 -3 -24q0 -29 31 -29q8 0 26 2l-12 -57q-11 -7 -37 -7q-30 0 -50 17q-26 23 -26 63v1q-27 -37 -78 -59t-112 -22q-107 0 -175 65q-67 66 -67 168zM85 225q0 -75 47 -122t125 -47
q92 0 157 65q66 65 66 174q0 69 -50.5 112t-131.5 43q-90 0 -151 -69q-62 -68 -62 -156zM352 552h-62l83 145h102z" />
    <glyph glyph-name="acircumflex" unicode="&#xe2;" horiz-adv-x="645" 
d="M268 576h-94l147 121h88l97 -121h-84l-59 81zM9 221q0 120 87 208q88 90 209 90q72 0 124.5 -27t72.5 -64l16 76h76l-82 -401q-3 -13 -3 -24q0 -29 31 -29q8 0 26 2l-12 -57q-11 -7 -37 -7q-30 0 -50 17q-26 23 -26 63v1q-27 -37 -78 -59t-112 -22q-107 0 -175 65
q-67 66 -67 168zM85 225q0 -75 47 -122t125 -47q92 0 157 65q66 65 66 174q0 69 -50.5 112t-131.5 43q-90 0 -151 -69q-62 -68 -62 -156z" />
    <glyph glyph-name="atilde" unicode="&#xe3;" horiz-adv-x="645" 
d="M9 221q0 120 87 208q88 90 209 90q72 0 124.5 -27t72.5 -64l16 76h76l-82 -401q-3 -13 -3 -24q0 -29 31 -29q8 0 26 2l-12 -57q-11 -7 -37 -7q-30 0 -50 17q-26 23 -26 63v1q-27 -37 -78 -59t-112 -22q-107 0 -175 65q-67 66 -67 168zM85 225q0 -75 47 -122t125 -47
q92 0 157 65q66 65 66 174q0 69 -50.5 112t-131.5 43q-90 0 -151 -69q-62 -68 -62 -156zM246 594l-52 4q12 42 41 67t68 25q27 0 59 -20q32 -19 50 -19q33 0 50 41l52 -4q-29 -98 -111 -98q-29 0 -61 19q-34 20 -50 20q-32 0 -46 -35z" />
    <glyph glyph-name="adieresis" unicode="&#xe4;" horiz-adv-x="645" 
d="M447 586q-20 0 -33 12.5t-13 31.5q0 22 16.5 39t38.5 17q21 0 34 -12.5t13 -32.5q0 -22 -16 -38.5t-40 -16.5zM241 586q-20 0 -33 12.5t-13 31.5q0 22 16.5 39t38.5 17q21 0 34 -12.5t13 -32.5q0 -22 -16 -38.5t-40 -16.5zM9 221q0 120 87 208q88 90 209 90
q72 0 124.5 -27t72.5 -64l16 76h76l-82 -401q-3 -13 -3 -24q0 -29 31 -29q8 0 26 2l-12 -57q-11 -7 -37 -7q-30 0 -50 17q-26 23 -26 63v1q-27 -37 -78 -59t-112 -22q-107 0 -175 65q-67 66 -67 168zM85 225q0 -75 47 -122t125 -47q92 0 157 65q66 65 66 174q0 69 -50.5 112
t-131.5 43q-90 0 -151 -69q-62 -68 -62 -156z" />
    <glyph glyph-name="aring" unicode="&#xe5;" horiz-adv-x="645" 
d="M9 221q0 120 87 208q88 90 209 90q72 0 124.5 -27t72.5 -64l16 76h76l-82 -401q-3 -13 -3 -24q0 -29 31 -29q8 0 26 2l-12 -57q-11 -7 -37 -7q-30 0 -50 17q-26 23 -26 63v1q-27 -37 -78 -59t-112 -22q-107 0 -175 65q-67 66 -67 168zM85 225q0 -75 47 -122t125 -47
q92 0 157 65q66 65 66 174q0 69 -50.5 112t-131.5 43q-90 0 -151 -69q-62 -68 -62 -156zM357 556q-40 0 -65 24t-25 62q0 42 32 76q31 33 76 33q40 0 65.5 -25t25.5 -63q0 -41 -32 -75q-32 -32 -77 -32zM362 607q21 0 36.5 15.5t15.5 36.5q0 18 -12 29.5t-31 11.5
q-21 0 -36.5 -15.5t-15.5 -36.5q0 -18 12 -29.5t31 -11.5z" />
    <glyph glyph-name="ae" unicode="&#xe6;" horiz-adv-x="1007" 
d="M9 221q0 120 87 208q88 90 209 90q72 0 124.5 -27t72.5 -64l16 76h76l-13 -60q68 71 174 71q101 0 157 -63q57 -63 57 -161q0 -30 -8 -57h-421q-2 -10 -2 -20q0 -77 43.5 -118.5t126.5 -41.5q89 0 147 58l47 -50q-83 -77 -197 -77q-70 0 -122 26.5t-76 69.5l-16 -81h-76
l15 74q-54 -86 -179 -86q-107 0 -175 65q-67 66 -67 168zM85 225q0 -75 47 -122t125 -47q88 0 153 65t65 174q0 69 -49 112t-128 43q-90 0 -151 -69q-62 -68 -62 -156zM554 299h340q1 3 1 10q0 59 -41 98q-40 39 -104 39q-65 0 -117 -40t-79 -107z" />
    <glyph glyph-name="ccedilla" unicode="&#xe7;" horiz-adv-x="517" 
d="M93 -173l26 37q33 -14 56 -14q20 0 34 12t14 27q0 33 -66 33h-1l42 69q-84 16 -138 79q-51 63 -51 151q0 118 87 208t207 90q129 0 206 -96l-52 -48q-53 75 -153 75q-90 0 -155 -69q-64 -68 -64 -156q0 -75 49 -124q50 -48 131 -48q86 0 144 61l45 -48q-82 -81 -197 -81
h-4l-20 -32q23 -4 38 -21t15 -41q0 -39 -31.5 -64t-77.5 -25q-59 0 -84 25z" />
    <glyph glyph-name="egrave" unicode="&#xe8;" horiz-adv-x="551" 
d="M3 206q0 124 84 216q85 93 209 93q98 0 154 -63q55 -62 55 -161q0 -30 -8 -57h-416q-2 -2 -2 -20q0 -79 43.5 -121.5t126.5 -42.5q85 0 142 62l47 -50q-81 -81 -192 -81q-113 0 -178 60.5t-65 164.5zM95 299h335q1 3 1 10q0 60 -39 98.5t-101 38.5q-65 0 -117 -40
t-79 -107zM358 552h-59l-63 145h99z" />
    <glyph glyph-name="eacute" unicode="&#xe9;" horiz-adv-x="551" 
d="M3 206q0 124 84 216q85 93 209 93q98 0 154 -63q55 -62 55 -161q0 -30 -8 -57h-416q-2 -2 -2 -20q0 -79 43.5 -121.5t126.5 -42.5q85 0 142 62l47 -50q-81 -81 -192 -81q-113 0 -178 60.5t-65 164.5zM95 299h335q1 3 1 10q0 60 -39 98.5t-101 38.5q-65 0 -117 -40
t-79 -107zM335 552h-62l83 145h102z" />
    <glyph glyph-name="ecircumflex" unicode="&#xea;" horiz-adv-x="551" 
d="M3 206q0 124 84 216q85 93 209 93q98 0 154 -63q55 -62 55 -161q0 -30 -8 -57h-416q-2 -2 -2 -20q0 -79 43.5 -121.5t126.5 -42.5q85 0 142 62l47 -50q-81 -81 -192 -81q-113 0 -178 60.5t-65 164.5zM95 299h335q1 3 1 10q0 60 -39 98.5t-101 38.5q-65 0 -117 -40
t-79 -107zM244 576h-94l147 121h88l97 -121h-84l-59 81z" />
    <glyph glyph-name="edieresis" unicode="&#xeb;" horiz-adv-x="551" 
d="M433 586q-20 0 -33 12.5t-13 31.5q0 22 16.5 39t38.5 17q21 0 34 -12.5t13 -32.5q0 -22 -16 -38.5t-40 -16.5zM227 586q-20 0 -33 12.5t-13 31.5q0 22 16.5 39t38.5 17q21 0 34 -12.5t13 -32.5q0 -22 -16 -38.5t-40 -16.5zM3 206q0 124 84 216q85 93 209 93q98 0 154 -63
q55 -62 55 -161q0 -30 -8 -57h-416q-2 -2 -2 -20q0 -79 43.5 -121.5t126.5 -42.5q85 0 142 62l47 -50q-81 -81 -192 -81q-113 0 -178 60.5t-65 164.5zM95 299h335q1 3 1 10q0 60 -39 98.5t-101 38.5q-65 0 -117 -40t-79 -107z" />
    <glyph glyph-name="igrave" unicode="&#xec;" horiz-adv-x="214" 
d="M2 64q0 14 4 31l84 409h76l-82 -401q-3 -13 -3 -24q0 -29 31 -29q8 0 26 2l-12 -57q-13 -7 -39 -7q-38 0 -61.5 21t-23.5 55zM172 552h-59l-63 145h99z" />
    <glyph glyph-name="iacute" unicode="&#xed;" horiz-adv-x="214" 
d="M2 64q0 14 4 31l84 409h76l-82 -401q-3 -13 -3 -24q0 -29 31 -29q8 0 26 2l-12 -57q-13 -7 -39 -7q-38 0 -61.5 21t-23.5 55zM161 552h-62l83 145h102z" />
    <glyph glyph-name="icircumflex" unicode="&#xee;" horiz-adv-x="214" 
d="M2 64q0 14 4 31l84 409h76l-82 -401q-3 -13 -3 -24q0 -29 31 -29q8 0 26 2l-12 -57q-13 -7 -39 -7q-38 0 -61.5 21t-23.5 55zM90 576h-86l132 121h59l83 -121h-80l-38 71z" />
    <glyph glyph-name="idieresis" unicode="&#xef;" horiz-adv-x="214" 
d="M2 64q0 14 4 31l84 409h76l-82 -401q-3 -13 -3 -24q0 -29 31 -29q8 0 26 2l-12 -57q-13 -7 -39 -7q-38 0 -61.5 21t-23.5 55zM217 586q-20 0 -33 12.5t-13 31.5q0 22 16.5 39t38.5 17q21 0 34 -12.5t13 -32.5q0 -22 -16 -38.5t-40 -16.5zM73 586q-20 0 -33 12.5t-13 31.5
q0 22 16.5 39t38.5 17q21 0 34 -12.5t13 -32.5q0 -22 -16 -38.5t-40 -16.5z" />
    <glyph glyph-name="eth" unicode="&#xf0;" horiz-adv-x="536" 
d="M3 193q0 103 73 179q74 77 175 77q116 0 166 -71v1q-3 49 -28 98.5t-59 83.5l-98 -79l-38 51l85 68q-45 30 -112 43l21 69q84 -17 152 -64l101 80l38 -51l-90 -71q47 -45 74.5 -120t27.5 -158v-1q0 -156 -73 -250q-74 -93 -196 -93q-97 0 -158 58t-61 150zM82 198
q0 -63 40 -102t106 -39q72 0 122 54q50 56 50 125q0 63 -40 102t-105 39q-72 0 -123 -55q-50 -55 -50 -124z" />
    <glyph glyph-name="ntilde" unicode="&#xf1;" horiz-adv-x="548" 
d="M60 0h-74l102 504h74l-16 -78q24 40 65 63t89 23q79 0 123.5 -47t44.5 -129q0 -26 -5 -54l-35 -170q-3 -15 -3 -23q0 -30 26 -30q5 0 21 2l-12 -57q-11 -7 -32 -7q-35 0 -56.5 21t-21.5 55q4 7 4 33l35 174q4 13 4 44q0 56 -30 87.5t-85 31.5q-59 0 -103 -43.5
t-58 -113.5zM220 594l-52 4q12 42 41 67t68 25q27 0 59 -20q32 -19 50 -19q33 0 50 41l52 -4q-29 -98 -111 -98q-29 0 -61 19q-34 20 -50 20q-32 0 -46 -35z" />
    <glyph glyph-name="ograve" unicode="&#xf2;" 
d="M9 221q0 119 88 208q89 90 211 90q108 0 179 -68q70 -67 70 -173q0 -116 -87 -204q-86 -89 -211 -89q-109 0 -180 66q-70 66 -70 170zM85 225q0 -76 49.5 -124t130.5 -48q90 0 153 67q64 67 64 154q0 76 -50 126t-131 50q-90 0 -153 -69q-63 -67 -63 -156zM372 552h-59
l-63 145h99z" />
    <glyph glyph-name="oacute" unicode="&#xf3;" 
d="M9 221q0 119 88 208q89 90 211 90q108 0 179 -68q70 -67 70 -173q0 -116 -87 -204q-86 -89 -211 -89q-109 0 -180 66q-70 66 -70 170zM85 225q0 -76 49.5 -124t130.5 -48q90 0 153 67q64 67 64 154q0 76 -50 126t-131 50q-90 0 -153 -69q-63 -67 -63 -156zM361 552h-62
l83 145h102z" />
    <glyph glyph-name="ocircumflex" unicode="&#xf4;" 
d="M9 221q0 119 88 208q89 90 211 90q108 0 179 -68q70 -67 70 -173q0 -116 -87 -204q-86 -89 -211 -89q-109 0 -180 66q-70 66 -70 170zM85 225q0 -76 49.5 -124t130.5 -48q90 0 153 67q64 67 64 154q0 76 -50 126t-131 50q-90 0 -153 -69q-63 -67 -63 -156zM262 576h-94
l147 121h88l97 -121h-84l-59 81z" />
    <glyph glyph-name="otilde" unicode="&#xf5;" 
d="M9 221q0 119 88 208q89 90 211 90q108 0 179 -68q70 -67 70 -173q0 -116 -87 -204q-86 -89 -211 -89q-109 0 -180 66q-70 66 -70 170zM85 225q0 -76 49.5 -124t130.5 -48q90 0 153 67q64 67 64 154q0 76 -50 126t-131 50q-90 0 -153 -69q-63 -67 -63 -156zM239 594l-52 4
q12 42 41 67t68 25q27 0 59 -20q32 -19 50 -19q33 0 50 41l52 -4q-29 -98 -111 -98q-29 0 -61 19q-34 20 -50 20q-32 0 -46 -35z" />
    <glyph glyph-name="odieresis" unicode="&#xf6;" 
d="M450 586q-20 0 -33 12.5t-13 31.5q0 22 16.5 39t38.5 17q21 0 34 -12.5t13 -32.5q0 -22 -16 -38.5t-40 -16.5zM244 586q-20 0 -33 12.5t-13 31.5q0 22 16.5 39t38.5 17q21 0 34 -12.5t13 -32.5q0 -22 -16 -38.5t-40 -16.5zM9 221q0 119 88 208q89 90 211 90
q108 0 179 -68q70 -67 70 -173q0 -116 -87 -204q-86 -89 -211 -89q-109 0 -180 66q-70 66 -70 170zM85 225q0 -76 49.5 -124t130.5 -48q90 0 153 67q64 67 64 154q0 76 -50 126t-131 50q-90 0 -153 -69q-63 -67 -63 -156z" />
    <glyph glyph-name="divide" unicode="&#xf7;" horiz-adv-x="426" 
d="M236 436q-20 0 -33 12.5t-13 31.5q0 22 16.5 39t38.5 17q21 0 34 -12.5t13 -32.5q0 -22 -16 -38.5t-40 -16.5zM377 313h-342l14 69h342zM179 159q-20 0 -33 12.5t-13 31.5q0 22 16.5 39t38.5 17q21 0 34 -12.5t13 -32.5q0 -22 -16 -38.5t-40 -16.5z" />
    <glyph glyph-name="oslash" unicode="&#xf8;" 
d="M56 -41l-50 44l59 63q-56 62 -56 155q0 119 88 208q89 90 211 90q82 0 143 -40l57 60l50 -43l-57 -61q56 -67 56 -157q0 -116 -87 -204q-86 -89 -211 -89q-81 0 -143 38zM116 121l285 304q-43 25 -100 25q-90 0 -153 -69q-63 -67 -63 -156q0 -61 31 -104zM450 380
l-284 -303q40 -24 99 -24q90 0 153 67q64 67 64 154q0 59 -32 106z" />
    <glyph glyph-name="ugrave" unicode="&#xf9;" horiz-adv-x="544" 
d="M11 160q0 18 8 63l61 281h77l-64 -298q-5 -27 -5 -47q0 -45 29 -73.5t81 -28.5q63 0 109.5 43.5t63.5 128.5l56 275h76l-80 -392q-3 -15 -3 -23q0 -30 26 -30q5 0 21 2l-12 -57q-11 -7 -32 -7q-31 0 -52 21q-19 21 -21 51v1q-18 -36 -62.5 -59t-100.5 -23q-80 0 -128 49
t-48 123zM337 552h-59l-63 145h99z" />
    <glyph glyph-name="uacute" unicode="&#xfa;" horiz-adv-x="544" 
d="M11 160q0 18 8 63l61 281h77l-64 -298q-5 -27 -5 -47q0 -45 29 -73.5t81 -28.5q63 0 109.5 43.5t63.5 128.5l56 275h76l-80 -392q-3 -15 -3 -23q0 -30 26 -30q5 0 21 2l-12 -57q-11 -7 -32 -7q-31 0 -52 21q-19 21 -21 51v1q-18 -36 -62.5 -59t-100.5 -23q-80 0 -128 49
t-48 123zM315 552h-62l83 145h102z" />
    <glyph glyph-name="ucircumflex" unicode="&#xfb;" horiz-adv-x="544" 
d="M227 576h-94l147 121h88l97 -121h-84l-59 81zM11 160q0 18 8 63l61 281h77l-64 -298q-5 -27 -5 -47q0 -45 29 -73.5t81 -28.5q63 0 109.5 43.5t63.5 128.5l56 275h76l-80 -392q-3 -15 -3 -23q0 -30 26 -30q5 0 21 2l-12 -57q-11 -7 -32 -7q-31 0 -52 21q-19 21 -21 51v1
q-18 -36 -62.5 -59t-100.5 -23q-80 0 -128 49t-48 123z" />
    <glyph glyph-name="udieresis" unicode="&#xfc;" horiz-adv-x="544" 
d="M11 160q0 18 8 63l61 281h77l-64 -298q-5 -27 -5 -47q0 -45 29 -73.5t81 -28.5q63 0 109.5 43.5t63.5 128.5l56 275h76l-80 -392q-3 -15 -3 -23q0 -30 26 -30q5 0 21 2l-12 -57q-11 -7 -32 -7q-31 0 -52 21q-19 21 -21 51v1q-18 -36 -62.5 -59t-100.5 -23q-80 0 -128 49
t-48 123zM213 586q-20 0 -33 12.5t-13 31.5q0 22 16.5 39t38.5 17q21 0 34 -12.5t13 -32.5q0 -22 -16 -38.5t-40 -16.5zM419 586q-20 0 -33 12.5t-13 31.5q0 22 16.5 39t38.5 17q21 0 34 -12.5t13 -32.5q0 -22 -16 -38.5t-40 -16.5z" />
    <glyph glyph-name="yacute" unicode="&#xfd;" horiz-adv-x="504" 
d="M94 -83l49 86l-96 501h74l78 -411l240 411h82l-348 -590q-39 -67 -73 -95t-86 -28q-38 0 -62 11l14 66q21 -8 49 -8q27 0 44 13t35 44zM304 552h-62l83 145h102z" />
    <glyph glyph-name="thorn" unicode="&#xfe;" horiz-adv-x="600" 
d="M76 81l-55 -274h-74l181 890h74l-48 -236q54 58 151 58q107 0 177 -68q69 -68 69 -173q0 -68 -33 -133q-32 -65 -99 -111t-153 -46q-67 0 -117.5 26t-72.5 67zM98 225q0 -75 45.5 -122t120.5 -47q89 0 150 67q62 68 62 151q0 76 -50 126t-131 50t-140 -69
q-57 -67 -57 -156z" />
    <glyph glyph-name="ydieresis" unicode="&#xff;" horiz-adv-x="504" 
d="M404 586q-20 0 -33 12.5t-13 31.5q0 22 16.5 39t38.5 17q21 0 34 -12.5t13 -32.5q0 -22 -16 -38.5t-40 -16.5zM198 586q-20 0 -33 12.5t-13 31.5q0 22 16.5 39t38.5 17q21 0 34 -12.5t13 -32.5q0 -22 -16 -38.5t-40 -16.5zM94 -83l49 86l-96 501h74l78 -411l240 411h82
l-348 -590q-39 -67 -73 -95t-86 -28q-38 0 -62 11l14 66q21 -8 49 -8q27 0 44 13t35 44z" />
    <glyph glyph-name="Amacron" unicode="&#x100;" horiz-adv-x="700" 
d="M39 0h-85l437 697h59l154 -697h-78l-38 172h-341zM400 578l-207 -334h279zM577 769h-294l14 69h294z" />
    <glyph glyph-name="amacron" unicode="&#x101;" horiz-adv-x="645" 
d="M9 221q0 120 87 208q88 90 209 90q72 0 124.5 -27t72.5 -64l16 76h76l-82 -401q-3 -13 -3 -24q0 -29 31 -29q8 0 26 2l-12 -57q-11 -7 -37 -7q-30 0 -50 17q-26 23 -26 63v1q-27 -37 -78 -59t-112 -22q-107 0 -175 65q-67 66 -67 168zM85 225q0 -75 47 -122t125 -47
q92 0 157 65q66 65 66 174q0 69 -50.5 112t-131.5 43q-90 0 -151 -69q-62 -68 -62 -156zM494 601h-294l14 69h294z" />
    <glyph glyph-name="Abreve" unicode="&#x102;" horiz-adv-x="700" 
d="M39 0h-85l437 697h59l154 -697h-78l-38 172h-341zM400 578l-207 -334h279zM434 751q-61 0 -97.5 37.5t-36.5 101.5h69q4 -38 21 -55.5t54 -17.5q35 0 61 20.5t38 52.5h69q-17 -66 -64 -102.5t-114 -36.5z" />
    <glyph glyph-name="abreve" unicode="&#x103;" horiz-adv-x="645" 
d="M9 221q0 120 87 208q88 90 209 90q72 0 124.5 -27t72.5 -64l16 76h76l-82 -401q-3 -13 -3 -24q0 -29 31 -29q8 0 26 2l-12 -57q-11 -7 -37 -7q-30 0 -50 17q-26 23 -26 63v1q-27 -37 -78 -59t-112 -22q-107 0 -175 65q-67 66 -67 168zM85 225q0 -75 47 -122t125 -47
q92 0 157 65q66 65 66 174q0 69 -50.5 112t-131.5 43q-90 0 -151 -69q-62 -68 -62 -156zM348 558q-61 0 -97.5 37.5t-36.5 101.5h69q4 -38 21 -55.5t54 -17.5q35 0 61 20.5t38 52.5h69q-17 -66 -64 -102.5t-114 -36.5z" />
    <glyph glyph-name="Aogonek" unicode="&#x104;" horiz-adv-x="700" 
d="M39 0h-85l437 697h59l154 -697q-94 -55 -94 -100q0 -17 12.5 -28.5t33.5 -11.5q30 0 53 10l-25 -58q-17 -10 -46 -10q-43 0 -70 23t-27 59q0 64 85 113v1l-38 174h-341zM400 578l-207 -334h279z" />
    <glyph glyph-name="aogonek" unicode="&#x105;" horiz-adv-x="645" 
d="M9 221q0 120 87 208q88 90 209 90q72 0 124.5 -27t72.5 -64l16 76h76l-82 -401q-3 -13 -3 -24q0 -29 31 -29q8 0 26 2l-12 -57q-86 -50 -86 -95q0 -17 12.5 -28.5t33.5 -11.5q30 0 53 10l-25 -58q-17 -10 -46 -10q-43 0 -70 23t-27 59q0 66 84 111q-10 4 -16 10
q-12 11 -19 26q-7 14 -7 37v1q-27 -37 -78 -59t-112 -22q-107 0 -175 65q-67 66 -67 168zM85 225q0 -75 47 -122t125 -47q92 0 157 65q66 65 66 174q0 69 -50.5 112t-131.5 43q-90 0 -151 -69q-62 -68 -62 -156z" />
    <glyph glyph-name="Cacute" unicode="&#x106;" horiz-adv-x="711" 
d="M39 305q0 106 52 198t145 150q93 57 203 57q89 0 161 -37.5t117 -104.5l-61 -48q-73 118 -221 118q-133 0 -226 -100t-93 -227q0 -112 73 -182q74 -71 192 -71q122 0 212 90l48 -53q-112 -109 -267 -109q-146 0 -241 89q-94 90 -94 230zM491 745h-62l83 145h102z" />
    <glyph glyph-name="cacute" unicode="&#x107;" horiz-adv-x="517" 
d="M9 221q0 118 87 208t207 90q129 0 206 -96l-52 -48q-53 75 -153 75q-90 0 -155 -69q-64 -68 -64 -156q0 -75 49 -124q50 -48 131 -48q86 0 144 61l45 -48q-82 -81 -197 -81q-109 0 -179 66q-69 67 -69 170zM357 552h-62l83 145h102z" />
    <glyph glyph-name="Ccircumflex" unicode="&#x108;" horiz-adv-x="711" 
d="M39 305q0 106 52 198t145 150q93 57 203 57q89 0 161 -37.5t117 -104.5l-61 -48q-73 118 -221 118q-133 0 -226 -100t-93 -227q0 -112 73 -182q74 -71 192 -71q122 0 212 90l48 -53q-112 -109 -267 -109q-146 0 -241 89q-94 90 -94 230zM395 769h-94l147 121h88l97 -121
h-84l-59 81z" />
    <glyph glyph-name="ccircumflex" unicode="&#x109;" horiz-adv-x="517" 
d="M9 221q0 118 87 208t207 90q129 0 206 -96l-52 -48q-53 75 -153 75q-90 0 -155 -69q-64 -68 -64 -156q0 -75 49 -124q50 -48 131 -48q86 0 144 61l45 -48q-82 -81 -197 -81q-109 0 -179 66q-69 67 -69 170zM258 576h-94l147 121h88l97 -121h-84l-59 81z" />
    <glyph glyph-name="Cdotaccent" unicode="&#x10a;" horiz-adv-x="711" 
d="M39 305q0 106 52 198t145 150q93 57 203 57q89 0 161 -37.5t117 -104.5l-61 -48q-73 118 -221 118q-133 0 -226 -100t-93 -227q0 -112 73 -182q74 -71 192 -71q122 0 212 90l48 -53q-112 -109 -267 -109q-146 0 -241 89q-94 90 -94 230zM489 763q-20 0 -33 12.5t-13 31.5
q0 22 16.5 39t38.5 17q21 0 34 -12.5t13 -32.5q0 -22 -16 -38.5t-40 -16.5z" />
    <glyph glyph-name="cdotaccent" unicode="&#x10b;" horiz-adv-x="517" 
d="M9 221q0 118 87 208t207 90q129 0 206 -96l-52 -48q-53 75 -153 75q-90 0 -155 -69q-64 -68 -64 -156q0 -75 49 -124q50 -48 131 -48q86 0 144 61l45 -48q-82 -81 -197 -81q-109 0 -179 66q-69 67 -69 170zM340 586q-20 0 -33 12.5t-13 31.5q0 22 16.5 39t38.5 17
q21 0 34 -12.5t13 -32.5q0 -22 -16 -38.5t-40 -16.5z" />
    <glyph glyph-name="Ccaron" unicode="&#x10c;" horiz-adv-x="711" 
d="M39 305q0 106 52 198t145 150q93 57 203 57q89 0 161 -37.5t117 -104.5l-61 -48q-73 118 -221 118q-133 0 -226 -100t-93 -227q0 -112 73 -182q74 -71 192 -71q122 0 212 90l48 -53q-112 -109 -267 -109q-146 0 -241 89q-94 90 -94 230zM524 769h-88l-97 121h84l59 -81
l95 81h94z" />
    <glyph glyph-name="ccaron" unicode="&#x10d;" horiz-adv-x="517" 
d="M9 221q0 118 87 208t207 90q129 0 206 -96l-52 -48q-53 75 -153 75q-90 0 -155 -69q-64 -68 -64 -156q0 -75 49 -124q50 -48 131 -48q86 0 144 61l45 -48q-82 -81 -197 -81q-109 0 -179 66q-69 67 -69 170zM369 576h-88l-97 121h84l59 -81l95 81h94z" />
    <glyph glyph-name="Dcaron" unicode="&#x10e;" horiz-adv-x="726" 
d="M300 0h-279l142 697h196q144 0 235 -88t91 -225q0 -150 -111 -267t-274 -117zM229 625l-113 -553h189q127 0 215 93q88 94 88 213q0 108 -69 177q-67 70 -180 70h-130zM456 769h-88l-97 121h84l59 -81l95 81h94z" />
    <glyph glyph-name="dcaron" unicode="&#x10f;" horiz-adv-x="788" 
d="M9 221q0 120 87 208q88 90 209 90q72 0 124.5 -27t72.5 -64l56 269h76l-122 -594q-3 -13 -3 -24q0 -29 31 -29q8 0 26 2l-12 -57q-11 -7 -37 -7q-30 0 -50 17q-26 23 -26 63v1q-27 -37 -78 -59t-112 -22q-107 0 -175 65q-67 66 -67 168zM85 225q0 -75 47 -122t125 -47
q92 0 157 65q66 65 66 174q0 69 -50.5 112t-131.5 43q-90 0 -151 -69q-62 -68 -62 -156zM691 552h-62l83 145h102z" />
    <glyph glyph-name="Dcroat" unicode="&#x110;" horiz-adv-x="726" 
d="M300 0h-279l65 322h-64l14 72h65l62 303h196q144 0 235 -88t91 -225q0 -150 -111 -267t-274 -117zM167 322l-51 -250h189q127 0 215 93q88 94 88 213q0 108 -69 177q-67 70 -180 70h-130l-48 -231h143l-14 -72h-143z" />
    <glyph glyph-name="dslash" unicode="&#x111;" horiz-adv-x="649" 
d="M9 221q0 120 87 208q88 90 209 90q72 0 124.5 -27t72.5 -64l30 147h-195l12 60h196l13 62h76l-13 -62h57l-12 -60h-57l-97 -472q-3 -13 -3 -24q0 -29 31 -29q8 0 26 2l-12 -57q-11 -7 -37 -7q-30 0 -50 17q-26 23 -26 63v1q-27 -37 -78 -59t-112 -22q-107 0 -175 65
q-67 66 -67 168zM85 225q0 -75 47 -122t125 -47q92 0 157 65q66 65 66 174q0 69 -50.5 112t-131.5 43q-90 0 -151 -69q-62 -68 -62 -156z" />
    <glyph glyph-name="Emacron" unicode="&#x112;" horiz-adv-x="549" 
d="M422 0h-401l142 697h394l-15 -72h-314l-45 -221h295l-14 -72h-295l-53 -260h321zM519 769h-294l14 69h294z" />
    <glyph glyph-name="emacron" unicode="&#x113;" horiz-adv-x="551" 
d="M3 206q0 124 84 216q85 93 209 93q98 0 154 -63q55 -62 55 -161q0 -30 -8 -57h-416q-2 -2 -2 -20q0 -79 43.5 -121.5t126.5 -42.5q85 0 142 62l47 -50q-81 -81 -192 -81q-113 0 -178 60.5t-65 164.5zM95 299h335q1 3 1 10q0 60 -39 98.5t-101 38.5q-65 0 -117 -40
t-79 -107zM472 601h-294l14 69h294z" />
    <glyph glyph-name="Ebreve" unicode="&#x114;" horiz-adv-x="549" 
d="M422 0h-401l142 697h394l-15 -72h-314l-45 -221h295l-14 -72h-295l-53 -260h321zM370 751q-61 0 -97.5 37.5t-36.5 101.5h69q4 -38 21 -55.5t54 -17.5q35 0 61 20.5t38 52.5h69q-17 -66 -64 -102.5t-114 -36.5z" />
    <glyph glyph-name="ebreve" unicode="&#x115;" horiz-adv-x="551" 
d="M3 206q0 124 84 216q85 93 209 93q98 0 154 -63q55 -62 55 -161q0 -30 -8 -57h-416q-2 -2 -2 -20q0 -79 43.5 -121.5t126.5 -42.5q85 0 142 62l47 -50q-81 -81 -192 -81q-113 0 -178 60.5t-65 164.5zM95 299h335q1 3 1 10q0 60 -39 98.5t-101 38.5q-65 0 -117 -40
t-79 -107zM321 558q-61 0 -97.5 37.5t-36.5 101.5h69q4 -38 21 -55.5t54 -17.5q35 0 61 20.5t38 52.5h69q-17 -66 -64 -102.5t-114 -36.5z" />
    <glyph glyph-name="Edotaccent" unicode="&#x116;" horiz-adv-x="549" 
d="M422 0h-401l142 697h394l-15 -72h-314l-45 -221h295l-14 -72h-295l-53 -260h321zM367 763q-20 0 -33 12.5t-13 31.5q0 22 16.5 39t38.5 17q21 0 34 -12.5t13 -32.5q0 -22 -16 -38.5t-40 -16.5z" />
    <glyph glyph-name="edotaccent" unicode="&#x117;" horiz-adv-x="551" 
d="M3 206q0 124 84 216q85 93 209 93q98 0 154 -63q55 -62 55 -161q0 -30 -8 -57h-416q-2 -2 -2 -20q0 -79 43.5 -121.5t126.5 -42.5q85 0 142 62l47 -50q-81 -81 -192 -81q-113 0 -178 60.5t-65 164.5zM95 299h335q1 3 1 10q0 60 -39 98.5t-101 38.5q-65 0 -117 -40
t-79 -107zM330 586q-20 0 -33 12.5t-13 31.5q0 22 16.5 39t38.5 17q21 0 34 -12.5t13 -32.5q0 -22 -16 -38.5t-40 -16.5z" />
    <glyph glyph-name="Eogonek" unicode="&#x118;" horiz-adv-x="549" 
d="M353 0h-332l142 697h394l-15 -72h-314l-45 -221h295l-14 -72h-295l-53 -260h321l-15 -72q-94 -55 -94 -100q0 -17 12.5 -28.5t33.5 -11.5q30 0 53 10l-25 -58q-17 -10 -46 -10q-43 0 -70 23t-27 59q0 70 94 116z" />
    <glyph glyph-name="eogonek" unicode="&#x119;" horiz-adv-x="551" 
d="M164 -116q0 54 62 98h-1q-104 5 -163 64.5t-59 159.5q0 124 84 216q85 93 209 93q98 0 154 -63q55 -62 55 -161q0 -30 -8 -57h-416q-2 -2 -2 -20q0 -79 43.5 -121.5t126.5 -42.5q87 0 145 60l44 -48q-25 -29 -84 -58l-23 -10l-23 -11.5t-24 -11.5q-51 -31 -51 -71
q0 -17 12.5 -28.5t33.5 -11.5q30 0 53 10l-25 -58q-17 -10 -46 -10q-43 0 -70 23t-27 59zM95 299h335q1 3 1 10q0 60 -39 98.5t-101 38.5q-65 0 -117 -40t-79 -107z" />
    <glyph glyph-name="Ecaron" unicode="&#x11a;" horiz-adv-x="549" 
d="M422 0h-401l142 697h394l-15 -72h-314l-45 -221h295l-14 -72h-295l-53 -260h321zM420 769h-88l-97 121h84l59 -81l95 81h94z" />
    <glyph glyph-name="ecaron" unicode="&#x11b;" horiz-adv-x="551" 
d="M3 206q0 124 84 216q85 93 209 93q98 0 154 -63q55 -62 55 -161q0 -30 -8 -57h-416q-2 -2 -2 -20q0 -79 43.5 -121.5t126.5 -42.5q85 0 142 62l47 -50q-81 -81 -192 -81q-113 0 -178 60.5t-65 164.5zM95 299h335q1 3 1 10q0 60 -39 98.5t-101 38.5q-65 0 -117 -40
t-79 -107zM369 576h-88l-97 121h84l59 -81l95 81h94z" />
    <glyph glyph-name="Gcircumflex" unicode="&#x11c;" horiz-adv-x="740" 
d="M39 295q0 108 49 202q50 95 142 153q93 60 209 60q154 0 253 -115l-58 -51q-75 94 -202 94q-126 0 -221 -98q-93 -98 -93 -226q0 -116 72 -187q72 -69 191 -69q96 0 172 53l40 197h-213l14 72h291l-61 -306q-49 -42 -116 -65t-134 -23q-150 0 -243 90q-92 92 -92 219z
M393 769h-94l147 121h88l97 -121h-84l-59 81z" />
    <glyph glyph-name="gcircumflex" unicode="&#x11d;" horiz-adv-x="621" 
d="M-18 -130l47 56q80 -77 186 -77q161 0 207 184l10 41q-54 -86 -179 -86q-107 0 -175 65q-67 66 -67 168q0 120 87 208q89 90 209 90q72 0 124.5 -27t72.5 -64l16 76h76l-88 -427q-16 -74 -35.5 -123t-52.5 -90q-68 -84 -214 -84q-132 0 -224 90zM87 225q0 -75 47 -122
t125 -47q92 0 157 65q66 65 66 174q0 69 -50.5 112t-131.5 43q-90 0 -151 -69q-62 -68 -62 -156zM265 576h-94l147 121h88l97 -121h-84l-59 81z" />
    <glyph glyph-name="Gbreve" unicode="&#x11e;" horiz-adv-x="740" 
d="M39 295q0 108 49 202q50 95 142 153q93 60 209 60q154 0 253 -115l-58 -51q-75 94 -202 94q-126 0 -221 -98q-93 -98 -93 -226q0 -116 72 -187q72 -69 191 -69q96 0 172 53l40 197h-213l14 72h291l-61 -306q-49 -42 -116 -65t-134 -23q-150 0 -243 90q-92 92 -92 219z
M467 751q-61 0 -97.5 37.5t-36.5 101.5h69q4 -38 21 -55.5t54 -17.5q35 0 61 20.5t38 52.5h69q-17 -66 -64 -102.5t-114 -36.5z" />
    <glyph glyph-name="gbreve" unicode="&#x11f;" horiz-adv-x="621" 
d="M-18 -130l47 56q80 -77 186 -77q161 0 207 184l10 41q-54 -86 -179 -86q-107 0 -175 65q-67 66 -67 168q0 120 87 208q89 90 209 90q72 0 124.5 -27t72.5 -64l16 76h76l-88 -427q-16 -74 -35.5 -123t-52.5 -90q-68 -84 -214 -84q-132 0 -224 90zM87 225q0 -75 47 -122
t125 -47q92 0 157 65q66 65 66 174q0 69 -50.5 112t-131.5 43q-90 0 -151 -69q-62 -68 -62 -156zM348 558q-61 0 -97.5 37.5t-36.5 101.5h69q4 -38 21 -55.5t54 -17.5q35 0 61 20.5t38 52.5h69q-17 -66 -64 -102.5t-114 -36.5z" />
    <glyph glyph-name="Gdotaccent" unicode="&#x120;" horiz-adv-x="740" 
d="M39 295q0 108 49 202q50 95 142 153q93 60 209 60q154 0 253 -115l-58 -51q-75 94 -202 94q-126 0 -221 -98q-93 -98 -93 -226q0 -116 72 -187q72 -69 191 -69q96 0 172 53l40 197h-213l14 72h291l-61 -306q-49 -42 -116 -65t-134 -23q-150 0 -243 90q-92 92 -92 219z
M476 763q-20 0 -33 12.5t-13 31.5q0 22 16.5 39t38.5 17q21 0 34 -12.5t13 -32.5q0 -22 -16 -38.5t-40 -16.5z" />
    <glyph glyph-name="gdotaccent" unicode="&#x121;" horiz-adv-x="621" 
d="M-18 -130l47 56q80 -77 186 -77q161 0 207 184l10 41q-54 -86 -179 -86q-107 0 -175 65q-67 66 -67 168q0 120 87 208q89 90 209 90q72 0 124.5 -27t72.5 -64l16 76h76l-88 -427q-16 -74 -35.5 -123t-52.5 -90q-68 -84 -214 -84q-132 0 -224 90zM87 225q0 -75 47 -122
t125 -47q92 0 157 65q66 65 66 174q0 69 -50.5 112t-131.5 43q-90 0 -151 -69q-62 -68 -62 -156zM353 586q-20 0 -33 12.5t-13 31.5q0 22 16.5 39t38.5 17q21 0 34 -12.5t13 -32.5q0 -22 -16 -38.5t-40 -16.5z" />
    <glyph glyph-name="Gcommaaccent" unicode="&#x122;" horiz-adv-x="740" 
d="M39 295q0 108 49 202q50 95 142 153q93 60 209 60q154 0 253 -115l-58 -51q-75 94 -202 94q-126 0 -221 -98q-93 -98 -93 -226q0 -116 72 -187q72 -69 191 -69q96 0 172 53l40 197h-213l14 72h291l-61 -306q-49 -42 -116 -65t-134 -23q-150 0 -243 90q-92 92 -92 219z
M268 -193h-62l83 145h102z" />
    <glyph glyph-name="gcommaaccent" unicode="&#x123;" horiz-adv-x="621" 
d="M-18 -130l47 56q80 -77 186 -77q161 0 207 184l10 41q-54 -86 -179 -86q-107 0 -175 65q-67 66 -67 168q0 120 87 208q89 90 209 90q72 0 124.5 -27t72.5 -64l16 76h76l-88 -427q-16 -74 -35.5 -123t-52.5 -90q-68 -84 -214 -84q-132 0 -224 90zM87 225q0 -75 47 -122
t125 -47q92 0 157 65q66 65 66 174q0 69 -50.5 112t-131.5 43q-90 0 -151 -69q-62 -68 -62 -156zM357 552h-62l83 145h102z" />
    <glyph glyph-name="Hcircumflex" unicode="&#x124;" horiz-adv-x="727" 
d="M101 0h-80l142 697h80l-59 -291h383l59 291h80l-142 -697h-80l68 334h-383zM370 769h-94l147 121h88l97 -121h-84l-59 81z" />
    <glyph glyph-name="hcircumflex" unicode="&#x125;" horiz-adv-x="545" 
d="M97 721h-94l147 121h88l97 -121h-84l-59 81zM62 0h-76l142 697h76l-56 -271q52 86 155 86q76 0 118.5 -44t42.5 -121q0 -22 -5 -50l-38 -185q-3 -15 -3 -23q0 -30 26 -30q5 0 21 2l-12 -57q-11 -7 -32 -7q-35 0 -57.5 21t-22.5 55q0 19 4 31l38 189q4 25 4 40
q0 52 -28 81t-80 29q-58 0 -103 -45q-43 -43 -57 -112z" />
    <glyph glyph-name="Hbar" unicode="&#x126;" horiz-adv-x="727" 
d="M101 0h-80l102 504h-58l14 69h58l26 124h80l-25 -124h383l25 124h80l-26 -124h60l-14 -69h-60l-102 -504h-80l68 334h-383zM204 504l-20 -98h383l20 98h-383z" />
    <glyph glyph-name="hbar" unicode="&#x127;" horiz-adv-x="545" 
d="M62 0h-76l116 573h-56l12 60h57l13 64h76l-13 -64h196l-12 -60h-197l-30 -147q52 86 155 86q76 0 118.5 -44t42.5 -121q0 -22 -5 -50l-38 -185q-3 -15 -3 -23q0 -30 26 -30q5 0 21 2l-12 -57q-11 -7 -32 -7q-35 0 -57.5 21t-22.5 55q0 19 4 31l38 189q4 25 4 40
q0 52 -28 81t-80 29q-58 0 -103 -45q-43 -43 -57 -112z" />
    <glyph glyph-name="Itilde" unicode="&#x128;" horiz-adv-x="272" 
d="M118 758l-52 4q12 42 41 67t68 25q27 0 59 -20q32 -19 50 -19q33 0 50 41l52 -4q-29 -98 -111 -98q-29 0 -61 19q-34 20 -50 20q-32 0 -46 -35zM105 0h-80l142 697h80z" />
    <glyph glyph-name="itilde" unicode="&#x129;" horiz-adv-x="214" 
d="M2 64q0 14 4 31l84 409h76l-82 -401q-3 -13 -3 -24q0 -29 31 -29q8 0 26 2l-12 -57q-13 -7 -39 -7q-38 0 -61.5 21t-23.5 55zM67 594l-51 6q13 41 38.5 65.5t57.5 24.5q20 0 49 -20q28 -19 39 -19q26 0 42 43l50 -6q-28 -96 -99 -96q-21 0 -49 19q-29 20 -40 20
q-24 0 -37 -37z" />
    <glyph glyph-name="Imacron" unicode="&#x12a;" horiz-adv-x="272" 
d="M352 769h-274l14 69h274zM105 0h-80l142 697h80z" />
    <glyph glyph-name="imacron" unicode="&#x12b;" horiz-adv-x="214" 
d="M2 64q0 14 4 31l84 409h76l-82 -401q-3 -13 -3 -24q0 -29 31 -29q8 0 26 2l-12 -57q-13 -7 -39 -7q-38 0 -61.5 21t-23.5 55zM259 601h-238l14 69h238z" />
    <glyph glyph-name="Ibreve" unicode="&#x12c;" horiz-adv-x="272" 
d="M223 751q-61 0 -97.5 37.5t-36.5 101.5h69q4 -38 21 -55.5t54 -17.5q35 0 61 20.5t38 52.5h69q-17 -66 -64 -102.5t-114 -36.5zM105 0h-80l142 697h80z" />
    <glyph glyph-name="ibreve" unicode="&#x12d;" horiz-adv-x="214" 
d="M2 64q0 14 4 31l84 409h76l-82 -401q-3 -13 -3 -24q0 -29 31 -29q8 0 26 2l-12 -57q-13 -7 -39 -7q-38 0 -61.5 21t-23.5 55zM140 564q-48 0 -78 30.5t-30 83.5q0 14 1 19h69q-1 -4 -1 -16q0 -24 13 -37.5t36 -13.5q26 0 45.5 18.5t26.5 48.5h69q-15 -63 -54.5 -98
t-96.5 -35z" />
    <glyph glyph-name="Iogonek" unicode="&#x12e;" horiz-adv-x="272" 
d="M23 -6v1l144 702h80l-142 -697q-94 -55 -94 -100q0 -17 12.5 -28.5t33.5 -11.5q30 0 53 10l-25 -58q-17 -10 -46 -10q-43 0 -70 23t-27 59q0 64 81 110z" />
    <glyph glyph-name="iogonek" unicode="&#x12f;" horiz-adv-x="214" 
d="M2 64q0 14 4 31l84 409h76l-82 -401q-3 -13 -3 -24q0 -29 31 -29q8 0 26 2l-12 -57q-86 -50 -86 -95q0 -17 12.5 -28.5t33.5 -11.5q30 0 53 10l-25 -58q-17 -10 -46 -10q-43 0 -70 23t-27 59q0 64 81 110h-1q-49 16 -49 70zM149 588q-20 0 -33 12.5t-13 31.5
q0 22 16.5 39t38.5 17q21 0 34 -12.5t13 -32.5q0 -22 -16 -38.5t-40 -16.5z" />
    <glyph glyph-name="Idot" unicode="&#x130;" horiz-adv-x="272" 
d="M224 763q-20 0 -33 12.5t-13 31.5q0 22 16.5 39t38.5 17q21 0 34 -12.5t13 -32.5q0 -22 -16 -38.5t-40 -16.5zM105 0h-80l142 697h80z" />
    <glyph glyph-name="dotlessi" unicode="&#x131;" horiz-adv-x="214" 
d="M2 64q0 14 4 31l84 409h76l-82 -401q-3 -13 -3 -24q0 -29 31 -29q8 0 26 2l-12 -57q-13 -7 -39 -7q-38 0 -61.5 21t-23.5 55z" />
    <glyph glyph-name="IJ" unicode="&#x132;" horiz-adv-x="475" 
d="M26 9l15 72q51 -22 114 -22q52 0 80.5 33t41.5 97l104 508h78l-103 -505q-17 -83 -54 -140q-42 -66 -145 -66q-80 0 -131 23zM132 141h-78l113 556h78z" />
    <glyph glyph-name="ij" unicode="&#x133;" horiz-adv-x="365" 
d="M323 586q-20 0 -33 12.5t-13 31.5q0 22 16.5 39t38.5 17q21 0 34 -12.5t13 -32.5q0 -22 -16 -38.5t-40 -16.5zM148 586q-20 0 -33 12.5t-13 31.5q0 22 16.5 39t38.5 17q21 0 34 -12.5t13 -32.5q0 -22 -16 -38.5t-40 -16.5zM-10 4l15 66q33 -16 87 -16q41 0 63.5 18
t33.5 61l76 371h74l-78 -382q-12 -58 -40 -88q-26 -29 -57 -39t-80 -10q-68 0 -94 19zM89 138h-74l75 366h74z" />
    <glyph glyph-name="Jcircumflex" unicode="&#x134;" horiz-adv-x="310" 
d="M-59 1l15 70q27 -12 64 -12q39 0 58.5 30.5t33.5 99.5l104 508h78l-103 -505q-7 -37 -19 -81q-7 -24 -26 -61q-34 -64 -124 -64q-54 0 -81 15zM190 769h-94l147 121h88l97 -121h-84l-59 81z" />
    <glyph glyph-name="jcircumflex" unicode="&#x135;" horiz-adv-x="208" 
d="M-17 -60l116 564h74l-118 -575q-15 -76 -55.5 -106.5t-108.5 -30.5q-30 0 -42 5l14 68q15 -4 38 -4q34 0 53 18.5t29 60.5zM94 576h-86l132 121h59l83 -121h-80l-38 71z" />
    <glyph glyph-name="Kcommaaccent" unicode="&#x136;" horiz-adv-x="628" 
d="M100 0h-79l142 697h79l-73 -361l401 361h102l-346 -315l212 -382h-86l-185 333l-121 -109zM144 -193l83 145h102l-123 -145h-62z" />
    <glyph glyph-name="kcommaaccent" unicode="&#x137;" horiz-adv-x="466" 
d="M62 0h-76l142 697h76l-86 -424l247 231h99l-235 -223l159 -281h-86l-130 231l-79 -76zM42 -193l83 145h102l-123 -145h-62z" />
    <glyph glyph-name="Lacute" unicode="&#x139;" horiz-adv-x="496" 
d="M386 0h-365l142 697h80l-127 -625h285zM251 745h-62l83 145h102z" />
    <glyph glyph-name="lacute" unicode="&#x13a;" horiz-adv-x="267" 
d="M11 98q0 19 6 49l112 550h76l-113 -555q-4 -17 -4 -31q0 -24 15.5 -38.5t44.5 -14.5q14 0 27 3l-14 -68q-9 -4 -29 -4q-56 0 -88.5 30t-32.5 79zM194 722h-62l83 145h102z" />
    <glyph glyph-name="Lcommaaccent" unicode="&#x13b;" horiz-adv-x="496" 
d="M386 0h-365l142 697h80l-127 -625h285zM71 -193l83 145h102l-123 -145h-62z" />
    <glyph glyph-name="lcommaaccent" unicode="&#x13c;" horiz-adv-x="267" 
d="M11 98q0 19 6 49l112 550h76l-113 -555q-4 -17 -4 -31q0 -24 15.5 -38.5t44.5 -14.5q14 0 27 3l-14 -68q-9 -4 -29 -4q-56 0 -88.5 30t-32.5 79zM-73 -193l83 145h102l-123 -145h-62z" />
    <glyph glyph-name="Lcaron" unicode="&#x13d;" horiz-adv-x="496" 
d="M386 0h-365l142 697h80l-127 -625h285zM353 552h-62l83 145h102z" />
    <glyph glyph-name="lcaron" unicode="&#x13e;" horiz-adv-x="315" 
d="M11 98q0 19 6 49l112 550h76l-113 -555q-4 -17 -4 -31q0 -24 15.5 -38.5t44.5 -14.5q14 0 27 3l-14 -68q-9 -4 -29 -4q-56 0 -88.5 30t-32.5 79zM273 552h-62l83 145h102z" />
    <glyph glyph-name="Ldot" unicode="&#x13f;" horiz-adv-x="496" 
d="M321 321q-20 0 -33 12.5t-13 31.5q0 22 16.5 39t38.5 17q21 0 34 -12.5t13 -32.5q0 -22 -16 -38.5t-40 -16.5zM386 0h-365l142 697h80l-127 -625h285z" />
    <glyph glyph-name="ldot" unicode="&#x140;" horiz-adv-x="315" 
d="M11 98q0 19 6 49l112 550h76l-113 -555q-4 -17 -4 -31q0 -24 15.5 -38.5t44.5 -14.5q14 0 27 3l-14 -68q-9 -4 -29 -4q-56 0 -88.5 30t-32.5 79zM234 318q-20 0 -33 12.5t-13 31.5q0 22 16.5 39t38.5 17q21 0 34 -12.5t13 -32.5q0 -22 -16 -38.5t-40 -16.5z" />
    <glyph glyph-name="Lslash" unicode="&#x141;" horiz-adv-x="495" 
d="M386 0h-365l57 280l-74 -37l16 81l74 37l69 336h80l-59 -291l154 77l-17 -81l-154 -77l-51 -253h285z" />
    <glyph glyph-name="lslash" unicode="&#x142;" horiz-adv-x="279" 
d="M24 98q0 19 6 49l32 160l-74 -39l16 79l74 39l64 311h76l-54 -265l94 50l-16 -79l-94 -50l-43 -211q-4 -17 -4 -31q0 -24 15.5 -38.5t44.5 -14.5q13 0 27 3l-14 -68q-9 -4 -29 -4q-56 0 -88.5 30t-32.5 79z" />
    <glyph glyph-name="Nacute" unicode="&#x143;" horiz-adv-x="751" 
d="M99 0h-78l142 697h61l314 -562l114 562h78l-142 -697h-57l-317 567zM456 745h-62l83 145h102z" />
    <glyph glyph-name="nacute" unicode="&#x144;" horiz-adv-x="548" 
d="M60 0h-74l102 504h74l-16 -78q24 40 65 63t89 23q79 0 123.5 -47t44.5 -129q0 -26 -5 -54l-35 -170q-3 -15 -3 -23q0 -30 26 -30q5 0 21 2l-12 -57q-11 -7 -32 -7q-35 0 -56.5 21t-21.5 55q4 7 4 33l35 174q4 13 4 44q0 56 -30 87.5t-85 31.5q-59 0 -103 -43.5
t-58 -113.5zM328 552h-62l83 145h102z" />
    <glyph glyph-name="Ncommaaccent" unicode="&#x145;" horiz-adv-x="751" 
d="M99 0h-78l142 697h61l314 -562l114 562h78l-142 -697h-57l-317 567zM254 -193h-62l83 145h102z" />
    <glyph glyph-name="ncommaaccent" unicode="&#x146;" horiz-adv-x="548" 
d="M81 -193l83 145h102l-123 -145h-62zM60 0h-74l102 504h74l-16 -78q24 40 65 63t89 23q79 0 123.5 -47t44.5 -129q0 -26 -5 -54l-35 -170q-3 -15 -3 -23q0 -30 26 -30q5 0 21 2l-12 -57q-11 -7 -32 -7q-35 0 -56.5 21t-21.5 55q4 7 4 33l35 174q4 13 4 44q0 56 -30 87.5
t-85 31.5q-59 0 -103 -43.5t-58 -113.5z" />
    <glyph glyph-name="Ncaron" unicode="&#x147;" horiz-adv-x="751" 
d="M99 0h-78l142 697h61l314 -562l114 562h78l-142 -697h-57l-317 567zM491 769h-88l-97 121h84l59 -81l95 81h94z" />
    <glyph glyph-name="ncaron" unicode="&#x148;" horiz-adv-x="548" 
d="M363 576h-88l-97 121h84l59 -81l95 81h94zM60 0h-74l102 504h74l-16 -78q24 40 65 63t89 23q79 0 123.5 -47t44.5 -129q0 -26 -5 -54l-35 -170q-3 -15 -3 -23q0 -30 26 -30q5 0 21 2l-12 -57q-11 -7 -32 -7q-35 0 -56.5 21t-21.5 55q4 7 4 33l35 174q4 13 4 44
q0 56 -30 87.5t-85 31.5q-59 0 -103 -43.5t-58 -113.5z" />
    <glyph glyph-name="Eng" unicode="&#x14a;" horiz-adv-x="751" 
d="M99 0h-78l142 697h68l303 -581l118 581h78l-142 -698q-17 -80 -34 -115q-18 -44 -49.5 -66t-85.5 -25q-53 0 -80 13l15 72q27 -12 63 -12q39 0 58.5 30.5t33.5 99.5v1l-295 572z" />
    <glyph glyph-name="eng" unicode="&#x14b;" horiz-adv-x="519" 
d="M62 0h-76l103 504h76l-17 -78q52 86 155 86q77 0 120 -44t43 -121q0 -22 -5 -50l-75 -368q-15 -76 -55.5 -106.5t-108.5 -30.5q-32 0 -44 5l14 68q15 -4 38 -4q35 0 54 18t28 61l71 353q4 25 4 40q0 52 -28 81t-80 29q-58 0 -103 -45q-43 -43 -57 -112z" />
    <glyph glyph-name="Omacron" unicode="&#x14c;" horiz-adv-x="820" 
d="M42 305q0 106 52 198t145 150q93 57 203 57q148 0 243 -92t95 -233q0 -101 -51 -193q-50 -90 -145 -149q-93 -57 -207 -57q-146 0 -241 89q-94 90 -94 230zM119 311q0 -112 73 -182q74 -71 192 -71q133 0 226 98t93 223q0 114 -73 186q-73 73 -192 73q-133 0 -226 -100
t-93 -227zM626 769h-294l14 69h294z" />
    <glyph glyph-name="omacron" unicode="&#x14d;" 
d="M9 221q0 119 88 208q89 90 211 90q108 0 179 -68q70 -67 70 -173q0 -116 -87 -204q-86 -89 -211 -89q-109 0 -180 66q-70 66 -70 170zM85 225q0 -76 49.5 -124t130.5 -48q90 0 153 67q64 67 64 154q0 76 -50 126t-131 50q-90 0 -153 -69q-63 -67 -63 -156zM490 601h-294
l14 69h294z" />
    <glyph glyph-name="Obreve" unicode="&#x14e;" horiz-adv-x="820" 
d="M42 305q0 106 52 198t145 150q93 57 203 57q148 0 243 -92t95 -233q0 -101 -51 -193q-50 -90 -145 -149q-93 -57 -207 -57q-146 0 -241 89q-94 90 -94 230zM119 311q0 -112 73 -182q74 -71 192 -71q133 0 226 98t93 223q0 114 -73 186q-73 73 -192 73q-133 0 -226 -100
t-93 -227zM486 751q-61 0 -97.5 37.5t-36.5 101.5h69q4 -38 21 -55.5t54 -17.5q35 0 61 20.5t38 52.5h69q-17 -66 -64 -102.5t-114 -36.5z" />
    <glyph glyph-name="obreve" unicode="&#x14f;" 
d="M9 221q0 119 88 208q89 90 211 90q108 0 179 -68q70 -67 70 -173q0 -116 -87 -204q-86 -89 -211 -89q-109 0 -180 66q-70 66 -70 170zM85 225q0 -76 49.5 -124t130.5 -48q90 0 153 67q64 67 64 154q0 76 -50 126t-131 50q-90 0 -153 -69q-63 -67 -63 -156zM342 558
q-61 0 -97.5 37.5t-36.5 101.5h69q4 -38 21 -55.5t54 -17.5q35 0 61 20.5t38 52.5h69q-17 -66 -64 -102.5t-114 -36.5z" />
    <glyph glyph-name="Ohungarumlaut" unicode="&#x150;" horiz-adv-x="820" 
d="M42 305q0 106 52 198t145 150q93 57 203 57q148 0 243 -92t95 -233q0 -101 -51 -193q-50 -90 -145 -149q-93 -57 -207 -57q-146 0 -241 89q-94 90 -94 230zM119 311q0 -112 73 -182q74 -71 192 -71q133 0 226 98t93 223q0 114 -73 186q-73 73 -192 73q-133 0 -226 -100
t-93 -227zM576 745h-59l93 145h99zM422 745h-59l93 145h99z" />
    <glyph glyph-name="ohungarumlaut" unicode="&#x151;" 
d="M9 221q0 119 88 208q89 90 211 90q108 0 179 -68q70 -67 70 -173q0 -116 -87 -204q-86 -89 -211 -89q-109 0 -180 66q-70 66 -70 170zM85 225q0 -76 49.5 -124t130.5 -48q90 0 153 67q64 67 64 154q0 76 -50 126t-131 50q-90 0 -153 -69q-63 -67 -63 -156zM432 552h-59
l93 145h99zM278 552h-59l93 145h99z" />
    <glyph glyph-name="OE" unicode="&#x152;" horiz-adv-x="1084" 
d="M40 305q0 106 52 198t145 150q93 57 203 57q100 0 178 -42.5t112 -115.5l30 145h394l-15 -72h-314l-45 -221h295l-14 -72h-295l-53 -260h321l-15 -72h-401l20 97q-43 -52 -112.5 -81.5t-150.5 -29.5q-146 0 -241 89q-94 90 -94 230zM117 311q0 -112 73 -182
q74 -71 192 -71q133 0 226 98t93 223q0 114 -73 186q-73 73 -192 73q-133 0 -226 -100t-93 -227z" />
    <glyph glyph-name="oe" unicode="&#x153;" horiz-adv-x="1012" 
d="M9 221q0 119 88 208q89 90 211 90q81 0 141.5 -39.5t82.5 -104.5q34 64 98.5 102t140.5 38q99 0 154 -63q55 -62 55 -161q0 -30 -8 -57h-416q-2 -2 -2 -20q0 -79 43.5 -121.5t126.5 -42.5q86 0 145 60l44 -48q-81 -81 -192 -81q-85 0 -144 35.5t-79 97.5q-34 -59 -98 -94
t-141 -35q-109 0 -180 66q-70 66 -70 170zM85 225q0 -76 49.5 -124t130.5 -48q90 0 153 67q64 67 64 154q0 76 -50 126t-131 50q-90 0 -153 -69q-63 -67 -63 -156zM570 299h335q1 3 1 10q0 60 -39 98.5t-101 38.5q-65 0 -117 -40t-79 -107z" />
    <glyph glyph-name="Racute" unicode="&#x154;" 
d="M101 0h-80l142 697h209q88 0 144 -54q56 -53 56 -135q0 -76 -49 -140q-48 -64 -126 -84l106 -284h-83l-104 276h-159zM227 625l-56 -277h170q65 0 108 48q45 48 45 109q0 52 -35 86t-91 34h-141zM381 745h-62l83 145h102z" />
    <glyph glyph-name="racute" unicode="&#x155;" horiz-adv-x="361" 
d="M62 0h-76l103 504h76l-17 -78q25 40 68.5 63t96.5 23q19 0 37 -3l-16 -73q-22 5 -43 5q-62 0 -111 -44q-48 -45 -61 -111zM231 552h-62l83 145h102z" />
    <glyph glyph-name="Rcommaaccent" unicode="&#x156;" 
d="M101 0h-80l142 697h209q88 0 144 -54q56 -53 56 -135q0 -76 -49 -140q-48 -64 -126 -84l106 -284h-83l-104 276h-159zM227 625l-56 -277h170q65 0 108 48q45 48 45 109q0 52 -35 86t-91 34h-141zM126 -193l83 145h102l-123 -145h-62z" />
    <glyph glyph-name="rcommaaccent" unicode="&#x157;" horiz-adv-x="361" 
d="M62 0h-76l103 504h76l-17 -78q25 40 68.5 63t96.5 23q19 0 37 -3l-16 -73q-22 5 -43 5q-62 0 -111 -44q-48 -45 -61 -111zM-108 -193l83 145h102l-123 -145h-62z" />
    <glyph glyph-name="Rcaron" unicode="&#x158;" 
d="M101 0h-80l142 697h209q88 0 144 -54q56 -53 56 -135q0 -76 -49 -140q-48 -64 -126 -84l106 -284h-83l-104 276h-159zM227 625l-56 -277h170q65 0 108 48q45 48 45 109q0 52 -35 86t-91 34h-141zM411 769h-88l-97 121h84l59 -81l95 81h94z" />
    <glyph glyph-name="rcaron" unicode="&#x159;" horiz-adv-x="361" 
d="M62 0h-76l103 504h76l-17 -78q25 40 68.5 63t96.5 23q19 0 37 -3l-16 -73q-22 5 -43 5q-62 0 -111 -44q-48 -45 -61 -111zM266 576h-88l-97 121h84l59 -81l95 81h94z" />
    <glyph glyph-name="Sacute" unicode="&#x15a;" horiz-adv-x="550" 
d="M9 158l68 29q27 -129 163 -129q64 0 107 42q45 44 45 96q0 46 -29 77.5t-97 65.5q-75 37 -111.5 78t-36.5 99q0 77 61 135q62 59 147 59q66 0 114 -32t65 -89l-71 -33q-27 82 -114 82q-52 0 -87 -34q-35 -33 -35 -76q0 -40 27.5 -69t87.5 -58q159 -77 159 -194
q0 -86 -69 -154q-68 -67 -170 -67q-83 0 -147 44q-63 44 -77 128zM380 745h-62l83 145h102z" />
    <glyph glyph-name="sacute" unicode="&#x15b;" horiz-adv-x="414" 
d="M-28 130l66 23q13 -45 48.5 -70.5t86.5 -25.5q42 0 73 24.5t31 55.5q0 30 -23 52t-79 49q-115 57 -115 144q0 54 45 95q46 42 109 42q57 0 99 -28.5t56 -76.5l-65 -26q-18 63 -87 63q-33 0 -57 -20t-24 -45q0 -48 93 -93q124 -60 124 -154q0 -59 -52 -105
q-50 -46 -127 -46t-131 38t-71 104zM262 552h-62l83 145h102z" />
    <glyph glyph-name="Scircumflex" unicode="&#x15c;" horiz-adv-x="550" 
d="M9 158l68 29q27 -129 163 -129q64 0 107 42q45 44 45 96q0 46 -29 77.5t-97 65.5q-75 37 -111.5 78t-36.5 99q0 77 61 135q62 59 147 59q66 0 114 -32t65 -89l-71 -33q-27 82 -114 82q-52 0 -87 -34q-35 -33 -35 -76q0 -40 27.5 -69t87.5 -58q159 -77 159 -194
q0 -86 -69 -154q-68 -67 -170 -67q-83 0 -147 44q-63 44 -77 128zM277 769h-94l147 121h88l97 -121h-84l-59 81z" />
    <glyph glyph-name="scircumflex" unicode="&#x15d;" horiz-adv-x="414" 
d="M-28 130l66 23q13 -45 48.5 -70.5t86.5 -25.5q42 0 73 24.5t31 55.5q0 30 -23 52t-79 49q-115 57 -115 144q0 54 45 95q46 42 109 42q57 0 99 -28.5t56 -76.5l-65 -26q-18 63 -87 63q-33 0 -57 -20t-24 -45q0 -48 93 -93q124 -60 124 -154q0 -59 -52 -105
q-50 -46 -127 -46t-131 38t-71 104zM168 576h-94l147 121h88l97 -121h-84l-59 81z" />
    <glyph glyph-name="Scedilla" unicode="&#x15e;" horiz-adv-x="550" 
d="M88 -173l26 37q33 -14 56 -14q20 0 34 12t14 27q0 33 -66 33h-1l41 67q-74 10 -123 53.5t-60 115.5l68 29q27 -129 163 -129q64 0 107 42q45 44 45 96q0 46 -29 77.5t-97 65.5q-75 37 -111.5 78t-36.5 99q0 77 61 135q62 59 147 59q66 0 114 -32t65 -89l-71 -33
q-27 82 -114 82q-52 0 -87 -34q-35 -33 -35 -76q0 -40 27.5 -69t87.5 -58q159 -77 159 -194q0 -84 -64 -149q-65 -65 -159 -71l-21 -34q23 -4 38 -21t15 -41q0 -39 -31.5 -64t-77.5 -25q-59 0 -84 25z" />
    <glyph glyph-name="scedilla" unicode="&#x15f;" horiz-adv-x="414" 
d="M13 -173l26 37q33 -14 56 -14q20 0 34 12t14 27q0 33 -66 33h-1l44 72q-57 11 -95.5 46.5t-52.5 89.5l66 23q13 -45 48.5 -70.5t86.5 -25.5q42 0 73 24.5t31 55.5q0 30 -23 52t-79 49q-115 57 -115 144q0 54 45 95q46 42 109 42q57 0 99 -28.5t56 -76.5l-65 -26
q-18 63 -87 63q-33 0 -57 -20t-24 -45q0 -48 93 -93q124 -60 124 -154q0 -59 -52 -105q-50 -44 -126 -46l-22 -35q23 -4 38 -21t15 -41q0 -39 -31.5 -64t-77.5 -25q-59 0 -84 25z" />
    <glyph glyph-name="Scaron" unicode="&#x160;" horiz-adv-x="550" 
d="M9 158l68 29q27 -129 163 -129q64 0 107 42q45 44 45 96q0 46 -29 77.5t-97 65.5q-75 37 -111.5 78t-36.5 99q0 77 61 135q62 59 147 59q66 0 114 -32t65 -89l-71 -33q-27 82 -114 82q-52 0 -87 -34q-35 -33 -35 -76q0 -40 27.5 -69t87.5 -58q159 -77 159 -194
q0 -86 -69 -154q-68 -67 -170 -67q-83 0 -147 44q-63 44 -77 128zM397 769h-88l-97 121h84l59 -81l95 81h94z" />
    <glyph glyph-name="scaron" unicode="&#x161;" horiz-adv-x="414" 
d="M-28 130l66 23q13 -45 48.5 -70.5t86.5 -25.5q42 0 73 24.5t31 55.5q0 30 -23 52t-79 49q-115 57 -115 144q0 54 45 95q46 42 109 42q57 0 99 -28.5t56 -76.5l-65 -26q-18 63 -87 63q-33 0 -57 -20t-24 -45q0 -48 93 -93q124 -60 124 -154q0 -59 -52 -105
q-50 -46 -127 -46t-131 38t-71 104zM292 576h-88l-97 121h84l59 -81l95 81h94z" />
    <glyph glyph-name="Tcommaaccent" unicode="&#x162;" horiz-adv-x="518" 
d="M228 0h-80l127 625h-189l15 72h458l-15 -72h-189zM45 -193l83 145h102l-123 -145h-62z" />
    <glyph glyph-name="tcommaaccent" unicode="&#x163;" horiz-adv-x="310" 
d="M40 98q0 22 6 49l59 288h-59l14 69h59l39 193h76l-39 -193h117l-14 -69h-117l-60 -293q-4 -17 -4 -31q0 -24 15.5 -38.5t43.5 -14.5q26 0 45 3l-14 -67q-18 -5 -45 -5q-56 0 -89 30t-33 79zM-33 -193l83 145h102l-123 -145h-62z" />
    <glyph glyph-name="Tcaron" unicode="&#x164;" horiz-adv-x="518" 
d="M228 0h-80l127 625h-189l15 72h458l-15 -72h-189zM379 769h-88l-97 121h84l59 -81l95 81h94z" />
    <glyph glyph-name="tcaron" unicode="&#x165;" horiz-adv-x="335" 
d="M40 98q0 22 6 49l59 288h-59l14 69h59l39 193h76l-39 -193h117l-14 -69h-117l-60 -293q-4 -17 -4 -31q0 -24 15.5 -38.5t43.5 -14.5q26 0 45 3l-14 -67q-18 -5 -45 -5q-56 0 -89 30t-33 79zM323 552h-62l83 145h102z" />
    <glyph glyph-name="Tbar" unicode="&#x166;" horiz-adv-x="518" 
d="M228 0h-80l73 361h-104l14 69h104l40 195h-189l15 72h458l-15 -72h-189l-40 -195h110l-14 -69h-110z" />
    <glyph glyph-name="tbar" unicode="&#x167;" horiz-adv-x="310" 
d="M40 98q0 22 6 49l30 147h-62l14 69h62l15 72h-59l14 69h59l39 193h76l-39 -193h117l-14 -69h-117l-15 -72h112l-14 -69h-112l-31 -152q-4 -17 -4 -31q0 -24 15.5 -38.5t43.5 -14.5q26 0 45 3l-14 -67q-18 -5 -45 -5q-56 0 -89 30t-33 79z" />
    <glyph glyph-name="Utilde" unicode="&#x168;" horiz-adv-x="696" 
d="M61 210q0 34 9 78l83 409h80l-91 -442q-3 -16 -3 -43q0 -70 42.5 -111t119.5 -41q80 0 133.5 48.5t73.5 142.5l91 446h79l-93 -461q-26 -122 -102.5 -185t-187.5 -63q-107 0 -171 61q-63 61 -63 161zM325 758l-52 4q12 42 41 67t68 25q27 0 59 -20q32 -19 50 -19
q33 0 50 41l52 -4q-29 -98 -111 -98q-29 0 -61 19q-34 20 -50 20q-32 0 -46 -35z" />
    <glyph glyph-name="utilde" unicode="&#x169;" horiz-adv-x="544" 
d="M11 160q0 18 8 63l61 281h77l-64 -298q-5 -27 -5 -47q0 -45 29 -73.5t81 -28.5q63 0 109.5 43.5t63.5 128.5l56 275h76l-80 -392q-3 -15 -3 -23q0 -30 26 -30q5 0 21 2l-12 -57q-11 -7 -32 -7q-31 0 -52 21q-19 21 -21 51v1q-18 -36 -62.5 -59t-100.5 -23q-80 0 -128 49
t-48 123zM203 594l-52 4q12 42 41 67t68 25q27 0 59 -20q32 -19 50 -19q33 0 50 41l52 -4q-29 -98 -111 -98q-29 0 -61 19q-34 20 -50 20q-32 0 -46 -35z" />
    <glyph glyph-name="Umacron" unicode="&#x16a;" horiz-adv-x="696" 
d="M61 210q0 34 9 78l83 409h80l-91 -442q-3 -16 -3 -43q0 -70 42.5 -111t119.5 -41q80 0 133.5 48.5t73.5 142.5l91 446h79l-93 -461q-26 -122 -102.5 -185t-187.5 -63q-107 0 -171 61q-63 61 -63 161zM571 769h-294l14 69h294z" />
    <glyph glyph-name="umacron" unicode="&#x16b;" horiz-adv-x="544" 
d="M11 160q0 18 8 63l61 281h77l-64 -298q-5 -27 -5 -47q0 -45 29 -73.5t81 -28.5q63 0 109.5 43.5t63.5 128.5l56 275h76l-80 -392q-3 -15 -3 -23q0 -30 26 -30q5 0 21 2l-12 -57q-11 -7 -32 -7q-31 0 -52 21q-19 21 -21 51v1q-18 -36 -62.5 -59t-100.5 -23q-80 0 -128 49
t-48 123zM453 601h-294l14 69h294z" />
    <glyph glyph-name="Ubreve" unicode="&#x16c;" horiz-adv-x="696" 
d="M61 210q0 34 9 78l83 409h80l-91 -442q-3 -16 -3 -43q0 -70 42.5 -111t119.5 -41q80 0 133.5 48.5t73.5 142.5l91 446h79l-93 -461q-26 -122 -102.5 -185t-187.5 -63q-107 0 -171 61q-63 61 -63 161zM418 751q-61 0 -97.5 37.5t-36.5 101.5h69q4 -38 21 -55.5t54 -17.5
q35 0 61 20.5t38 52.5h69q-17 -66 -64 -102.5t-114 -36.5z" />
    <glyph glyph-name="ubreve" unicode="&#x16d;" horiz-adv-x="544" 
d="M11 160q0 18 8 63l61 281h77l-64 -298q-5 -27 -5 -47q0 -45 29 -73.5t81 -28.5q63 0 109.5 43.5t63.5 128.5l56 275h76l-80 -392q-3 -15 -3 -23q0 -30 26 -30q5 0 21 2l-12 -57q-11 -7 -32 -7q-31 0 -52 21q-19 21 -21 51v1q-18 -36 -62.5 -59t-100.5 -23q-80 0 -128 49
t-48 123zM302 558q-61 0 -97.5 37.5t-36.5 101.5h69q4 -38 21 -55.5t54 -17.5q35 0 61 20.5t38 52.5h69q-17 -66 -64 -102.5t-114 -36.5z" />
    <glyph glyph-name="Uring" unicode="&#x16e;" horiz-adv-x="696" 
d="M420 710q-40 0 -65 24t-25 62q0 42 32 76q32 33 76 33q40 0 65.5 -25t25.5 -63q0 -41 -32 -75q-32 -32 -77 -32zM425 761q21 0 36.5 15.5t15.5 36.5q0 18 -12 29.5t-31 11.5q-21 0 -36.5 -15.5t-15.5 -36.5q0 -18 12 -29.5t31 -11.5zM61 210q0 34 9 78l83 409h80
l-91 -442q-3 -16 -3 -43q0 -70 42.5 -111t119.5 -41q80 0 133.5 48.5t73.5 142.5l91 446h79l-93 -461q-26 -122 -102.5 -185t-187.5 -63q-107 0 -171 61q-63 61 -63 161z" />
    <glyph glyph-name="uring" unicode="&#x16f;" horiz-adv-x="544" 
d="M11 160q0 18 8 63l61 281h77l-64 -298q-5 -27 -5 -47q0 -45 29 -73.5t81 -28.5q63 0 109.5 43.5t63.5 128.5l56 275h76l-80 -392q-3 -15 -3 -23q0 -30 26 -30q5 0 21 2l-12 -57q-11 -7 -32 -7q-31 0 -52 21q-19 21 -21 51v1q-18 -36 -62.5 -59t-100.5 -23q-80 0 -128 49
t-48 123zM293 516q-40 0 -65 24t-25 62q0 42 32 76q31 33 76 33q40 0 65.5 -25t25.5 -63q0 -41 -32 -75q-32 -32 -77 -32zM298 567q21 0 36.5 15.5t15.5 36.5q0 18 -12 29.5t-31 11.5q-21 0 -36.5 -15.5t-15.5 -36.5q0 -18 12 -29.5t31 -11.5z" />
    <glyph glyph-name="Uhungarumlaut" unicode="&#x170;" horiz-adv-x="696" 
d="M61 210q0 34 9 78l83 409h80l-91 -442q-3 -16 -3 -43q0 -70 42.5 -111t119.5 -41q80 0 133.5 48.5t73.5 142.5l91 446h79l-93 -461q-26 -122 -102.5 -185t-187.5 -63q-107 0 -171 61q-63 61 -63 161zM514 745h-59l93 145h99zM360 745h-59l93 145h99z" />
    <glyph glyph-name="uhungarumlaut" unicode="&#x171;" horiz-adv-x="544" 
d="M241 552h-59l93 145h99zM395 552h-59l93 145h99zM11 160q0 18 8 63l61 281h77l-64 -298q-5 -27 -5 -47q0 -45 29 -73.5t81 -28.5q63 0 109.5 43.5t63.5 128.5l56 275h76l-80 -392q-3 -15 -3 -23q0 -30 26 -30q5 0 21 2l-12 -57q-11 -7 -32 -7q-31 0 -52 21q-19 21 -21 51
v1q-18 -36 -62.5 -59t-100.5 -23q-80 0 -128 49t-48 123z" />
    <glyph glyph-name="Uogonek" unicode="&#x172;" horiz-adv-x="696" 
d="M62 218q0 31 10 77l86 402h80l-90 -421q-7 -35 -7 -62q0 -37 12 -70q32 -84 149 -84q79 0 132.5 48.5t73.5 142.5l91 446h79l-93 -461q-27 -135 -132 -204q-14 -9 -62 -32q-52 -25 -75 -47t-23 -53q0 -17 12.5 -28.5t33.5 -11.5q30 0 53 10l-25 -58q-17 -10 -46 -10
q-43 0 -70 23t-27 59q0 59 72 104h-1q-115 0 -174 61t-59 169z" />
    <glyph glyph-name="uogonek" unicode="&#x173;" horiz-adv-x="544" 
d="M11 160q0 18 8 63l61 281h77l-64 -298q-5 -27 -5 -47q0 -45 29 -73.5t81 -28.5q63 0 109.5 43.5t63.5 128.5l56 275h76l-80 -392q-3 -15 -3 -23q0 -30 26 -30q5 0 21 2l-12 -57q-95 -53 -95 -104q0 -17 12.5 -28.5t33.5 -11.5q30 0 53 10l-25 -58q-17 -10 -46 -10
q-43 0 -70 23t-27 59q0 71 97 122l-4 2q-11 6 -20 19q-12 18 -14 42v1q-18 -36 -62.5 -59t-100.5 -23q-80 0 -128 49t-48 123z" />
    <glyph glyph-name="Wcircumflex" unicode="&#x174;" horiz-adv-x="920" 
d="M208 0h-50l-62 697h76l47 -530l283 530h54l63 -529l262 529h81l-346 -697h-50l-65 543zM471 769h-94l147 121h88l97 -121h-84l-59 81z" />
    <glyph glyph-name="wcircumflex" unicode="&#x175;" horiz-adv-x="746" 
d="M175 0h-49l-79 504h72l55 -370l205 370h52l48 -366l205 366h79l-285 -504h-49l-50 367zM347 576h-94l147 121h88l97 -121h-84l-59 81z" />
    <glyph glyph-name="Ycircumflex" unicode="&#x176;" horiz-adv-x="612" 
d="M271 0h-79l57 282l-162 415h82l133 -339l261 339h92l-329 -426zM298 769h-94l147 121h88l97 -121h-84l-59 81z" />
    <glyph glyph-name="ycircumflex" unicode="&#x177;" horiz-adv-x="504" 
d="M94 -83l49 86l-96 501h74l78 -411l240 411h82l-348 -590q-39 -67 -73 -95t-86 -28q-38 0 -62 11l14 66q21 -8 49 -8q27 0 44 13t35 44zM215 576h-94l147 121h88l97 -121h-84l-59 81z" />
    <glyph glyph-name="Ydieresis" unicode="&#x178;" horiz-adv-x="612" 
d="M480 743q-20 0 -33 12.5t-13 31.5q0 22 16.5 39t38.5 17q21 0 34 -12.5t13 -32.5q0 -22 -16 -38.5t-40 -16.5zM274 743q-20 0 -33 12.5t-13 31.5q0 22 16.5 39t38.5 17q21 0 34 -12.5t13 -32.5q0 -22 -16 -38.5t-40 -16.5zM271 0h-79l57 282l-162 415h82l133 -339
l261 339h92l-329 -426z" />
    <glyph glyph-name="Zacute" unicode="&#x179;" horiz-adv-x="625" 
d="M508 0h-540l10 48l541 577h-375l15 72h484l-11 -52l-537 -573h428zM422 745h-62l83 145h102z" />
    <glyph glyph-name="zacute" unicode="&#x17a;" horiz-adv-x="499" 
d="M387 0h-430l9 44l388 391h-275l14 69h381l-10 -49l-384 -386h321zM310 552h-62l83 145h102z" />
    <glyph glyph-name="Zdotaccent" unicode="&#x17b;" horiz-adv-x="625" 
d="M508 0h-540l10 48l541 577h-375l15 72h484l-11 -52l-537 -573h428zM417 763q-20 0 -33 12.5t-13 31.5q0 22 16.5 39t38.5 17q21 0 34 -12.5t13 -32.5q0 -22 -16 -38.5t-40 -16.5z" />
    <glyph glyph-name="zdotaccent" unicode="&#x17c;" horiz-adv-x="499" 
d="M387 0h-430l9 44l388 391h-275l14 69h381l-10 -49l-384 -386h321zM310 586q-20 0 -33 12.5t-13 31.5q0 22 16.5 39t38.5 17q21 0 34 -12.5t13 -32.5q0 -22 -16 -38.5t-40 -16.5z" />
    <glyph glyph-name="Zcaron" unicode="&#x17d;" horiz-adv-x="625" 
d="M508 0h-540l10 48l541 577h-375l15 72h484l-11 -52l-537 -573h428zM460 769h-88l-97 121h84l59 -81l95 81h94z" />
    <glyph glyph-name="zcaron" unicode="&#x17e;" horiz-adv-x="499" 
d="M387 0h-430l9 44l388 391h-275l14 69h381l-10 -49l-384 -386h321zM351 576h-88l-97 121h84l59 -81l95 81h94z" />
    <glyph glyph-name="florin" unicode="&#x192;" horiz-adv-x="375" 
d="M204 374l-198 -475h-74l198 475h-76l26 63h76l50 119q35 83 81 120q20 17 44 24q33 12 81 12q30 0 56 -10l-27 -64q-25 5 -51 5q-39 0 -64 -19t-44 -64l-52 -123h100l-26 -63h-100z" />
    <glyph glyph-name="Aringacute" unicode="&#x1fa;" horiz-adv-x="656" 
d="M460 907h-59l82 145h99zM26 0h-87l425 665q-27 8 -43.5 30t-16.5 52q0 42 32 76q32 33 76 33q40 0 65.5 -25t25.5 -63q0 -37 -25.5 -67.5t-63.5 -37.5l156 -663h-77l-42 172h-315zM399 712q21 0 36.5 15.5t15.5 36.5q0 18 -12 29.5t-31 11.5q-21 0 -36.5 -15.5
t-15.5 -36.5q0 -18 12 -29.5t31 -11.5zM368 537l-185 -293h251z" />
    <glyph glyph-name="aringacute" unicode="&#x1fb;" horiz-adv-x="645" 
d="M424 788h-62l83 145h102zM357 556q-40 0 -65 24t-25 62q0 42 32 76q31 33 76 33q40 0 65.5 -25t25.5 -63q0 -41 -32 -75q-32 -32 -77 -32zM362 607q21 0 36.5 15.5t15.5 36.5q0 18 -12 29.5t-31 11.5q-21 0 -36.5 -15.5t-15.5 -36.5q0 -18 12 -29.5t31 -11.5zM9 221
q0 120 87 208q88 90 209 90q72 0 124.5 -27t72.5 -64l16 76h76l-82 -401q-3 -13 -3 -24q0 -29 31 -29q8 0 26 2l-12 -57q-11 -7 -37 -7q-30 0 -50 17q-26 23 -26 63v1q-27 -37 -78 -59t-112 -22q-107 0 -175 65q-67 66 -67 168zM85 225q0 -75 47 -122t125 -47q92 0 157 65
q66 65 66 174q0 69 -50.5 112t-131.5 43q-90 0 -151 -69q-62 -68 -62 -156z" />
    <glyph glyph-name="AEacute" unicode="&#x1fc;" horiz-adv-x="890" 
d="M13 0h-100l676 697h310l-15 -72h-250l-45 -221h231l-14 -72h-231l-53 -260h257l-15 -72h-337l35 172h-282zM537 539l-287 -295h227zM648 745h-62l83 145h102z" />
    <glyph glyph-name="aeacute" unicode="&#x1fd;" horiz-adv-x="1007" 
d="M585 552h-59l83 145h99zM9 221q0 120 87 208q88 90 209 90q72 0 124.5 -27t72.5 -64l16 76h76l-13 -60q68 71 174 71q101 0 157 -63q57 -63 57 -161q0 -30 -8 -57h-421q-2 -10 -2 -20q0 -77 43.5 -118.5t126.5 -41.5q89 0 147 58l47 -50q-83 -77 -197 -77
q-70 0 -122 26.5t-76 69.5l-16 -81h-76l15 74q-54 -86 -179 -86q-107 0 -175 65q-67 66 -67 168zM85 225q0 -75 47 -122t125 -47q88 0 153 65t65 174q0 69 -49 112t-128 43q-90 0 -151 -69q-62 -68 -62 -156zM554 299h340q1 3 1 10q0 59 -41 98q-40 39 -104 39
q-65 0 -117 -40t-79 -107z" />
    <glyph glyph-name="Oslashacute" unicode="&#x1fe;" horiz-adv-x="820" 
d="M91 -42l-48 42l82 86q-83 89 -83 219q0 106 52 198t145 150q93 57 203 57q123 0 213 -66l85 90l49 -43l-86 -91q77 -89 77 -215q0 -101 -51 -193q-50 -90 -145 -149q-93 -57 -207 -57q-118 0 -204 59zM178 143l424 446q-67 49 -164 49q-133 0 -226 -100t-93 -227
q0 -100 59 -168zM649 544l-422 -443q64 -43 157 -43q133 0 226 98t93 223q0 97 -54 165zM507 745h-62l83 145h102z" />
    <glyph glyph-name="oslashacute" unicode="&#x1ff;" 
d="M56 -41l-50 44l59 63q-56 62 -56 155q0 119 88 208q89 90 211 90q82 0 143 -40l57 60l50 -43l-57 -61q56 -67 56 -157q0 -116 -87 -204q-86 -89 -211 -89q-81 0 -143 38zM116 121l285 304q-43 25 -100 25q-90 0 -153 -69q-63 -67 -63 -156q0 -61 31 -104zM450 380
l-284 -303q40 -24 99 -24q90 0 153 67q64 67 64 154q0 59 -32 106zM364 552h-62l83 145h102z" />
    <glyph glyph-name="Scommaaccent" unicode="&#x218;" horiz-adv-x="550" 
d="M9 158l68 29q27 -129 163 -129q64 0 107 42q45 44 45 96q0 46 -29 77.5t-97 65.5q-75 37 -111.5 78t-36.5 99q0 77 61 135q62 59 147 59q66 0 114 -32t65 -89l-71 -33q-27 82 -114 82q-52 0 -87 -34q-35 -33 -35 -76q0 -40 27.5 -69t87.5 -58q159 -77 159 -194
q0 -86 -69 -154q-68 -67 -170 -67q-83 0 -147 44q-63 44 -77 128zM89 -193l83 145h102l-123 -145h-62z" />
    <glyph glyph-name="scommaaccent" unicode="&#x219;" horiz-adv-x="414" 
d="M-28 130l66 23q13 -45 48.5 -70.5t86.5 -25.5q42 0 73 24.5t31 55.5q0 30 -23 52t-79 49q-115 57 -115 144q0 54 45 95q46 42 109 42q57 0 99 -28.5t56 -76.5l-65 -26q-18 63 -87 63q-33 0 -57 -20t-24 -45q0 -48 93 -93q124 -60 124 -154q0 -59 -52 -105
q-50 -46 -127 -46t-131 38t-71 104zM17 -193l83 145h102l-123 -145h-62z" />
    <glyph glyph-name="circumflex" unicode="&#x2c6;" horiz-adv-x="610" 
d="M276 576h-91l147 121h88l97 -121h-84l-60 80z" />
    <glyph glyph-name="caron" unicode="&#x2c7;" horiz-adv-x="610" 
d="M395 576h-88l-97 121h84l60 -80l97 80h91z" />
    <glyph glyph-name="breve" unicode="&#x2d8;" 
d="M352 558q-61 0 -97.5 37.5t-36.5 101.5h69q4 -38 21 -55.5t54 -17.5q35 0 61 20.5t38 52.5h69q-17 -66 -64 -102.5t-114 -36.5z" />
    <glyph glyph-name="dotaccent" unicode="&#x2d9;" horiz-adv-x="525" 
d="M316 588q-20 0 -33 12.5t-13 31.5q0 22 16.5 39t38.5 17q21 0 34 -12.5t13 -32.5q0 -22 -16 -38.5t-40 -16.5z" />
    <glyph glyph-name="ring" unicode="&#x2da;" horiz-adv-x="239" 
d="M164 517q-40 0 -65 24t-25 62q0 42 32 76q31 33 76 33q40 0 65.5 -25t25.5 -63q0 -41 -32 -75q-32 -32 -77 -32zM169 568q21 0 36.5 15.5t15.5 36.5q0 18 -12 29.5t-31 11.5q-21 0 -36.5 -15.5t-15.5 -36.5q0 -18 12 -29.5t31 -11.5z" />
    <glyph glyph-name="ogonek" unicode="&#x2db;" horiz-adv-x="526" 
d="M62 -116q0 70 94 116h69q-94 -55 -94 -100q0 -17 12.5 -28.5t33.5 -11.5q30 0 53 10l-25 -58q-17 -10 -46 -10q-43 0 -70 23t-27 59z" />
    <glyph glyph-name="tilde" unicode="&#x2dc;" horiz-adv-x="582" 
d="M247 616l-52 4q12 42 41 67t68 25q27 0 59 -20q32 -19 50 -19q33 0 50 41l52 -4q-29 -98 -111 -98q-29 0 -61 19q-34 20 -50 20q-32 0 -46 -35z" />
    <glyph glyph-name="hungarumlaut" unicode="&#x2dd;" horiz-adv-x="585" 
d="M413 552h-59l93 145h99zM259 552h-59l93 145h99z" />
    <glyph glyph-name="mu" unicode="&#x3bc;" horiz-adv-x="525" 
d="M64 49l-49 -242h-74l142 697h74l-62 -302q-3 -22 -3 -39q0 -49 31.5 -77.5t90.5 -28.5q58 0 96.5 34t54.5 93l67 320h74l-66 -320q-11 -38 -13 -43q-7 -19 -24 -49q-19 -33 -42 -52q-60 -52 -158 -52q-97 0 -139 61z" />
    <glyph glyph-name="pi" unicode="&#x3c0;" horiz-adv-x="585" 
d="M108 0h-85q113 170 168 435h-3q-68 0 -108 -54l-53 35q29 40 77 63.5t96 23.5h399l-29 -68h-73l-66 -321q-2 -14 -2 -16q0 -32 38 -32l-14 -68h-1q-45 0 -71 24t-26 66q0 16 3 32l65 315h-153q-27 -125 -68 -237q-44 -120 -94 -198z" />
    <glyph glyph-name="Wgrave" unicode="&#x1e80;" horiz-adv-x="920" 
d="M208 0h-50l-62 697h76l47 -530l283 530h54l63 -529l262 529h81l-346 -697h-50l-65 543zM567 745h-59l-63 145h99z" />
    <glyph glyph-name="wgrave" unicode="&#x1e81;" horiz-adv-x="746" 
d="M175 0h-49l-79 504h72l55 -370l205 370h52l48 -366l205 366h79l-285 -504h-49l-50 367zM449 552h-59l-63 145h99z" />
    <glyph glyph-name="Wacute" unicode="&#x1e82;" horiz-adv-x="920" 
d="M208 0h-50l-62 697h76l47 -530l283 530h54l63 -529l262 529h81l-346 -697h-50l-65 543zM557 745h-62l83 145h102z" />
    <glyph glyph-name="wacute" unicode="&#x1e83;" horiz-adv-x="746" 
d="M175 0h-49l-79 504h72l55 -370l205 370h52l48 -366l205 366h79l-285 -504h-49l-50 367zM427 552h-62l83 145h102z" />
    <glyph glyph-name="Wdieresis" unicode="&#x1e84;" horiz-adv-x="920" 
d="M646 744q-20 0 -33 12.5t-13 31.5q0 22 16.5 39t38.5 17q21 0 34 -12.5t13 -32.5q0 -22 -16 -38.5t-40 -16.5zM440 744q-20 0 -33 12.5t-13 31.5q0 22 16.5 39t38.5 17q21 0 34 -12.5t13 -32.5q0 -22 -16 -38.5t-40 -16.5zM208 0h-50l-62 697h76l47 -530l283 530h54
l63 -529l262 529h81l-346 -697h-50l-65 543z" />
    <glyph glyph-name="wdieresis" unicode="&#x1e85;" horiz-adv-x="746" 
d="M527 586q-20 0 -33 12.5t-13 31.5q0 22 16.5 39t38.5 17q21 0 34 -12.5t13 -32.5q0 -22 -16 -38.5t-40 -16.5zM321 586q-20 0 -33 12.5t-13 31.5q0 22 16.5 39t38.5 17q21 0 34 -12.5t13 -32.5q0 -22 -16 -38.5t-40 -16.5zM175 0h-49l-79 504h72l55 -370l205 370h52
l48 -366l205 366h79l-285 -504h-49l-50 367z" />
    <glyph glyph-name="Ygrave" unicode="&#x1ef2;" horiz-adv-x="612" 
d="M271 0h-79l57 282l-162 415h82l133 -339l261 339h92l-329 -426zM413 745h-59l-63 145h99z" />
    <glyph glyph-name="ygrave" unicode="&#x1ef3;" horiz-adv-x="504" 
d="M94 -83l49 86l-96 501h74l78 -411l240 411h82l-348 -590q-39 -67 -73 -95t-86 -28q-38 0 -62 11l14 66q21 -8 49 -8q27 0 44 13t35 44zM328 552h-59l-63 145h99z" />
    <glyph glyph-name="endash" unicode="&#x2013;" horiz-adv-x="456" 
d="M391 229h-374l14 69h374z" />
    <glyph glyph-name="emdash" unicode="&#x2014;" horiz-adv-x="720" 
d="M655 229h-638l14 69h638z" />
    <glyph glyph-name="quoteleft" unicode="&#x2018;" horiz-adv-x="179" 
d="M123 445h-99l182 252h63z" />
    <glyph glyph-name="quoteright" unicode="&#x2019;" horiz-adv-x="187" 
d="M79 445h-63l146 252h99z" />
    <glyph glyph-name="quotesinglbase" unicode="&#x201a;" horiz-adv-x="187" 
d="M-133 -128l139 239h99l-175 -239h-63z" />
    <glyph glyph-name="quotedblleft" unicode="&#x201c;" horiz-adv-x="345" 
d="M289 445h-99l182 252h63zM123 445h-99l182 252h63z" />
    <glyph glyph-name="quotedblright" unicode="&#x201d;" horiz-adv-x="353" 
d="M245 445h-63l146 252h99zM79 445h-63l146 252h99z" />
    <glyph glyph-name="quotedblbase" unicode="&#x201e;" horiz-adv-x="341" 
d="M96 -128h-63l139 239h99zM-133 -128l139 239h99l-175 -239h-63z" />
    <glyph glyph-name="dagger" unicode="&#x2020;" horiz-adv-x="288" 
d="M169 301h-70l54 239l-82 -3l13 65l79 -3l17 98h70l-23 -98l79 3l-13 -65l-80 3z" />
    <glyph glyph-name="daggerdbl" unicode="&#x2021;" horiz-adv-x="288" 
d="M169 301h-70l23 98l-79 -3l13 65l80 -3l17 82l-82 -3l13 65l79 -3l17 98h70l-23 -98l79 3l-13 -65l-80 3l-17 -82l82 3l-13 -65l-79 3z" />
    <glyph glyph-name="bullet" unicode="&#x2022;" horiz-adv-x="262" 
d="M104 172q-34 0 -55 20t-21 52q0 37 26.5 64.5t63.5 27.5q34 0 55.5 -21t21.5 -53q0 -36 -26.5 -63t-64.5 -27z" />
    <glyph glyph-name="ellipsis" unicode="&#x2026;" horiz-adv-x="544" 
d="M337 37q0 22 16.5 39t38.5 17q21 0 34 -12.5t13 -32.5q0 -22 -16 -38.5t-40 -16.5q-20 0 -33 12.5t-13 31.5zM159 37q0 22 16.5 39t38.5 17q21 0 34 -12.5t13 -32.5q0 -22 -16 -38.5t-40 -16.5q-20 0 -33 12.5t-13 31.5zM-19 37q0 22 16.5 39t38.5 17q21 0 34 -12.5
t13 -32.5q0 -22 -16 -38.5t-40 -16.5q-20 0 -33 12.5t-13 31.5z" />
    <glyph glyph-name="perthousand" unicode="&#x2030;" horiz-adv-x="1113" 
d="M220 400q-64 0 -104.5 38.5t-40.5 98.5q0 69 51 122t122 53q64 0 105 -39.5t41 -100.5q0 -67 -50 -120q-49 -52 -124 -52zM115 0h-87l593 697h87zM226 461q42 0 71 32q30 31 30 73q0 37 -23 61t-61 24q-43 0 -71 -33q-29 -32 -29 -74q0 -36 23 -59.5t60 -23.5zM719 122
q0 70 51 122q51 53 122 53q64 0 105 -39.5t41 -100.5q0 -67 -50 -120q-49 -52 -124 -52q-64 0 -104.5 38.5t-40.5 98.5zM339 122q0 70 51 122q51 53 122 53q64 0 105 -39.5t41 -100.5q0 -67 -50 -120q-49 -52 -124 -52q-64 0 -104.5 38.5t-40.5 98.5zM787 129
q0 -36 23 -59.5t60 -23.5q42 0 71 32q30 31 30 73q0 37 -23 61t-61 24q-43 0 -71 -33q-29 -32 -29 -74zM407 129q0 -36 23 -59.5t60 -23.5q42 0 71 32q30 32 30 73q0 37 -23 61t-61 24q-43 0 -71 -33q-29 -32 -29 -74z" />
    <glyph glyph-name="guilsinglleft" unicode="&#x2039;" horiz-adv-x="260" 
d="M170 78h-80l-75 175l146 175h92l-154 -184z" />
    <glyph glyph-name="guilsinglright" unicode="&#x203a;" horiz-adv-x="260" 
d="M59 78h-92l154 184l-71 166h80l75 -175z" />
    <glyph glyph-name="fraction" unicode="&#x2044;" horiz-adv-x="486" 
d="M578 697l-593 -697h-77l593 697h77z" />
    <glyph glyph-name="zerosuperior" unicode="&#x2070;" horiz-adv-x="359" 
d="M185 320q-51 0 -83.5 29t-32.5 74q0 18 13 80q8 40 20 87q10 51 48 83t92 32q49 0 81.5 -29t32.5 -73q0 -22 -13 -81q-16 -78 -19 -87q-10 -35 -32 -69q-32 -46 -107 -46zM190 377q57 0 74 62q3 8 19 83q11 55 11 73q0 23 -15.5 38t-40.5 15q-26 0 -47 -17.5t-29 -44.5
l-19 -84q-13 -59 -13 -76q0 -49 60 -49z" />
    <glyph glyph-name="foursuperior" unicode="&#x2074;" horiz-adv-x="349" 
d="M245 401h-204l8 39l180 257h63l-170 -242h134l15 74h57l-41 -201h-57z" />
    <glyph glyph-name="fivesuperior" unicode="&#x2075;" horiz-adv-x="332" 
d="M33 395l52 24q21 -45 78 -45q38 0 65.5 26t27.5 60q0 32 -20 52t-53 20q-30 0 -53 -17l-39 13l65 169h180l-11 -53h-131l-24 -62q7 4 23 4q52 0 85 -33.5t33 -89.5q0 -59 -44 -101q-43 -42 -110 -42q-40 0 -74 20.5t-50 54.5z" />
    <glyph glyph-name="sixsuperior" unicode="&#x2076;" horiz-adv-x="353" 
d="M186 320q-54 0 -88.5 34.5t-34.5 87.5q4 46 28 79l19 23q4 5 27 28l29 31l89 94h69l-113 -121h3q51 -1 83.5 -33.5t32.5 -81.5q0 -56 -41 -99q-41 -42 -103 -42zM190 374q35 0 59.5 24t24.5 57q0 30 -19.5 49.5t-52.5 19.5t-56.5 -24.5t-23.5 -56.5q0 -30 19 -49.5
t49 -19.5z" />
    <glyph glyph-name="sevensuperior" unicode="&#x2077;" horiz-adv-x="341" 
d="M142 328h-63l221 316h-189l11 53h265l-5 -26z" />
    <glyph glyph-name="eightsuperior" unicode="&#x2078;" horiz-adv-x="356" 
d="M187 320q-54 0 -87.5 32t-33.5 82q0 39 23 70t59 42q-19 19 -19 54q0 42 31 73q32 32 78 32q42 0 68 -26.5t26 -66.5q0 -52 -44 -78q40 -27 40 -74q0 -42 -25 -84q-33 -56 -116 -56zM225 558q19 0 34 15.5t15 35.5q0 18 -11 30t-29 12q-21 0 -34.5 -15t-13.5 -36
q0 -18 10.5 -30t28.5 -12zM192 374q33 0 55 23.5t22 57.5q0 26 -18.5 41.5t-49.5 15.5t-53.5 -22t-22.5 -51q0 -28 18.5 -46.5t48.5 -18.5z" />
    <glyph glyph-name="ninesuperior" unicode="&#x2079;" horiz-adv-x="358" 
d="M165 328h-70l122 129h-6q-50 0 -82.5 31t-32.5 79q0 60 40 99t100 39q53 0 86.5 -31.5t33.5 -81.5q0 -39 -15 -66t-57 -72zM220 508q37 0 58.5 22t21.5 57q0 28 -19 46.5t-49 18.5q-34 0 -57 -22.5t-23 -56.5q0 -29 18.5 -47t49.5 -18z" />
    <glyph glyph-name="zero.inferior" unicode="&#x2080;" horiz-adv-x="359" 
d="M120 -8q-51 0 -83.5 29t-32.5 74q0 18 13 80q8 40 20 87q10 51 48 83t92 32q49 0 81.5 -29t32.5 -73q0 -22 -13 -81q-16 -78 -19 -87q-10 -35 -32 -69q-32 -46 -107 -46zM125 49q57 0 74 62q3 8 19 83q11 55 11 73q0 23 -15.5 38t-40.5 15q-26 0 -47 -17.5t-29 -44.5
l-19 -84q-13 -59 -13 -76q0 -49 60 -49z" />
    <glyph glyph-name="one.inferior" unicode="&#x2081;" horiz-adv-x="222" 
d="M74 0h-57l64 316h-48l11 53h105z" />
    <glyph glyph-name="two.inferior" unicode="&#x2082;" horiz-adv-x="325" 
d="M216 0h-243l8 40l189 177q36 35 36 57t-14 35.5t-38 13.5q-43 0 -59 -55h-56q10 51 41 80t80 29q46 0 75 -28t29 -71q0 -49 -54 -95l-141 -130h158z" />
    <glyph glyph-name="three.inferior" unicode="&#x2083;" horiz-adv-x="346" 
d="M-29 91l51 18q20 -63 89 -63q38 0 65 24t27 55q0 30 -24.5 49t-65.5 19q-23 0 -38 -5l-15 26l122 102h-128l11 53h224l-7 -33l-125 -99q7 0 10 -1q42 -7 67 -36.5t25 -70.5q0 -57 -43 -97t-111 -40q-50 0 -86 27t-48 72z" />
    <glyph glyph-name="four.inferior" unicode="&#x2084;" horiz-adv-x="349" 
d="M178 73h-204l8 39l180 257h63l-170 -242h134l15 74h57l-41 -201h-57z" />
    <glyph glyph-name="five.inferior" unicode="&#x2085;" horiz-adv-x="332" 
d="M-34 67l52 24q21 -45 78 -45q38 0 65.5 26t27.5 60q0 32 -19.5 52t-53.5 20q-30 0 -53 -17l-39 13l65 169h180l-11 -53h-131l-24 -62q7 4 23 4q52 0 85 -33.5t33 -89.5q0 -59 -44 -101t-110 -42q-40 0 -74 20.5t-50 54.5z" />
    <glyph glyph-name="six.inferior" unicode="&#x2086;" horiz-adv-x="353" 
d="M-3 114q4 46 28 79l19 23q4 5 27 28l29 31l89 94h69l-113 -121h3q51 -1 83.5 -33.5t32.5 -81.5q0 -56 -41 -99q-41 -42 -103 -42q-54 0 -88.5 34.5t-34.5 87.5zM56 115q0 -30 19 -49.5t49 -19.5q35 0 59.5 24t24.5 57q0 30 -19.5 49.5t-52.5 19.5t-56.5 -24.5
t-23.5 -56.5z" />
    <glyph glyph-name="seven.inferior" unicode="&#x2087;" horiz-adv-x="341" 
d="M75 0h-63l221 316h-189l11 53h265l-5 -26z" />
    <glyph glyph-name="eight.inferior" unicode="&#x2088;" horiz-adv-x="356" 
d="M0 106q0 39 23 70t59 42q-19 19 -19 54q0 42 31 73q32 32 78 32q42 0 68 -26.5t26 -66.5q0 -52 -44 -78q40 -27 40 -74q0 -42 -25 -84q-33 -56 -116 -56q-54 0 -87.5 32t-33.5 82zM159 230q19 0 34 15.5t15 35.5q0 18 -11 30t-29 12q-21 0 -34.5 -15t-13.5 -36
q0 -18 10.5 -30t28.5 -12zM126 46q33 0 55 23.5t22 57.5q0 26 -18.5 41.5t-49.5 15.5t-53.5 -22t-22.5 -51q0 -28 18.5 -46.5t48.5 -18.5z" />
    <glyph glyph-name="nine.inferior" unicode="&#x2089;" horiz-adv-x="346" 
d="M92 0h-70l122 129h-6q-50 0 -82.5 31t-32.5 79q0 60 40 99q41 39 100 39q53 0 86.5 -31.5t33.5 -81.5q0 -39 -15 -66t-57 -72zM147 180q37 0 58.5 22t21.5 57q0 28 -19 46.5t-49 18.5q-34 0 -57 -22.5t-23 -56.5q0 -29 18.5 -47t49.5 -18z" />
    <glyph glyph-name="Euro" unicode="&#x20ac;" horiz-adv-x="745" 
d="M112 240h-126l44 69h78v1q0 39 11 85h-81l44 69h56q44 108 135 177t204 69q86 0 155.5 -34.5t112.5 -97.5l-61 -48q-69 108 -211 108q-79 0 -144.5 -47.5t-103.5 -126.5h284l-44 -69h-263q-12 -35 -12 -84v-2h224l-44 -69h-174q19 -84 78 -133t145 -49q117 0 202 90
l48 -53q-106 -109 -257 -109q-117 0 -199 70q-82 71 -101 184z" />
    <glyph glyph-name="uni2113" unicode="&#x2113;" horiz-adv-x="470" 
d="M-17 118l-16 50q66 40 95 60l56 281q21 107 66.5 155t116.5 48q54 0 88 -36.5t34 -92.5q0 -95 -71 -184t-223 -201q-7 -22 -7 -49q0 -96 93 -96q71 0 145 95l35 -42q-50 -65 -96.5 -93t-107.5 -28q-62 0 -102 39.5t-40 101.5q0 22 4 34q-13 -9 -70 -42zM196 526l-51 -244
q103 86 153.5 157t50.5 138q0 29 -16 47.5t-43 18.5q-32 0 -57.5 -30.5t-36.5 -86.5z" />
    <glyph glyph-name="uni2116" unicode="&#x2116;" horiz-adv-x="1174" 
d="M749 459q0 88 64 153q64 67 155 67q81 0 133 -50q52 -49 52 -127q0 -86 -64 -151q-65 -66 -157 -66q-81 0 -132 48q-51 49 -51 126zM824 466q0 -49 32 -80.5t83 -31.5q58 0 98 43q41 44 41 99q0 50 -32 82t-83 32q-58 0 -99 -44q-40 -43 -40 -100zM1073 145h-375l14 69
h375zM99 0h-78l142 697h63l273 -555l112 555h78l-142 -697h-58l-277 558z" />
    <glyph glyph-name="trademark" unicode="&#x2122;" horiz-adv-x="842" 
d="M449 326h-75l76 372h11l142 -209l244 209h7l-76 -372h-75l41 196l-155 -134l-98 145zM210 326h-75l61 299h-118l15 72h311l-15 -72h-118z" />
    <glyph glyph-name="Omega" unicode="&#x2126;" horiz-adv-x="780" 
d="M272 0h-282l15 72h118q-83 94 -83 245q0 156 112 274q113 119 269 119q141 0 232 -89q90 -88 90 -226q0 -93 -45.5 -179.5t-123.5 -143.5h89l-15 -72h-282q43 25 52 30q26 15 54 35q40 27 58 44q71 68 93 114q39 80 39 160q0 112 -68 183q-68 72 -178 72
q-124 0 -213 -101q-88 -100 -88 -230q0 -100 49 -182q48 -81 108 -125z" />
    <glyph glyph-name="estimated" unicode="&#x212e;" horiz-adv-x="909" 
d="M202 359l-52 -257q90 -93 236 -93q86 0 169 33.5t147 93.5h30q-70 -69 -163 -108.5t-188 -39.5q-148 0 -244 93t-96 230q0 115 71 218q70 102 185 163q115 60 239 60q149 0 244 -89q96 -89 96 -222q0 -37 -9 -82h-665zM259 637l-53 -257h508l53 259q-91 91 -234 91
q-147 0 -274 -93z" />
    <glyph glyph-name="onethird" unicode="&#x2153;" horiz-adv-x="745" 
d="M81 0h-74l532 697h74zM161 328h-57l64 316h-48l11 53h105zM359 91l51 18q20 -63 89 -63q38 0 65 24t27 55q0 30 -24.5 49t-65.5 19q-23 0 -38 -5l-15 26l122 102h-128l11 53h224l-7 -33l-125 -99q7 0 10 -1q42 -7 67 -36.5t25 -70.5q0 -57 -43 -97t-111 -40q-50 0 -86 27
t-48 72z" />
    <glyph glyph-name="twothirds" unicode="&#x2154;" horiz-adv-x="808" 
d="M179 0h-74l532 697h74zM422 91l51 18q19 -63 89 -63q38 0 65 24t27 55q0 30 -24.5 49t-65.5 19q-23 0 -38 -5l-15 26l122 102h-128l11 53h224l-7 -33l-125 -99q7 0 10 -1q42 -7 67 -36.5t25 -70.5q0 -57 -43 -97t-111 -40q-50 0 -86 27t-48 72zM303 328h-243l8 40
l189 177q36 35 36 57t-14 35.5t-38 13.5q-43 0 -59 -55h-56q10 51 41 80t80 29q46 0 75 -28t29 -71q0 -48 -54 -95l-141 -130h158z" />
    <glyph glyph-name="arrowleft" unicode="&#x2190;" horiz-adv-x="627" 
d="M245 76l-57 -47l-185 231l279 231l44 -55l-168 -140h431l-14 -72h-449z" />
    <glyph glyph-name="arrowup" unicode="&#x2191;" horiz-adv-x="647" 
d="M290 0h-76l84 414l-150 -126l-44 55l262 219l174 -219l-56 -47l-107 134z" />
    <glyph glyph-name="arrowright" unicode="&#x2192;" horiz-adv-x="627" 
d="M432 224h-431l14 72h449l-119 148l57 47l185 -231l-279 -231l-44 55z" />
    <glyph glyph-name="arrowdown" unicode="&#x2193;" horiz-adv-x="647" 
d="M243 -42l-174 219l56 47l107 -134l84 414h76l-81 -398l150 126l44 -55z" />
    <glyph glyph-name="arrowboth" unicode="&#x2194;" horiz-adv-x="895" 
d="M245 76l-57 -47l-185 231l279 231l44 -55l-168 -140h574l-119 148l57 47l185 -231l-279 -231l-44 55l168 140h-574z" />
    <glyph glyph-name="arrowupdn" unicode="&#x2195;" horiz-adv-x="647" 
d="M237 -74l-157 198l56 47l90 -113l84 414l-125 -105l-44 55l237 198l157 -198l-56 -47l-90 113l-84 -414l125 105l44 -55z" />
    <glyph glyph-name="arrownorthwest" unicode="&#x2196;" horiz-adv-x="647" 
d="M152 137h-76l67 328h328l-15 -74h-206l245 -308l-57 -48l-243 306z" />
    <glyph glyph-name="arrownortheast" unicode="&#x2197;" horiz-adv-x="647" 
d="M446 328l-361 -298l-46 58l367 303h-197l15 74h328l-67 -328h-78z" />
    <glyph glyph-name="arrowsoutheast" unicode="&#x2198;" horiz-adv-x="647" 
d="M467 48h-328l15 74h206l-245 308l57 48l243 -306l43 204h76z" />
    <glyph glyph-name="arrowsouthwest" unicode="&#x2199;" horiz-adv-x="647" 
d="M386 48h-328l67 328h78l-39 -191l361 298l46 -58l-367 -303h197z" />
    <glyph glyph-name="partialdiff" unicode="&#x2202;" horiz-adv-x="507" 
d="M1 177q0 105 71 185q72 80 171 80q51 0 90.5 -23t57.5 -62v-1q14 45 14 90q0 85 -37 140q-36 56 -96 56q-46 0 -89 -43l-43 46q63 67 137 67q90 0 145 -73q57 -72 57 -185q0 -103 -58 -253q-40 -104 -103 -160t-144 -56q-76 0 -125 54q-48 54 -48 138zM75 177
q0 -54 29 -87.5t76 -33.5q72 0 121 64q50 65 50 147q0 45 -34 76t-80 31q-69 0 -115 -60q-47 -61 -47 -137z" />
    <glyph glyph-name="increment" unicode="&#x2206;" horiz-adv-x="623" 
d="M510 0h-538l10 47l373 650h55l110 -650zM360 561l-280 -489h362z" />
    <glyph glyph-name="product" unicode="&#x220f;" horiz-adv-x="655" 
d="M139 0h-76l128 628h-103l14 69h593l-14 -69h-103l-128 -628h-76l128 628h-235z" />
    <glyph glyph-name="summation" unicode="&#x2211;" horiz-adv-x="572" 
d="M449 0h-457l11 54l285 318l-149 272l11 53h430l-15 -72h-333l145 -264l-258 -289h345z" />
    <glyph glyph-name="minus" unicode="&#x2212;" horiz-adv-x="384" 
d="M335 313h-300l14 69h300z" />
    <glyph glyph-name="radical" unicode="&#x221a;" horiz-adv-x="712" 
d="M149 338l-98 -38l-14 59l165 64l87 -387l401 763h79l-467 -886h-58z" />
    <glyph glyph-name="infinity" unicode="&#x221e;" horiz-adv-x="790" 
d="M192 174q-67 0 -109.5 38.5t-42.5 98.5q0 69 54 121q55 52 130 52q96 0 174 -105q15 14 44 40q11 10 41 31q49 34 106 34q67 0 109.5 -39t42.5 -99q0 -68 -54 -120q-53 -52 -133 -52q-88 0 -168 101q-10 -8 -23.5 -20t-22.5 -19.5l-15 -12.5q-24 -19 -61 -34t-72 -15z
M440 325q61 -81 124 -81q41 0 69 28q29 29 29 66q0 33 -23 55t-61 22q-30 0 -58 -21l-25 -19q-4 -3 -29 -26q-13 -11 -26 -24zM205 244q28 0 58 21l25 18q19 16 30 26l27 24q-27 37 -61 59.5t-65 22.5q-43 0 -71 -30q-28 -28 -28 -67q0 -33 23 -53.5t62 -20.5z" />
    <glyph glyph-name="integral" unicode="&#x222b;" horiz-adv-x="316" 
d="M-17 -37q41 0 63 39t42 134q11 57 32 191q25 157 40 226q26 127 71 181.5t118 54.5q20 0 36 -4l-13 -61q-18 3 -30 3q-46 0 -72 -57q-22 -51 -37 -123q-13 -61 -39 -223l-33 -201q-24 -127 -67 -175q-44 -50 -116 -50q-26 0 -48 9l13 61q18 -5 40 -5z" />
    <glyph glyph-name="approxequal" unicode="&#x2248;" horiz-adv-x="424" 
d="M82 374l-48 4q13 41 45.5 66.5t73.5 25.5q35 0 81 -20q44 -19 68 -19q41 0 64 41l48 -4q-33 -98 -122 -98q-39 0 -83 19q-45 20 -67 20q-43 0 -60 -35zM61 239l-49 4q14 42 46 67t73 25q35 0 81 -20q44 -19 68 -19q42 0 65 41l48 -4q-33 -98 -122 -98q-39 0 -83 19
q-45 20 -67 20q-43 0 -60 -35z" />
    <glyph glyph-name="notequal" unicode="&#x2260;" horiz-adv-x="426" 
d="M163 238l-93 -117l-50 33l66 84h-67l14 69h108l75 95h-163l14 69h204l86 109l50 -33l-60 -76h62l-14 -69h-103l-75 -95h158l-14 -69h-198z" />
    <glyph glyph-name="lessequal" unicode="&#x2264;" horiz-adv-x="414" 
d="M291 0h-342l14 69h342zM318 134l-277 195l11 54l357 196l-18 -89l-258 -139l201 -141z" />
    <glyph glyph-name="greaterequal" unicode="&#x2265;" horiz-adv-x="414" 
d="M323 0h-342l14 69h342zM364 330l-357 -196l18 89l258 139l-201 141l16 76l277 -195z" />
    <glyph glyph-name="triagup" unicode="&#x25b2;" horiz-adv-x="539" 
d="M410 132h-369l243 315z" />
    <glyph glyph-name="triagrt" unicode="&#x25ba;" horiz-adv-x="539" 
d="M434 264l-354 -190l75 369z" />
    <glyph glyph-name="triagdn" unicode="&#x25bc;" horiz-adv-x="539" 
d="M462 387l-254 -315l-115 315h369z" />
    <glyph glyph-name="triaglf" unicode="&#x25c4;" horiz-adv-x="539" 
d="M347 74l-276 190l351 179z" />
    <glyph glyph-name="lozenge" unicode="&#x25ca;" horiz-adv-x="532" 
d="M216 0h-42l-139 349l286 348h31l145 -348zM119 337l91 -229l202 252l-91 222z" />
    <glyph glyph-name="uni25E2" unicode="&#x25e2;" horiz-adv-x="539" 
d="M382 100l-339 88l314 261z" />
    <glyph glyph-name="uni25E3" unicode="&#x25e3;" horiz-adv-x="539" 
d="M430 188l-375 -88l167 349z" />
    <glyph glyph-name="uni25E4" unicode="&#x25e4;" horiz-adv-x="539" 
d="M459 330l-314 -261l-25 349z" />
    <glyph glyph-name="uni25E5" unicode="&#x25e5;" horiz-adv-x="539" 
d="M447 418l-161 -357l-207 261z" />
    <glyph glyph-name="fi" unicode="&#xfb01;" horiz-adv-x="500" 
d="M115 0h-74l89 435h-81l14 69h81l15 75q13 64 59.5 98.5t117.5 34.5q42 0 70 -5l-14 -68q-18 3 -67 3q-75 0 -95 -77l-12 -61h234l-82 -401q-3 -13 -3 -24q0 -29 31 -29q8 0 26 2l-12 -57q-13 -7 -39 -7q-38 0 -61.5 21t-23.5 55q0 14 4 31l70 340h-158z" />
    <glyph glyph-name="fl" unicode="&#xfb02;" horiz-adv-x="578" 
d="M115 0h-74l89 435h-81l14 69h81l15 75q13 64 55.5 98.5t106.5 34.5q33 0 55 -5l-14 -68q-13 3 -52 3q-63 0 -80 -77l-12 -61h95l-14 -69h-95zM322 98q0 19 6 49l112 550h76l-113 -555q-4 -17 -4 -31q0 -24 15.5 -38.5t44.5 -14.5q13 0 27 3l-14 -68q-9 -4 -29 -4
q-56 0 -88.5 30t-32.5 79z" />
    <glyph glyph-name="ffi" unicode="&#xfb03;" horiz-adv-x="734" 
d="M115 0h-74l89 435h-81l14 69h81l15 75q13 64 55.5 98.5t106.5 34.5q33 0 55 -5l-14 -68q-13 3 -52 3q-63 0 -80 -77l-12 -61h160l15 75q13 64 59.5 98.5t117.5 34.5q42 0 70 -5l-14 -68q-18 3 -67 3q-75 0 -95 -77l-12 -61h234l-82 -401q-3 -13 -3 -24q0 -29 31 -29
q8 0 26 2l-12 -57q-13 -7 -39 -7q-38 0 -61.5 21t-23.5 55q0 14 4 31l70 340h-158l-89 -435h-74l89 435h-160z" />
    <glyph glyph-name="ffl" unicode="&#xfb04;" horiz-adv-x="802" 
d="M115 0h-74l89 435h-81l14 69h81l15 75q13 64 55.5 98.5t106.5 34.5q33 0 55 -5l-14 -68q-13 3 -52 3q-63 0 -80 -77l-12 -61h160l15 75q13 64 55.5 98.5t106.5 34.5q33 0 55 -5l-14 -68q-13 3 -52 3q-63 0 -80 -77l-12 -61h95l-14 -69h-95l-89 -435h-74l89 435h-160z
M546 98q0 19 6 49l112 550h76l-113 -555q-4 -17 -4 -31q0 -24 15.5 -38.5t44.5 -14.5q13 0 27 3l-14 -68q-9 -4 -29 -4q-56 0 -88.5 30t-32.5 79z" />
    <glyph glyph-name="NULL" horiz-adv-x="0" 
 />
    <glyph glyph-name="CR" horiz-adv-x="333" 
 />
    <glyph glyph-name="CR.001" horiz-adv-x="0" 
 />
    <glyph glyph-name="space.frac" horiz-adv-x="30" 
 />
    <glyph glyph-name="a.alt" horiz-adv-x="615" 
d="M9 221q0 120 87 208q88 90 209 90q72 0 124.5 -27t72.5 -64l16 76h76l-103 -504h-76l15 74q-54 -86 -179 -86q-107 0 -175 65q-67 66 -67 168zM85 225q0 -75 47 -122t125 -47q92 0 157 65q66 65 66 174q0 69 -50.5 112t-131.5 43q-90 0 -151 -69q-62 -68 -62 -156z" />
    <glyph glyph-name="d.alt" horiz-adv-x="614" 
d="M9 221q0 120 87 208q88 90 209 90q72 0 124.5 -27t72.5 -64l56 269h76l-143 -697h-76l15 74q-54 -86 -179 -86q-107 0 -175 65q-67 66 -67 168zM85 225q0 -75 47 -122t125 -47q92 0 157 65q66 65 66 174q0 69 -50.5 112t-131.5 43q-90 0 -151 -69q-62 -68 -62 -156z" />
    <glyph glyph-name="h.alt" horiz-adv-x="524" 
d="M62 0h-76l142 697h76l-56 -271q52 86 155 86q77 0 120 -44t43 -121q0 -22 -5 -50l-61 -297h-76l59 293q4 25 4 40q0 52 -28 81t-80 29q-58 0 -103 -45q-43 -43 -57 -112z" />
    <glyph glyph-name="i.alt" horiz-adv-x="192" 
d="M149 588q-20 0 -33 12.5t-13 31.5q0 22 16.5 39t38.5 17q21 0 34 -12.5t13 -32.5q0 -22 -16 -38.5t-40 -16.5zM63 0h-76l103 504h76z" />
    <glyph glyph-name="l.alt" horiz-adv-x="192" 
d="M63 0h-76l142 697h76z" />
    <glyph glyph-name="m.alt" horiz-adv-x="802" 
d="M62 0h-76l103 504h76l-15 -75q47 83 133 83q110 0 140 -91q24 44 70.5 67.5t104.5 23.5q71 0 111 -42.5t40 -117.5q0 -23 -4 -46l-65 -306h-76l63 305q3 18 3 38q0 47 -26 73.5t-74 26.5q-50 0 -87.5 -32t-48.5 -83l-66 -328h-76l63 309q3 18 3 36q0 46 -25.5 72
t-72.5 26q-50 0 -87.5 -37.5t-48.5 -95.5z" />
    <glyph glyph-name="n.alt" horiz-adv-x="532" 
d="M60 0h-74l102 504h74l-16 -78q54 86 158 86q83 0 129.5 -47t46.5 -129q0 -26 -5 -54l-58 -282h-77l57 280q4 17 4 44q0 56 -31 87.5t-88 31.5q-60 0 -105.5 -44t-59.5 -113z" />
    <glyph glyph-name="r.alt" horiz-adv-x="346" 
d="M62 0h-76l77 377q14 68 62 105t120 37q63 0 87 -10l-13 -68q-25 9 -78 9q-87 0 -105 -89z" />
    <glyph glyph-name="t.alt" horiz-adv-x="308" 
d="M98 0h-76l89 435h-63l14 69h63l39 193h76l-39 -193h111l-14 -69h-111z" />
    <glyph glyph-name="u.alt" horiz-adv-x="525" 
d="M15 160q0 18 8 63l57 281h77l-60 -298q-5 -25 -5 -47q0 -44 33 -73t92 -29q56 0 96 34.5t54 101.5l64 311h75l-65 -323q-19 -97 -80.5 -145t-149.5 -48q-90 0 -143 49q-53 50 -53 123z" />
    <glyph glyph-name="y.alt" horiz-adv-x="520" 
d="M17 -193l126 201l-96 496h75l77 -408l255 408h83l-438 -697h-82z" />
    <glyph glyph-name="agrave.alt" horiz-adv-x="615" 
d="M9 221q0 120 87 208q88 90 209 90q72 0 124.5 -27t72.5 -64l16 76h76l-103 -504h-76l15 74q-54 -86 -179 -86q-107 0 -175 65q-67 66 -67 168zM85 225q0 -75 47 -122t125 -47q92 0 157 65q66 65 66 174q0 69 -50.5 112t-131.5 43q-90 0 -151 -69q-62 -68 -62 -156z
M366 552h-59l-63 145h99z" />
    <glyph glyph-name="aacute.alt" horiz-adv-x="615" 
d="M9 221q0 120 87 208q88 90 209 90q72 0 124.5 -27t72.5 -64l16 76h76l-103 -504h-76l15 74q-54 -86 -179 -86q-107 0 -175 65q-67 66 -67 168zM85 225q0 -75 47 -122t125 -47q92 0 157 65q66 65 66 174q0 69 -50.5 112t-131.5 43q-90 0 -151 -69q-62 -68 -62 -156z
M352 552h-62l83 145h102z" />
    <glyph glyph-name="acircumflex.alt" horiz-adv-x="615" 
d="M9 221q0 120 87 208q88 90 209 90q72 0 124.5 -27t72.5 -64l16 76h76l-103 -504h-76l15 74q-54 -86 -179 -86q-107 0 -175 65q-67 66 -67 168zM85 225q0 -75 47 -122t125 -47q92 0 157 65q66 65 66 174q0 69 -50.5 112t-131.5 43q-90 0 -151 -69q-62 -68 -62 -156z
M268 576h-94l147 121h88l97 -121h-84l-59 81z" />
    <glyph glyph-name="atilde.alt" horiz-adv-x="615" 
d="M9 221q0 120 87 208q88 90 209 90q72 0 124.5 -27t72.5 -64l16 76h76l-103 -504h-76l15 74q-54 -86 -179 -86q-107 0 -175 65q-67 66 -67 168zM85 225q0 -75 47 -122t125 -47q92 0 157 65q66 65 66 174q0 69 -50.5 112t-131.5 43q-90 0 -151 -69q-62 -68 -62 -156z
M246 594l-52 4q12 42 41 67t68 25q27 0 59 -20q32 -19 50 -19q33 0 50 41l52 -4q-29 -98 -111 -98q-29 0 -61 19q-34 20 -50 20q-32 0 -46 -35z" />
    <glyph glyph-name="adieresis.alt" horiz-adv-x="615" 
d="M447 586q-20 0 -33 12.5t-13 31.5q0 22 16.5 39t38.5 17q21 0 34 -12.5t13 -32.5q0 -22 -16 -38.5t-40 -16.5zM241 586q-20 0 -33 12.5t-13 31.5q0 22 16.5 39t38.5 17q21 0 34 -12.5t13 -32.5q0 -22 -16 -38.5t-40 -16.5zM9 221q0 120 87 208q88 90 209 90
q72 0 124.5 -27t72.5 -64l16 76h76l-103 -504h-76l15 74q-54 -86 -179 -86q-107 0 -175 65q-67 66 -67 168zM85 225q0 -75 47 -122t125 -47q92 0 157 65q66 65 66 174q0 69 -50.5 112t-131.5 43q-90 0 -151 -69q-62 -68 -62 -156z" />
    <glyph glyph-name="amacron.alt" horiz-adv-x="615" 
d="M9 221q0 120 87 208q88 90 209 90q72 0 124.5 -27t72.5 -64l16 76h76l-103 -504h-76l15 74q-54 -86 -179 -86q-107 0 -175 65q-67 66 -67 168zM85 225q0 -75 47 -122t125 -47q92 0 157 65q66 65 66 174q0 69 -50.5 112t-131.5 43q-90 0 -151 -69q-62 -68 -62 -156z
M494 601h-294l14 69h294z" />
    <glyph glyph-name="abreve.alt" horiz-adv-x="615" 
d="M9 221q0 120 87 208q88 90 209 90q72 0 124.5 -27t72.5 -64l16 76h76l-103 -504h-76l15 74q-54 -86 -179 -86q-107 0 -175 65q-67 66 -67 168zM85 225q0 -75 47 -122t125 -47q92 0 157 65q66 65 66 174q0 69 -50.5 112t-131.5 43q-90 0 -151 -69q-62 -68 -62 -156z
M348 558q-61 0 -97.5 37.5t-36.5 101.5h69q4 -38 21 -55.5t54 -17.5q35 0 61 20.5t38 52.5h69q-17 -66 -64 -102.5t-114 -36.5z" />
    <glyph glyph-name="aring.alt" horiz-adv-x="615" 
d="M9 221q0 120 87 208q88 90 209 90q72 0 124.5 -27t72.5 -64l16 76h76l-103 -504h-76l15 74q-54 -86 -179 -86q-107 0 -175 65q-67 66 -67 168zM85 225q0 -75 47 -122t125 -47q92 0 157 65q66 65 66 174q0 69 -50.5 112t-131.5 43q-90 0 -151 -69q-62 -68 -62 -156z
M357 556q-40 0 -65 24t-25 62q0 42 32 76q31 33 76 33q40 0 65.5 -25t25.5 -63q0 -41 -32 -75q-32 -32 -77 -32zM362 607q21 0 36.5 15.5t15.5 36.5q0 18 -12 29.5t-31 11.5q-21 0 -36.5 -15.5t-15.5 -36.5q0 -18 12 -29.5t31 -11.5z" />
    <glyph glyph-name="aringacute.alt" horiz-adv-x="615" 
d="M424 788h-62l83 145h102zM357 556q-40 0 -65 24t-25 62q0 42 32 76q31 33 76 33q40 0 65.5 -25t25.5 -63q0 -41 -32 -75q-32 -32 -77 -32zM362 607q21 0 36.5 15.5t15.5 36.5q0 18 -12 29.5t-31 11.5q-21 0 -36.5 -15.5t-15.5 -36.5q0 -18 12 -29.5t31 -11.5zM9 221
q0 120 87 208q88 90 209 90q72 0 124.5 -27t72.5 -64l16 76h76l-103 -504h-76l15 74q-54 -86 -179 -86q-107 0 -175 65q-67 66 -67 168zM85 225q0 -75 47 -122t125 -47q92 0 157 65q66 65 66 174q0 69 -50.5 112t-131.5 43q-90 0 -151 -69q-62 -68 -62 -156z" />
    <glyph glyph-name="aogonek.alt" horiz-adv-x="615" 
d="M9 221q0 120 88 208q89 90 213 90q70 0 121 -27t71 -64l16 76h76l-103 -504q-94 -55 -94 -100q0 -17 12.5 -28.5t33.5 -11.5q30 0 53 10l-25 -58q-17 -10 -46 -10q-43 0 -70 23t-27 59q0 65 86 112l2 9l14 69q-54 -86 -179 -86q-107 0 -175 65q-67 66 -67 168zM85 225
q0 -75 47 -122t125 -47q92 0 157 65q66 65 66 174q0 69 -49 112t-128 43q-91 0 -155 -69q-63 -67 -63 -156z" />
    <glyph glyph-name="dcaron.alt" horiz-adv-x="788" 
d="M9 221q0 120 87 208q88 90 209 90q72 0 124.5 -27t72.5 -64l56 269h76l-143 -697h-76l15 74q-54 -86 -179 -86q-107 0 -175 65q-67 66 -67 168zM85 225q0 -75 47 -122t125 -47q92 0 157 65q66 65 66 174q0 69 -50.5 112t-131.5 43q-90 0 -151 -69q-62 -68 -62 -156z
M691 552h-62l83 145h102z" />
    <glyph glyph-name="dcroat.alt" horiz-adv-x="600" 
d="M9 221q0 120 87 208q88 90 209 90q72 0 124.5 -27t72.5 -64l30 147h-195l12 60h196l13 62h76l-13 -62h57l-12 -60h-57l-118 -575h-76l15 74q-54 -86 -179 -86q-107 0 -175 65q-67 66 -67 168zM85 225q0 -75 47 -122t125 -47q92 0 157 65q66 65 66 174q0 69 -50.5 112
t-131.5 43q-90 0 -151 -69q-62 -68 -62 -156z" />
    <glyph glyph-name="hcircumflex.alt" horiz-adv-x="524" 
d="M62 0h-76l142 697h76l-56 -271q52 86 155 86q77 0 120 -44t43 -121q0 -22 -5 -50l-61 -297h-76l59 293q4 25 4 40q0 52 -28 81t-80 29q-58 0 -103 -45q-43 -43 -57 -112zM97 721h-94l147 121h88l97 -121h-84l-59 81z" />
    <glyph glyph-name="hbar.alt" horiz-adv-x="524" 
d="M62 0h-76l116 573h-56l12 60h57l13 64h76l-13 -64h196l-12 -60h-197l-30 -147q52 86 155 86q77 0 120 -44t43 -121q0 -22 -5 -50l-61 -297h-76l59 293q4 25 4 40q0 52 -28 81t-80 29q-58 0 -103 -45q-43 -43 -57 -112z" />
    <glyph glyph-name="igrave.alt" horiz-adv-x="192" 
d="M63 0h-76l103 504h76zM172 552h-59l-63 145h99z" />
    <glyph glyph-name="iacute.alt" horiz-adv-x="192" 
d="M63 0h-76l103 504h76zM161 552h-62l83 145h102z" />
    <glyph glyph-name="icircumflex.alt" horiz-adv-x="192" 
d="M90 576h-86l132 121h59l83 -121h-80l-38 71zM63 0h-76l103 504h76z" />
    <glyph glyph-name="itilde.alt" horiz-adv-x="192" 
d="M67 594l-51 6q13 41 38.5 65.5t57.5 24.5q20 0 49 -20q28 -19 39 -19q26 0 42 43l50 -6q-28 -96 -99 -96q-21 0 -49 19q-29 20 -40 20q-24 0 -37 -37zM63 0h-76l103 504h76z" />
    <glyph glyph-name="idieresis.alt" horiz-adv-x="192" 
d="M217 586q-20 0 -33 12.5t-13 31.5q0 22 16.5 39t38.5 17q21 0 34 -12.5t13 -32.5q0 -22 -16 -38.5t-40 -16.5zM73 586q-20 0 -33 12.5t-13 31.5q0 22 16.5 39t38.5 17q21 0 34 -12.5t13 -32.5q0 -22 -16 -38.5t-40 -16.5zM63 0h-76l103 504h76z" />
    <glyph glyph-name="imacron.alt" horiz-adv-x="192" 
d="M259 601h-238l14 69h238zM63 0h-76l103 504h76z" />
    <glyph glyph-name="ibreve.alt" horiz-adv-x="192" 
d="M140 564q-48 0 -78 30.5t-30 83.5q0 14 1 19h69q-1 -4 -1 -16q0 -24 13 -37.5t36 -13.5q26 0 45.5 18.5t26.5 48.5h69q-15 -63 -54.5 -98t-96.5 -35zM63 0h-76l103 504h76z" />
    <glyph glyph-name="iogonek.alt" horiz-adv-x="192" 
d="M166 504l-103 -504q-94 -55 -94 -100q0 -17 12.5 -28.5t33.5 -11.5q30 0 53 10l-25 -58q-17 -10 -46 -10q-43 0 -70 23t-27 59q0 65 86 112v1l104 507h76zM149 588q-20 0 -33 12.5t-13 31.5q0 22 16.5 39t38.5 17q21 0 34 -12.5t13 -32.5q0 -22 -16 -38.5t-40 -16.5z" />
    <glyph glyph-name="dotlessi.alt" horiz-adv-x="192" 
d="M63 0h-76l103 504h76z" />
    <glyph glyph-name="lacute.alt" horiz-adv-x="192" 
d="M63 0h-76l142 697h76zM195 722h-62l83 145h102z" />
    <glyph glyph-name="lcaron.alt" horiz-adv-x="304" 
d="M63 0h-76l142 697h76zM272 552h-62l83 145h102z" />
    <glyph glyph-name="lcommaaccent.alt" horiz-adv-x="192" 
d="M63 0h-76l142 697h76zM-109 -193l83 145h102l-123 -145h-62z" />
    <glyph glyph-name="ldot.alt" horiz-adv-x="314" 
d="M220 318q-20 0 -33 12.5t-13 31.5q0 22 16.5 39t38.5 17q21 0 34 -12.5t13 -32.5q0 -22 -16 -38.5t-40 -16.5zM63 0h-76l142 697h76z" />
    <glyph glyph-name="lslash.alt" horiz-adv-x="218" 
d="M76 0h-76l62 307l-74 -39l16 79l74 39l64 311h76l-54 -265l94 50l-16 -79l-94 -50z" />
    <glyph glyph-name="nacute.alt" horiz-adv-x="532" 
d="M60 0h-74l102 504h74l-16 -78q54 86 158 86q83 0 129.5 -47t46.5 -129q0 -26 -5 -54l-58 -282h-77l57 280q4 17 4 44q0 56 -31 87.5t-88 31.5q-60 0 -105.5 -44t-59.5 -113zM328 552h-62l83 145h102z" />
    <glyph glyph-name="ncaron.alt" horiz-adv-x="532" 
d="M60 0h-74l102 504h74l-16 -78q54 86 158 86q83 0 129.5 -47t46.5 -129q0 -26 -5 -54l-58 -282h-77l57 280q4 17 4 44q0 56 -31 87.5t-88 31.5q-60 0 -105.5 -44t-59.5 -113zM363 576h-88l-97 121h84l59 -81l95 81h94z" />
    <glyph glyph-name="ntilde.alt" horiz-adv-x="532" 
d="M60 0h-74l102 504h74l-16 -78q54 86 158 86q83 0 129.5 -47t46.5 -129q0 -26 -5 -54l-58 -282h-77l57 280q4 17 4 44q0 56 -31 87.5t-88 31.5q-60 0 -105.5 -44t-59.5 -113zM220 594l-52 4q12 42 41 67t68 25q27 0 59 -20q32 -19 50 -19q33 0 50 41l52 -4
q-29 -98 -111 -98q-29 0 -61 19q-34 20 -50 20q-32 0 -46 -35z" />
    <glyph glyph-name="ncommaaccent.alt" horiz-adv-x="532" 
d="M60 0h-74l102 504h74l-16 -78q54 86 158 86q83 0 129.5 -47t46.5 -129q0 -26 -5 -54l-58 -282h-77l57 280q4 17 4 44q0 56 -31 87.5t-88 31.5q-60 0 -105.5 -44t-59.5 -113zM81 -193l83 145h102l-123 -145h-62z" />
    <glyph glyph-name="racute.alt" horiz-adv-x="346" 
d="M62 0h-76l77 377q14 68 62 105t120 37q63 0 87 -10l-13 -68q-25 9 -78 9q-87 0 -105 -89zM230 552h-62l83 145h102z" />
    <glyph glyph-name="rcommaaccent.alt" horiz-adv-x="346" 
d="M62 0h-76l77 377q14 68 62 105t120 37q63 0 87 -10l-13 -68q-25 9 -78 9q-87 0 -105 -89zM-107 -193l83 145h102l-123 -145h-62z" />
    <glyph glyph-name="rcaron.alt" horiz-adv-x="346" 
d="M62 0h-76l77 377q14 68 62 105t120 37q63 0 87 -10l-13 -68q-25 9 -78 9q-87 0 -105 -89zM286 576h-88l-97 121h84l59 -81l95 81h94z" />
    <glyph glyph-name="tcaron.alt" horiz-adv-x="330" 
d="M98 0h-76l89 435h-63l14 69h63l39 193h76l-39 -193h111l-14 -69h-111zM309 552h-62l83 145h102z" />
    <glyph glyph-name="tcommaaccent.alt" horiz-adv-x="308" 
d="M98 0h-76l89 435h-63l14 69h63l39 193h76l-39 -193h111l-14 -69h-111zM-70 -193l83 145h102l-123 -145h-62z" />
    <glyph glyph-name="tbar.alt" horiz-adv-x="308" 
d="M98 0h-76l60 294h-63l14 69h63l15 72h-63l14 69h63l39 193h76l-39 -193h111l-14 -69h-111l-15 -72h111l-14 -69h-111z" />
    <glyph glyph-name="ugrave.alt" horiz-adv-x="525" 
d="M15 160q0 18 8 63l57 281h77l-60 -298q-5 -25 -5 -47q0 -44 33 -73t92 -29q56 0 96 34.5t54 101.5l64 311h75l-65 -323q-19 -97 -80.5 -145t-149.5 -48q-90 0 -143 49q-53 50 -53 123zM337 552h-59l-63 145h99z" />
    <glyph glyph-name="uacute.alt" horiz-adv-x="525" 
d="M15 160q0 18 8 63l57 281h77l-60 -298q-5 -25 -5 -47q0 -44 33 -73t92 -29q56 0 96 34.5t54 101.5l64 311h75l-65 -323q-19 -97 -80.5 -145t-149.5 -48q-90 0 -143 49q-53 50 -53 123zM315 552h-62l83 145h102z" />
    <glyph glyph-name="ucircumflex.alt" horiz-adv-x="525" 
d="M15 160q0 18 8 63l57 281h77l-60 -298q-5 -25 -5 -47q0 -44 33 -73t92 -29q56 0 96 34.5t54 101.5l64 311h75l-65 -323q-19 -97 -80.5 -145t-149.5 -48q-90 0 -143 49q-53 50 -53 123zM227 576h-94l147 121h88l97 -121h-84l-59 81z" />
    <glyph glyph-name="utilde.alt" horiz-adv-x="525" 
d="M15 160q0 18 8 63l57 281h77l-60 -298q-5 -25 -5 -47q0 -44 33 -73t92 -29q56 0 96 34.5t54 101.5l64 311h75l-65 -323q-19 -97 -80.5 -145t-149.5 -48q-90 0 -143 49q-53 50 -53 123zM205 594l-52 4q12 42 41 67t68 25q27 0 59 -20q32 -19 50 -19q33 0 50 41l52 -4
q-29 -98 -111 -98q-29 0 -61 19q-34 20 -50 20q-32 0 -46 -35z" />
    <glyph glyph-name="udieresis.alt" horiz-adv-x="525" 
d="M15 160q0 18 8 63l57 281h77l-60 -298q-5 -25 -5 -47q0 -44 33 -73t92 -29q56 0 96 34.5t54 101.5l64 311h75l-65 -323q-19 -97 -80.5 -145t-149.5 -48q-90 0 -143 49q-53 50 -53 123zM414 586q-20 0 -33 12.5t-13 31.5q0 22 16.5 39t38.5 17q21 0 34 -12.5t13 -32.5
q0 -22 -16 -38.5t-40 -16.5zM213 586q-20 0 -33 12.5t-13 31.5q0 22 16.5 39t38.5 17q21 0 34 -12.5t13 -32.5q0 -22 -16 -38.5t-40 -16.5z" />
    <glyph glyph-name="umacron.alt" horiz-adv-x="525" 
d="M15 160q0 18 8 63l57 281h77l-60 -298q-5 -25 -5 -47q0 -44 33 -73t92 -29q56 0 96 34.5t54 101.5l64 311h75l-65 -323q-19 -97 -80.5 -145t-149.5 -48q-90 0 -143 49q-53 50 -53 123zM451 601h-294l14 69h294z" />
    <glyph glyph-name="ubreve.alt" horiz-adv-x="525" 
d="M15 160q0 18 8 63l57 281h77l-60 -298q-5 -25 -5 -47q0 -44 33 -73t92 -29q56 0 96 34.5t54 101.5l64 311h75l-65 -323q-19 -97 -80.5 -145t-149.5 -48q-90 0 -143 49q-53 50 -53 123zM297 558q-61 0 -97.5 37.5t-36.5 101.5h69q4 -38 21 -55.5t54 -17.5q35 0 61 20.5
t38 52.5h69q-17 -66 -64 -102.5t-114 -36.5z" />
    <glyph glyph-name="uring.alt" horiz-adv-x="525" 
d="M15 160q0 18 8 63l57 281h77l-60 -298q-5 -25 -5 -47q0 -44 33 -73t92 -29q56 0 96 34.5t54 101.5l64 311h75l-65 -323q-19 -97 -80.5 -145t-149.5 -48q-90 0 -143 49q-53 50 -53 123zM295 517q-40 0 -65 24t-25 62q0 42 32 76q32 33 76 33q40 0 65.5 -25t25.5 -63
q0 -41 -32 -75q-32 -32 -77 -32zM300 568q21 0 36.5 15.5t15.5 36.5q0 18 -12 29.5t-31 11.5q-21 0 -36.5 -15.5t-15.5 -36.5q0 -18 12 -29.5t31 -11.5z" />
    <glyph glyph-name="uhungarumlaut.alt" horiz-adv-x="525" 
d="M15 160q0 18 8 63l57 281h77l-60 -298q-5 -25 -5 -47q0 -44 33 -73t92 -29q56 0 96 34.5t54 101.5l64 311h75l-65 -323q-19 -97 -80.5 -145t-149.5 -48q-90 0 -143 49q-53 50 -53 123zM396 552h-59l93 145h99zM242 552h-59l93 145h99z" />
    <glyph glyph-name="uogonek.alt" horiz-adv-x="525" 
d="M15 160q0 18 8 63l61 281h77l-64 -298q-5 -25 -5 -47q0 -44 33 -73t92 -29q56 0 96 34.5t54 101.5l64 311h75l-65 -323q-23 -110 -112 -168q-8 -5 -52 -25q-44 -21 -63.5 -40.5t-19.5 -47.5q0 -17 12.5 -28.5t33.5 -11.5q30 0 53 10l-25 -58q-17 -10 -46 -10
q-43 0 -70 23t-27 59q0 61 73 104h-1q-84 5 -133 52q-49 49 -49 120z" />
    <glyph glyph-name="ygrave.alt" horiz-adv-x="520" 
d="M17 -193l126 201l-96 496h75l77 -408l255 408h83l-438 -697h-82zM342 552h-59l-63 145h99z" />
    <glyph glyph-name="yacute.alt" horiz-adv-x="520" 
d="M17 -193l126 201l-96 496h75l77 -408l255 408h83l-438 -697h-82zM309 552h-62l83 145h102z" />
    <glyph glyph-name="ycircumflex.alt" horiz-adv-x="520" 
d="M17 -193l126 201l-96 496h75l77 -408l255 408h83l-438 -697h-82zM222 576h-94l147 121h88l97 -121h-84l-59 81z" />
    <glyph glyph-name="ydieresis.alt" horiz-adv-x="520" 
d="M401 586q-20 0 -33 12.5t-13 31.5q0 22 16.5 39t38.5 17q21 0 34 -12.5t13 -32.5q0 -22 -16 -38.5t-40 -16.5zM195 586q-20 0 -33 12.5t-13 31.5q0 22 16.5 39t38.5 17q21 0 34 -12.5t13 -32.5q0 -22 -16 -38.5t-40 -16.5zM17 -193l126 201l-96 496h75l77 -408l255 408
h83l-438 -697h-82z" />
    <glyph glyph-name="fi.alt" horiz-adv-x="478" 
d="M115 0h-74l89 435h-81l14 69h81l15 75q13 64 59.5 98.5t117.5 34.5q42 0 70 -5l-14 -68q-18 3 -67 3q-75 0 -95 -77l-12 -61h234l-103 -504h-76l89 435h-158z" />
    <glyph glyph-name="fl.alt" horiz-adv-x="503" 
d="M115 0h-74l89 435h-81l14 69h81l15 75q13 64 55.5 98.5t106.5 34.5q33 0 55 -5l-14 -68q-13 3 -52 3q-63 0 -80 -77l-12 -61h95l-14 -69h-95zM374 0h-76l142 697h76z" />
    <glyph glyph-name="ffi.alt" horiz-adv-x="712" 
d="M115 0h-74l89 435h-81l14 69h81l15 75q13 64 55.5 98.5t106.5 34.5q33 0 55 -5l-14 -68q-13 3 -52 3q-63 0 -80 -77l-12 -61h160l15 75q13 64 59.5 98.5t117.5 34.5q42 0 70 -5l-14 -68q-18 3 -67 3q-75 0 -95 -77l-12 -61h234l-103 -504h-76l89 435h-158l-89 -435h-74
l89 435h-160z" />
    <glyph glyph-name="ffl.alt" horiz-adv-x="727" 
d="M115 0h-74l89 435h-81l14 69h81l15 75q13 64 55.5 98.5t106.5 34.5q33 0 55 -5l-14 -68q-13 3 -52 3q-63 0 -80 -77l-12 -61h160l15 75q13 64 55.5 98.5t106.5 34.5q33 0 55 -5l-14 -68q-13 3 -52 3q-63 0 -80 -77l-12 -61h95l-14 -69h-95l-89 -435h-74l89 435h-160z
M598 0h-76l142 697h76z" />
    <glyph glyph-name="zero.onum" horiz-adv-x="552" 
d="M11 177q0 33 23 127q25 102 92.5 158.5t166.5 56.5q91 0 149 -54q60 -53 60 -135q0 -54 -20 -129q-11 -38 -14 -47q-5 -18 -26 -54q-19 -33 -46 -57q-65 -57 -172 -57q-94 0 -154 54q-59 54 -59 137zM90 181q0 -56 37 -88.5t105 -32.5q133 0 171 145q20 89 20 114
q0 56 -37.5 91t-97.5 35q-62 0 -108 -39t-65 -106q-23 -80 -25 -119z" />
    <glyph glyph-name="one.onum" horiz-adv-x="354" 
d="M194 0h-75l83 407l-135 -69l-28 65l194 101h63z" />
    <glyph glyph-name="two.onum" horiz-adv-x="481" 
d="M385 0h-426l11 54l312 206q77 51 77 104q0 36 -29.5 58.5t-77.5 22.5q-52 0 -90 -38q-37 -37 -43 -86h-77q3 73 64 135q62 63 152 63q78 0 127 -42q49 -40 49 -105q0 -52 -24 -90.5t-80 -77.5l-209 -132h279z" />
    <glyph glyph-name="three.onum" horiz-adv-x="513" 
d="M-58 14l72 28q39 -90 151 -90q76 0 128 46q54 45 54 102q0 49 -37 78t-102 29q-32 0 -86 -12l-18 50l239 187h-257l15 72h387l-11 -52l-231 -180h8q72 0 119 -46q49 -46 49 -119q0 -88 -71 -159q-70 -70 -193 -70q-71 0 -131 36t-85 100z" />
    <glyph glyph-name="four.onum" horiz-adv-x="555" 
d="M336 0h-364l11 52l315 452h87l-302 -432h268l31 152h78l-85 -417h-78z" />
    <glyph glyph-name="five.onum" horiz-adv-x="526" 
d="M-35 16l68 30q14 -42 54.5 -68t94.5 -26q72 0 122 50t50 113q0 51 -35 88q-35 36 -87 36q-76 0 -137 -45l-52 13l115 297h323l-15 -72h-254l-54 -137q34 18 91 18q85 0 135 -57q49 -55 49 -134q0 -90 -68 -167t-190 -77q-69 0 -132 39q-61 37 -78 99z" />
    <glyph glyph-name="six.onum" horiz-adv-x="530" 
d="M8 191q0 47 20 92q18 41 43 72q24 28 77 86l238 256h97l-245 -265q16 2 20 2q90 0 149 -57q58 -57 58 -146q0 -98 -71 -172t-177 -74q-93 0 -151 58t-58 148zM83 196q0 -60 38.5 -98.5t100.5 -38.5q70 0 120 51q49 50 49 116q0 60 -38.5 97t-101.5 37q-69 0 -119 -50
q-49 -49 -49 -114z" />
    <glyph glyph-name="seven.onum" horiz-adv-x="494" 
d="M67 -193h-82l401 625h-338l15 72h429l-11 -54z" />
    <glyph glyph-name="eight.onum" horiz-adv-x="542" 
d="M5 188q0 72 45 137q44 63 114 89q-39 44 -39 104q0 78 58 136t142 58q74 0 120 -46q47 -45 47 -115q0 -48 -24 -91.5t-66 -70.5q34 -24 56.5 -67t22.5 -85q0 -102 -72 -177t-181 -75q-98 0 -161 57q-62 57 -62 146zM299 426q48 0 81 36t33 82q0 41 -26.5 67.5t-68.5 26.5
q-46 0 -81 -36q-34 -34 -34 -82q0 -41 26.5 -67.5t69.5 -26.5zM85 196q0 -60 40.5 -98.5t104.5 -38.5q71 0 121 50q50 52 50 117q0 59 -41 98q-40 39 -104 39q-70 0 -121 -51q-50 -50 -50 -116z" />
    <glyph glyph-name="nine.onum" horiz-adv-x="529" 
d="M141 0h-94l242 266q-7 -3 -27 -3q-88 0 -143 57q-55 56 -55 147q0 98 73 171q74 74 175 74q92 0 151 -57t59 -147q0 -33 -13 -70q-2 -9 -36 -65q-10 -15 -27 -35l-28 -32l-35 -38l-35 -39zM281 337q69 0 117 51t48 115q0 60 -39 97.5t-102 37.5q-68 0 -118 -50
q-48 -50 -48 -113q0 -61 39.5 -99.5t102.5 -38.5z" />
    <glyph glyph-name="zero.tnum" horiz-adv-x="528" 
d="M10 176q0 32 30 173q25 121 34 149q20 93 84 153q64 61 163 61q87 0 142 -54q56 -53 56 -135q0 -35 -27 -174q-22 -113 -33 -150q-6 -24 -14 -47q-5 -16 -26 -54q-20 -35 -43 -57q-64 -56 -164 -56q-89 0 -146 54q-56 54 -56 137zM90 180q0 -56 33.5 -88.5t96.5 -32.5
q124 0 161 145q10 39 32 145q27 127 27 163q0 56 -34.5 91t-89.5 35q-59 0 -102 -39.5t-61 -105.5q-7 -25 -33 -144q-30 -137 -30 -169z" />
    <glyph glyph-name="one.tnum" horiz-adv-x="528" 
d="M310 0h-78l121 595l-214 -120l-34 66l274 156h73z" />
    <glyph glyph-name="two.tnum" horiz-adv-x="528" 
d="M415 0h-444l10 51l375 353q71 66 71 123q0 49 -32 80t-85 31q-51 0 -87 -35t-45 -89h-77q13 84 70 141q55 57 147 57q84 0 136 -51q53 -50 53 -129q0 -89 -100 -183l-302 -277h325z" />
    <glyph glyph-name="three.tnum" horiz-adv-x="528" 
d="M-37 131l73 26q12 -46 51.5 -72t101.5 -26q77 0 133 54q55 55 55 125q0 63 -38 100.5t-104 37.5q-45 0 -92 -16l-18 50l262 215h-265l15 72h386l-11 -52l-247 -204h5q81 0 132 -55q51 -56 51 -142q0 -102 -77 -181q-76 -78 -194 -78q-83 0 -142.5 40t-76.5 106z" />
    <glyph glyph-name="four.tnum" horiz-adv-x="528" 
d="M359 155h-364l10 52l342 490h87l-329 -470h268l31 152h78l-77 -379h-78z" />
    <glyph glyph-name="five.tnum" horiz-adv-x="528" 
d="M-24 126l70 32q18 -48 57 -73.5t92 -25.5q81 0 136 58q56 59 56 133q0 64 -34.5 103.5t-93.5 39.5q-67 0 -126 -38l-52 13l118 329h314l-15 -72h-248l-61 -172q36 14 89 14q84 0 133 -60q51 -59 51 -153q0 -108 -78 -189q-78 -80 -196 -80q-72 0 -130 38t-82 103z" />
    <glyph glyph-name="six.tnum" horiz-adv-x="530" 
d="M14 188q0 22 3 42q2 12 8 27.5t14.5 32t10.5 21.5q10 17 28 41l29 37q5 8 36 43q29 34 36 42l188 223h87l-228 -274q18 8 47 8q89 0 144 -55q56 -56 56 -140q0 -98 -72 -175q-72 -76 -178 -76q-93 0 -151 57t-58 146zM93 192q0 -59 38 -96t99 -37q71 0 119 50
q48 51 48 116q0 59 -39.5 97t-100.5 38q-67 0 -116 -51q-48 -49 -48 -117z" />
    <glyph glyph-name="seven.tnum" horiz-adv-x="528" 
d="M118 0h-88l435 625h-381l15 72h476l-11 -54z" />
    <glyph glyph-name="eight.tnum" horiz-adv-x="528" 
d="M3 188q0 72 44 136q45 64 113 90q-40 41 -40 104q0 77 56 136q55 58 137 58q70 0 115 -46q45 -45 45 -115q0 -47 -22.5 -90.5t-61.5 -70.5q33 -24 54.5 -66.5t21.5 -86.5q0 -103 -70 -177q-71 -75 -176 -75q-95 0 -156 57q-60 57 -60 146zM287 426q45 0 76 36
q31 35 31 82q0 41 -24.5 67.5t-63.5 26.5q-44 0 -76 -36q-32 -35 -32 -82q0 -41 24.5 -67.5t64.5 -26.5zM83 196q0 -60 38.5 -98.5t99.5 -38.5q69 0 116 50q48 51 48 117q0 60 -38.5 98.5t-99.5 38.5q-67 0 -116 -51q-48 -50 -48 -116z" />
    <glyph glyph-name="nine.tnum" horiz-adv-x="528" 
d="M165 0h-87l228 274q-18 -8 -47 -8q-89 0 -144 55q-56 56 -56 140q0 99 72 175t178 76q91 0 150 -57t59 -146q6 -49 -37 -123q-7 -15 -28 -42l-29 -37l-36 -43q-8 -9 -16 -18.5t-12.5 -15t-6.5 -7.5zM275 337q67 0 115 50q49 50 49 118q0 59 -38 96t-99 37q-71 0 -119 -51
q-48 -49 -48 -115q0 -59 39.5 -97t100.5 -38z" />
    <glyph glyph-name="four.alt" horiz-adv-x="565" 
d="M322 124h-341l11 54l469 519h56l-102 -501h85l-15 -72h-85l-25 -124h-78zM403 524l-299 -328h233z" />
    <glyph glyph-name="four.onum.alt" horiz-adv-x="527" 
d="M259 0h-308l11 54l422 450h56l-88 -432h78l-15 -72h-78l-39 -193h-78zM328 344l-254 -272h200z" />
    <glyph glyph-name="four.tnum.alt" horiz-adv-x="528" 
d="M285 124h-311l11 54l439 519h56l-102 -501h72l-15 -72h-72l-25 -124h-78zM364 511l-271 -315h207z" />
    <glyph glyph-name="foursuperior.alt" horiz-adv-x="364" 
d="M226 390h-184l8 38l246 269h50l-52 -253h44l-11 -54h-44l-13 -62h-57zM266 586l-131 -142h102z" />
    <glyph glyph-name="four.inferior.alt" horiz-adv-x="364" 
d="M160 62h-184l8 38l246 269h50l-52 -253h44l-11 -54h-44l-13 -62h-57zM200 258l-131 -142h102z" />
    <glyph glyph-name="onequarter.alt" horiz-adv-x="674" 
d="M81 0h-74l532 697h74zM161 328h-57l64 316h-48l11 53h105zM460 62h-184l8 38l246 269h50l-52 -253h44l-11 -54h-44l-13 -62h-57zM500 258l-131 -142h102z" />
    <glyph glyph-name="threequarters.alt" horiz-adv-x="772" 
d="M179 0h-74l532 697h74zM558 62h-184l8 38l246 269h50l-52 -253h44l-11 -54h-44l-13 -62h-57zM598 258l-131 -142h102zM48 419l51 18q19 -63 89 -63q38 0 65 24t27 55q0 30 -24.5 49t-65.5 19q-23 0 -38 -5l-15 26l122 102h-128l11 53h224l-7 -33l-125 -99q7 0 10 -1
q42 -7 67 -36.5t25 -70.5q0 -57 -43 -97t-111 -40q-50 0 -86 27t-48 72z" />
    <glyph glyph-name="published" horiz-adv-x="812" 
d="M34 304q0 162 119 284q119 123 285 123q150 0 245 -92q96 -91 96 -234q0 -103 -51 -194q-50 -90 -146 -149q-94 -58 -209 -58q-149 0 -244 90t-95 230zM81 306q0 -122 81 -202q82 -79 215 -79q100 0 182 52q83 53 129 134q46 82 46 171q0 128 -81 207q-81 81 -215 81
q-99 0 -182 -53q-82 -52 -129 -137q-46 -82 -46 -174zM312 119h-68l90 439h125q57 0 93.5 -35t36.5 -89q0 -60 -45 -106q-43 -46 -110 -46h-89zM388 492l-29 -145h83q32 0 55 24.5t23 57.5q0 27 -18 45t-47 18h-67z" />
    <glyph glyph-name="colon.case" horiz-adv-x="188" 
d="M116 430q-20 0 -33 12.5t-13 31.5q0 22 16.5 39t38.5 17q21 0 34 -12.5t13 -32.5q0 -22 -16 -38.5t-40 -16.5zM60 154q-20 0 -33 12.5t-13 31.5q0 22 16.5 39t38.5 17q21 0 34 -12.5t13 -32.5q0 -22 -16 -38.5t-40 -16.5z" />
    <glyph glyph-name="semicolon.case" horiz-adv-x="238" 
d="M146 430q-20 0 -33 12.5t-13 31.5q0 22 16.5 39t38.5 17q21 0 34 -12.5t13 -32.5q0 -22 -16 -38.5t-40 -16.5zM152 223l-162 -223h-66l129 223h99z" />
    <glyph glyph-name="bullet.case" horiz-adv-x="262" 
d="M124 266q-34 0 -55 20t-21 52q0 37 26.5 64.5t63.5 27.5q34 0 55.5 -21t21.5 -53q0 -36 -26.5 -63t-64.5 -27z" />
    <glyph glyph-name="periodcentered.case" horiz-adv-x="188" 
d="M89 297q-20 0 -33 12.5t-13 31.5q0 22 16.5 39t38.5 17q21 0 34 -12.5t13 -32.5q0 -22 -16 -38.5t-40 -16.5z" />
    <glyph glyph-name="guilsinglleft.case" horiz-adv-x="258" 
d="M190 174h-80l-75 175l146 175h92l-154 -184z" />
    <glyph glyph-name="guilsinglright.case" horiz-adv-x="258" 
d="M77 174h-92l154 184l-71 166h80l75 -175z" />
    <glyph glyph-name="guillemotleft.case" horiz-adv-x="414" 
d="M346 174h-80l-75 175l146 175h92l-154 -184zM190 174h-80l-75 175l146 175h92l-154 -184z" />
    <glyph glyph-name="guillemotright.case" horiz-adv-x="414" 
d="M233 174h-92l154 184l-71 166h80l75 -175zM76 174h-92l154 184l-71 166h80l75 -175z" />
    <glyph glyph-name="slash.case" horiz-adv-x="422" 
d="M499 778l-489 -859h-81l487 859h83z" />
    <glyph glyph-name="backslash.case" horiz-adv-x="422" 
d="M316 -81h-71l-139 859h71z" />
    <glyph glyph-name="hyphen.case" horiz-adv-x="384" 
d="M335 314h-300l14 69h300z" />
    <glyph glyph-name="endash.case" horiz-adv-x="456" 
d="M408 314h-374l14 69h374z" />
    <glyph glyph-name="emdash.case" horiz-adv-x="720" 
d="M672 314h-638l14 69h638z" />
    <glyph glyph-name="parenleft.case" horiz-adv-x="294" 
d="M219 -98l-45 -40q-68 78 -104.5 181.5t-36.5 216.5q0 322 337 562l31 -44q-151 -121 -223 -252t-72 -290q0 -194 113 -334z" />
    <glyph glyph-name="parenright.case" horiz-adv-x="294" 
d="M-78 -138l-31 44q151 121 223 252t72 290q0 194 -113 334l45 40q68 -78 104.5 -181.5t36.5 -216.5q0 -322 -337 -562z" />
    <glyph glyph-name="bracketleft.case" horiz-adv-x="307" 
d="M237 722l-152 -746h147l-14 -72h-225l181 890h225l-15 -72h-147z" />
    <glyph glyph-name="bracketright.case" horiz-adv-x="307" 
d="M-78 -24h147l152 746h-147l15 72h225l-181 -890h-225z" />
    <glyph glyph-name="braceleft.case" horiz-adv-x="318" 
d="M49 33l38 190q4 17 4 33q0 32 -19.5 50.5t-48.5 19.5l10 48q86 7 106 103l39 190q14 69 46.5 98.5t95.5 29.5h49l-12 -59h-37q-31 0 -46.5 -17t-21.5 -52l-38 -183q-11 -50 -19 -69q-10 -26 -28.5 -41t-56.5 -29q53 -23 53 -90q0 -17 -6 -51l-37 -186q-2 -12 -2 -19
q0 -16 12.5 -25.5t32.5 -9.5h37l-12 -59h-45q-45 0 -71 26.5t-26 71.5q0 13 3 30z" />
    <glyph glyph-name="braceright.case" horiz-adv-x="318" 
d="M67 33l38 183q10 46 18 69q11 26 29.5 41t56.5 29q-53 23 -53 90q0 17 6 51l37 186q2 12 2 19q0 16 -12.5 25.5t-32.5 9.5h-37l12 59h45q45 0 71 -26.5t26 -71.5q0 -13 -3 -30l-38 -190q-4 -17 -4 -33q0 -32 19.5 -50.5t48.5 -19.5l-10 -48q-86 -7 -106 -103l-39 -190
q-14 -69 -46.5 -98.5t-95.5 -29.5h-49l12 59h37q31 0 46.5 17t21.5 52z" />
    <glyph glyph-name="exclamdown.case" horiz-adv-x="240" 
d="M179 612q-20 0 -33 12.5t-13 31.5q0 22 16.5 39t38.5 17q21 0 34 -12.5t13 -32.5q0 -22 -16 -38.5t-40 -16.5zM96 0h-94l126 542h62z" />
    <glyph glyph-name="questiondown.case" horiz-adv-x="396" 
d="M264 612q-21 0 -34 12.5t-13 32.5q0 22 16 38.5t40 16.5q20 0 33 -12.5t13 -31.5q0 -22 -16.5 -39t-38.5 -17zM-12 119q0 30 9 66q4 15 32 47q7 9 26 22l29 21l38 25l43 28q39 24 59 41q29 26 29 57q0 19 -15 31t-39 12q-35 0 -67 -12l15 73q30 11 57 11q56 0 92 -30.5
t36 -78.5t-28.5 -86.5t-93.5 -79.5l-45 -27q-42 -25 -63 -41q-19 -15 -25 -28.5t-9 -43.5q0 -30 24.5 -49.5t65.5 -19.5q63 0 139 53l-17 -83q-52 -42 -127 -42q-73 0 -119 37.5t-46 96.5z" />
    <glyph glyph-name="at.case" horiz-adv-x="803" 
d="M29 314q0 159 117 278q119 120 283 120q151 0 248 -89q97 -88 97 -227q0 -95 -53 -169q-52 -73 -130 -73q-64 0 -93 44l-8 17q-35 -47 -112 -47q-70 0 -114.5 43t-44.5 110q0 79 57 138q59 59 141 59q73 0 105 -44l7 35h68l-46 -229q-3 -15 -3 -22q0 -18 13 -29.5
t35 -11.5q45 0 77 53q32 55 32 123q0 112 -78 184q-77 72 -204 72q-137 0 -231 -100t-94 -228q0 -121 75 -197t199 -76q64 0 121 23l19 -58q-57 -28 -143 -28q-150 0 -245 92q-95 93 -95 237zM288 328q0 -42 25.5 -68t68.5 -26q50 0 86 36q37 36 37 97q0 39 -26.5 62.5
t-71.5 23.5q-50 0 -85 -38q-34 -37 -34 -87z" />
    <glyph glyph-name="A.smcp" horiz-adv-x="602" 
d="M38 0h-82l361 558h54l133 -558h-76l-30 128h-277zM323 443l-156 -245h214z" />
    <glyph glyph-name="B.smcp" horiz-adv-x="491" 
d="M209 0h-201l112 558h158q65 0 107 -37t42 -93q0 -37 -19.5 -72t-53.5 -58q65 -29 65 -100q0 -82 -63 -140q-62 -58 -147 -58zM186 487l-34 -157h102q38 0 66 27t28 61q0 30 -21.5 49.5t-56.5 19.5h-84zM139 262l-40 -192h112q53 0 90 33q39 35 39 83q0 33 -23.5 54.5
t-62.5 21.5h-115z" />
    <glyph glyph-name="C.smcp" horiz-adv-x="570" 
d="M18 247q0 130 94 225q94 97 229 97q142 0 221 -103l-56 -45q-58 78 -168 78q-104 0 -174 -76q-71 -77 -71 -171q0 -84 56 -140q57 -54 150 -54q97 0 163 68l45 -50q-89 -88 -214 -88q-122 0 -198 73q-77 74 -77 186z" />
    <glyph glyph-name="D.smcp" horiz-adv-x="624" 
d="M253 0h-245l112 558h176q123 0 200 -73q78 -73 78 -185q0 -118 -93 -209q-91 -91 -228 -91zM186 487l-87 -417h158q100 0 171 68q71 69 71 157q0 84 -57 138t-147 54h-109z" />
    <glyph glyph-name="E.smcp" horiz-adv-x="457" 
d="M339 0h-331l112 558h326l-14 -71h-248l-33 -157h232l-13 -71h-231l-40 -189h254z" />
    <glyph glyph-name="F.smcp" horiz-adv-x="420" 
d="M86 0h-78l112 558h300l-14 -71h-222l-34 -162h201l-12 -70h-201z" />
    <glyph glyph-name="G.smcp" horiz-adv-x="615" 
d="M18 237q0 135 94 233q95 99 244 99q126 0 211 -93l-56 -50q-61 73 -161 73q-104 0 -181 -74q-75 -73 -75 -170q0 -91 59.5 -144t160.5 -53q71 0 131 36l30 144h-175l13 70h250l-48 -250q-41 -33 -97.5 -51.5t-109.5 -18.5q-130 0 -210 74t-80 175z" />
    <glyph glyph-name="H.smcp" horiz-adv-x="630" 
d="M86 0h-78l112 558h78l-46 -227h317l46 227h78l-113 -558h-77l53 261h-317z" />
    <glyph glyph-name="I.smcp" horiz-adv-x="241" 
d="M88 0h-77l114 558h77z" />
    <glyph glyph-name="J.smcp" horiz-adv-x="297" 
d="M34 -9q-49 0 -76 13l13 69q21 -10 60 -10q22 0 37 16q14 14 20 30t13 50l82 399h75l-80 -396l-12 -52q-5 -18 -15 -44q-15 -37 -42 -54t-75 -21z" />
    <glyph glyph-name="K.smcp" horiz-adv-x="543" 
d="M85 0h-77l112 558h77l-56 -275l317 275h100l-287 -254l180 -304h-85l-152 258l-93 -80z" />
    <glyph glyph-name="L.smcp" horiz-adv-x="428" 
d="M323 0h-315l112 558h78l-99 -488h237z" />
    <glyph glyph-name="M.smcp" horiz-adv-x="742" 
d="M84 0h-76l114 558h72l143 -351l296 351h73l-114 -558h-76l84 410l-285 -336l-145 350z" />
    <glyph glyph-name="N.smcp" horiz-adv-x="650" 
d="M85 0h-77l113 558h68l259 -436l89 436h77l-113 -558h-63l-264 443z" />
    <glyph glyph-name="O.smcp" horiz-adv-x="661" 
d="M16 245q0 129 94 224q94 97 229 97q122 0 200 -75q78 -74 78 -188q0 -125 -94 -220q-93 -96 -232 -96q-121 0 -198 72q-77 74 -77 186zM91 250q0 -85 56 -139q57 -54 150 -54q102 0 174 73q72 74 72 168q0 86 -57 142q-58 56 -150 56q-104 0 -174 -76q-71 -76 -71 -170z
" />
    <glyph glyph-name="P.smcp" horiz-adv-x="498" 
d="M86 0h-78l112 558h178q75 0 123 -45q49 -43 49 -112q0 -74 -58 -132q-57 -57 -142 -57h-141zM184 487l-42 -204h134q47 0 82 35q34 35 34 81q0 39 -27 63.5t-72 24.5h-109z" />
    <glyph glyph-name="Q.smcp" horiz-adv-x="662" 
d="M16 245q0 129 94 224q94 97 229 97q122 0 200 -75q78 -74 78 -188q0 -69 -31.5 -133t-86.5 -109l40 -60l-56 -38l-41 60q-69 -36 -151 -36q-121 0 -198 72q-77 74 -77 186zM91 250q0 -85 56 -139q57 -54 150 -54q55 0 106 24l-76 114l57 38l75 -114q84 73 84 179
q0 86 -57 142q-58 56 -150 56q-104 0 -174 -76q-71 -76 -71 -170z" />
    <glyph glyph-name="R.smcp" horiz-adv-x="526" 
d="M86 0h-78l113 558h184q76 0 124 -45q49 -43 49 -112q0 -59 -40 -111q-38 -50 -102 -70l91 -220h-83l-87 213h-128zM184 487l-42 -204h139q49 0 84 35t35 81q0 39 -27.5 63.5t-72.5 24.5h-116z" />
    <glyph glyph-name="S.smcp" horiz-adv-x="469" 
d="M-9 129l65 28q24 -99 139 -99q52 0 86 28q35 29 35 66q0 38 -25 62.5t-85 52.5q-65 28 -96.5 62t-31.5 83q0 63 50 110t127 47q58 0 101.5 -28t58.5 -77l-66 -31q-25 66 -99 66q-38 0 -66 -23.5t-28 -52.5q0 -32 21.5 -52.5t73.5 -43.5q143 -65 143 -165q0 -70 -54 -122
q-53 -52 -149 -52q-75 0 -132 36q-58 36 -68 105z" />
    <glyph glyph-name="T.smcp" horiz-adv-x="442" 
d="M188 0h-77l99 487h-155l14 71h386l-13 -71h-155z" />
    <glyph glyph-name="U.smcp" horiz-adv-x="605" 
d="M39 176q0 35 7 66l64 316h78l-68 -333q-5 -25 -5 -43q0 -58 36 -90t102 -32t111.5 38.5t60.5 111.5l71 348h77l-73 -362q-20 -102 -87.5 -154.5t-164.5 -52.5q-96 0 -152.5 51t-56.5 136z" />
    <glyph glyph-name="V.smcp" horiz-adv-x="573" 
d="M242 0h-55l-118 558h78l90 -431l268 431h85z" />
    <glyph glyph-name="W.smcp" horiz-adv-x="812" 
d="M193 0h-50l-76 558h73l56 -412l226 412h54l51 -412l223 412h81l-304 -558h-50l-54 417z" />
    <glyph glyph-name="X.smcp" horiz-adv-x="565" 
d="M57 0h-92l255 292l-130 266h80l105 -210l187 210h93l-243 -278l146 -280h-82l-118 225z" />
    <glyph glyph-name="Y.smcp" horiz-adv-x="543" 
d="M230 0h-77l44 223l-140 335h79l112 -266l209 266h89l-274 -348z" />
    <glyph glyph-name="Z.smcp" horiz-adv-x="553" 
d="M444 0h-460l10 48l430 439h-307l15 71h418l-11 -52l-429 -436h348z" />
    <glyph glyph-name="Agrave.smcp" horiz-adv-x="602" 
d="M367 596h-57l-58 116h97zM38 0h-82l361 558h54l133 -558h-76l-30 128h-277zM323 443l-156 -245h214z" />
    <glyph glyph-name="Aacute.smcp" horiz-adv-x="602" 
d="M366 596h-57l66 116h98zM38 0h-82l361 558h54l133 -558h-76l-30 128h-277zM323 443l-156 -245h214z" />
    <glyph glyph-name="Acircumflex.smcp" horiz-adv-x="602" 
d="M301 615h-94l134 97h61l92 -97h-85l-42 50zM38 0h-82l361 558h54l133 -558h-76l-30 128h-277zM323 443l-156 -245h214z" />
    <glyph glyph-name="Atilde.smcp" horiz-adv-x="602" 
d="M268 602l-46 4q26 81 97 81q22 0 50 -14q30 -14 40 -14q29 0 43 29l47 -4q-13 -44 -36 -64.5t-63 -20.5q-23 0 -51 14q-27 15 -40 15q-27 0 -41 -26zM38 0h-82l361 558h54l133 -558h-76l-30 128h-277zM323 443l-156 -245h214z" />
    <glyph glyph-name="Adieresis.smcp" horiz-adv-x="602" 
d="M440 588q-20 0 -32 11.5t-12 30.5q0 21 16 37.5t37 16.5q20 0 32.5 -12t12.5 -31q0 -21 -15.5 -37t-38.5 -16zM265 588q-20 0 -32 11.5t-12 30.5q0 21 16 37.5t37 16.5q20 0 32.5 -12t12.5 -31q0 -21 -15.5 -37t-38.5 -16zM38 0h-82l361 558h54l133 -558h-76l-30 128
h-277zM323 443l-156 -245h214z" />
    <glyph glyph-name="Amacron.smcp" horiz-adv-x="602" 
d="M477 615h-250l14 68h250zM38 0h-82l361 558h54l133 -558h-76l-30 128h-277zM323 443l-156 -245h214z" />
    <glyph glyph-name="Abreve.smcp" horiz-adv-x="602" 
d="M358 601q-58 0 -90.5 32t-32.5 91h67q8 -59 65 -59t81 59h70q-16 -60 -57.5 -91.5t-102.5 -31.5zM38 0h-82l361 558h54l133 -558h-76l-30 128h-277zM323 443l-156 -245h214z" />
    <glyph glyph-name="Aring.smcp" horiz-adv-x="582" 
d="M31 0h-85l356 525q-49 18 -49 70q0 39 29 68q28 30 70 30q35 0 58.5 -21.5t23.5 -55.5q0 -33 -22.5 -60t-57.5 -34l140 -522h-78l-34 128h-263zM339 570q18 0 31 12.5t13 29.5q0 14 -9.5 22.5t-25.5 8.5q-18 0 -31 -13t-13 -29q0 -14 9.5 -22.5t25.5 -8.5zM308 409
l-141 -211h196z" />
    <glyph glyph-name="Aringacute.smcp" horiz-adv-x="582" 
d="M407 738h-58l66 116h98zM31 0h-85l356 525q-49 18 -49 70q0 39 29 68q28 30 70 30q35 0 58.5 -21.5t23.5 -55.5q0 -33 -22.5 -60t-57.5 -34l140 -522h-78l-34 128h-263zM339 570q18 0 31 12.5t13 29.5q0 14 -9.5 22.5t-25.5 8.5q-18 0 -31 -13t-13 -29q0 -14 9.5 -22.5
t25.5 -8.5zM308 409l-141 -211h196z" />
    <glyph glyph-name="Aogonek.smcp" horiz-adv-x="602" 
d="M38 0h-82l361 558h54l133 -558q-27 -7 -57 -31q-28 -24 -28 -48q0 -27 35 -27q24 0 52 12l-25 -57q-27 -11 -50 -11q-33 0 -55 17.5t-22 46.5q0 50 75 96l-1 3l-30 127h-277zM323 443l-156 -245h214z" />
    <glyph glyph-name="AE.smcp" horiz-adv-x="758" 
d="M18 0h-97l564 558h261l-14 -71h-202l-33 -158h186l-12 -70h-187l-39 -189h208l-13 -70h-286l27 132h-229zM439 417l-218 -215h173z" />
    <glyph glyph-name="AEacute.smcp" horiz-adv-x="758" 
d="M542 596h-58l67 116h97zM18 0h-97l564 558h261l-14 -71h-202l-33 -158h186l-12 -70h-187l-39 -189h208l-13 -70h-286l27 132h-229zM439 417l-218 -215h173z" />
    <glyph glyph-name="Cacute.smcp" horiz-adv-x="570" 
d="M388 596h-57l63 116h96zM18 247q0 130 94 225q94 97 229 97q142 0 221 -103l-56 -45q-58 78 -168 78q-104 0 -174 -76q-71 -77 -71 -171q0 -84 56 -140q57 -54 150 -54q97 0 163 68l45 -50q-89 -88 -214 -88q-122 0 -198 73q-77 74 -77 186z" />
    <glyph glyph-name="Ccircumflex.smcp" horiz-adv-x="570" 
d="M18 247q0 130 94 225q94 97 229 97q142 0 221 -103l-56 -45q-58 78 -168 78q-104 0 -174 -76q-71 -77 -71 -171q0 -84 56 -140q57 -54 150 -54q97 0 163 68l45 -50q-89 -88 -214 -88q-122 0 -198 73q-77 74 -77 186zM320 615h-94l134 97h61l92 -97h-85l-42 50z" />
    <glyph glyph-name="Ccaron.smcp" horiz-adv-x="570" 
d="M18 247q0 130 94 225q94 97 229 97q142 0 221 -103l-56 -45q-58 78 -168 78q-104 0 -174 -76q-71 -77 -71 -171q0 -84 56 -140q57 -54 150 -54q97 0 163 68l45 -50q-89 -88 -214 -88q-122 0 -198 73q-77 74 -77 186zM405 615h-61l-92 97h85l42 -50l66 50h94z" />
    <glyph glyph-name="Cdotaccent.smcp" horiz-adv-x="570" 
d="M371 607q-20 0 -32 11.5t-12 30.5q0 21 16 37.5t37 16.5q20 0 32.5 -12t12.5 -31q0 -21 -15.5 -37t-38.5 -16zM18 247q0 130 94 225q94 97 229 97q142 0 221 -103l-56 -45q-58 78 -168 78q-104 0 -174 -76q-71 -77 -71 -171q0 -84 56 -140q57 -54 150 -54q97 0 163 68
l45 -50q-89 -88 -214 -88q-122 0 -198 73q-77 74 -77 186z" />
    <glyph glyph-name="Ccedilla.smcp" horiz-adv-x="570" 
d="M124 -143l26 36q19 -16 45 -16q17 0 28 9t11 25t-10.5 21.5t-40.5 7.5h-1l34 57q-90 21 -144 88t-54 162q0 130 94 225q94 97 229 97q142 0 221 -103l-56 -45q-58 78 -168 78q-104 0 -174 -76q-71 -77 -71 -171q0 -84 56 -140q57 -54 150 -54q97 0 163 68l45 -50
q-89 -88 -214 -88q-4 0 -28 2l-14 -22q41 -8 41 -56q0 -38 -25 -58t-71 -20t-72 23z" />
    <glyph glyph-name="Dcaron.smcp" horiz-adv-x="624" 
d="M253 0h-245l112 558h176q123 0 200 -73q78 -73 78 -185q0 -118 -93 -209q-91 -91 -228 -91zM186 487l-87 -417h158q100 0 171 68q71 69 71 157q0 84 -57 138t-147 54h-109zM365 615h-61l-92 97h85l42 -50l66 50h94z" />
    <glyph glyph-name="Dcroat.smcp" horiz-adv-x="624" 
d="M253 0h-245l50 251h-56l14 70h56l48 237h176q123 0 200 -73q78 -73 78 -185q0 -118 -93 -209q-91 -91 -228 -91zM137 251l-38 -181h158q100 0 171 68q71 69 71 157q0 84 -57 138t-147 54h-109l-35 -166h122l-14 -70h-122z" />
    <glyph glyph-name="Egrave.smcp" horiz-adv-x="457" 
d="M327 596h-57l-58 116h97zM339 0h-331l112 558h326l-14 -71h-248l-33 -157h232l-13 -71h-231l-40 -189h254z" />
    <glyph glyph-name="Eacute.smcp" horiz-adv-x="457" 
d="M308 596h-58l66 116h98zM339 0h-331l112 558h326l-14 -71h-248l-33 -157h232l-13 -71h-231l-40 -189h254z" />
    <glyph glyph-name="Ecircumflex.smcp" horiz-adv-x="457" 
d="M339 0h-331l112 558h326l-14 -71h-248l-33 -157h232l-13 -71h-231l-40 -189h254zM239 615h-94l134 97h61l92 -97h-85l-42 50z" />
    <glyph glyph-name="Ecaron.smcp" horiz-adv-x="457" 
d="M339 0h-331l112 558h326l-14 -71h-248l-33 -157h232l-13 -71h-231l-40 -189h254zM325 615h-61l-92 97h85l42 -50l66 50h94z" />
    <glyph glyph-name="Edieresis.smcp" horiz-adv-x="457" 
d="M383 607q-20 0 -32 11.5t-12 30.5q0 21 16 37.5t37 16.5q20 0 32.5 -12t12.5 -31q0 -21 -15.5 -37t-38.5 -16zM208 607q-20 0 -32 11.5t-12 30.5q0 21 16 37.5t37 16.5q20 0 32.5 -12t12.5 -31q0 -21 -15.5 -37t-38.5 -16zM339 0h-331l112 558h326l-14 -71h-248l-33 -157
h232l-13 -71h-231l-40 -189h254z" />
    <glyph glyph-name="Emacron.smcp" horiz-adv-x="457" 
d="M418 615h-250l14 68h250zM339 0h-331l112 558h326l-14 -71h-248l-33 -157h232l-13 -71h-231l-40 -189h254z" />
    <glyph glyph-name="Ebreve.smcp" horiz-adv-x="457" 
d="M293 601q-58 0 -90.5 32t-32.5 91h67q8 -59 65 -59t81 59h70q-16 -60 -57.5 -91.5t-102.5 -31.5zM339 0h-331l112 558h326l-14 -71h-248l-33 -157h232l-13 -71h-231l-40 -189h254z" />
    <glyph glyph-name="Edotaccent.smcp" horiz-adv-x="457" 
d="M290 607q-20 0 -32 11.5t-12 30.5q0 21 16 37.5t37 16.5q20 0 32.5 -12t12.5 -31q0 -21 -15.5 -37t-38.5 -16zM339 0h-331l112 558h326l-14 -71h-248l-33 -157h232l-13 -71h-231l-40 -189h254z" />
    <glyph glyph-name="Eogonek.smcp" horiz-adv-x="457" 
d="M277 0h-269l112 558h326l-14 -71h-248l-33 -157h232l-13 -71h-231l-40 -189h254l-14 -70q-79 -40 -79 -79q0 -27 35 -27q23 0 52 12l-24 -57q-28 -11 -51 -11q-33 0 -55 17.5t-22 46.5q0 55 82 98z" />
    <glyph glyph-name="Gcircumflex.smcp" horiz-adv-x="615" 
d="M18 237q0 135 94 233q95 99 244 99q126 0 211 -93l-56 -50q-61 73 -161 73q-104 0 -181 -74q-75 -73 -75 -170q0 -91 59.5 -144t160.5 -53q71 0 131 36l30 144h-175l13 70h250l-48 -250q-41 -33 -97.5 -51.5t-109.5 -18.5q-130 0 -210 74t-80 175zM316 615h-94l134 97h61
l92 -97h-85l-42 50z" />
    <glyph glyph-name="Gbreve.smcp" horiz-adv-x="615" 
d="M372 601q-58 0 -90.5 32t-32.5 91h67q8 -59 65 -59t81 59h70q-16 -60 -57.5 -91.5t-102.5 -31.5zM18 237q0 135 94 233q95 99 244 99q126 0 211 -93l-56 -50q-61 73 -161 73q-104 0 -181 -74q-75 -73 -75 -170q0 -91 59.5 -144t160.5 -53q71 0 131 36l30 144h-175l13 70
h250l-48 -250q-41 -33 -97.5 -51.5t-109.5 -18.5q-130 0 -210 74t-80 175z" />
    <glyph glyph-name="Gdotaccent.smcp" horiz-adv-x="615" 
d="M369 607q-20 0 -32 11.5t-12 30.5q0 21 16 37.5t37 16.5q20 0 32.5 -12t12.5 -31q0 -21 -15.5 -37t-38.5 -16zM18 237q0 135 94 233q95 99 244 99q126 0 211 -93l-56 -50q-61 73 -161 73q-104 0 -181 -74q-75 -73 -75 -170q0 -91 59.5 -144t160.5 -53q71 0 131 36l30 144
h-175l13 70h250l-48 -250q-41 -33 -97.5 -51.5t-109.5 -18.5q-130 0 -210 74t-80 175z" />
    <glyph glyph-name="Gcommaaccent.smcp" horiz-adv-x="615" 
d="M18 237q0 135 94 233q95 99 244 99q126 0 211 -93l-56 -50q-61 73 -161 73q-104 0 -181 -74q-75 -73 -75 -170q0 -91 59.5 -144t160.5 -53q71 0 131 36l30 144h-175l13 70h250l-48 -250q-41 -33 -97.5 -51.5t-109.5 -18.5q-130 0 -210 74t-80 175zM214 -154h-57l62 116
h97z" />
    <glyph glyph-name="Hcircumflex.smcp" horiz-adv-x="630" 
d="M86 0h-78l112 558h78l-46 -227h317l46 227h78l-113 -558h-77l53 261h-317zM307 615h-94l134 97h61l92 -97h-85l-42 50z" />
    <glyph glyph-name="Hbar.smcp" horiz-adv-x="630" 
d="M86 0h-78l80 399h-49l14 66h48l19 93h78l-19 -93h317l19 93h78l-19 -93h51l-14 -66h-51l-80 -399h-77l53 261h-317zM166 399l-14 -68h317l14 68h-317z" />
    <glyph glyph-name="Igrave.smcp" horiz-adv-x="241" 
d="M202 596h-57l-58 116h97zM88 0h-77l114 558h77z" />
    <glyph glyph-name="Iacute.smcp" horiz-adv-x="241" 
d="M194 596h-57l66 116h98zM88 0h-77l114 558h77z" />
    <glyph glyph-name="Icircumflex.smcp" horiz-adv-x="241" 
d="M88 0h-77l114 558h77zM124 615h-94l128 97h61l86 -97h-85l-36 50z" />
    <glyph glyph-name="Itilde.smcp" horiz-adv-x="241" 
d="M83 602l-47 4q12 37 38 59t59 22q22 0 50 -14q30 -14 41 -14q26 0 43 29l47 -4q-28 -85 -99 -85q-22 0 -52 14q-27 15 -40 15q-26 0 -40 -26zM88 0h-77l114 558h77z" />
    <glyph glyph-name="Idieresis.smcp" horiz-adv-x="241" 
d="M249 607q-20 0 -32 11.5t-12 30.5q0 21 16 37.5t37 16.5q20 0 32.5 -12t12.5 -31q0 -21 -15.5 -37t-38.5 -16zM97 607q-20 0 -32 11.5t-12 30.5q0 21 16 37.5t37 16.5q20 0 32.5 -12t12.5 -31q0 -21 -15.5 -37t-38.5 -16zM88 0h-77l114 558h77z" />
    <glyph glyph-name="Imacron.smcp" horiz-adv-x="241" 
d="M293 615h-250l14 68h250zM88 0h-77l114 558h77z" />
    <glyph glyph-name="Ibreve.smcp" horiz-adv-x="241" 
d="M173 601q-58 0 -90.5 32t-32.5 91h67q8 -59 65 -59t81 59h70q-16 -60 -57.5 -91.5t-102.5 -31.5zM88 0h-77l114 558h77z" />
    <glyph glyph-name="Idotaccent.smcp" horiz-adv-x="241" 
d="M175 607q-20 0 -32 11.5t-12 30.5q0 21 16 37.5t37 16.5q20 0 32.5 -12t12.5 -31q0 -21 -15.5 -37t-38.5 -16zM88 0h-77l114 558h77z" />
    <glyph glyph-name="Iogonek.smcp" horiz-adv-x="241" 
d="M9 -8l1 1l115 565h77l-114 -558q-22 -4 -52 -30t-30 -49q0 -27 34 -27q24 0 52 12l-24 -57q-28 -11 -50 -11q-33 0 -55 17.5t-22 46.5q0 52 68 90z" />
    <glyph glyph-name="IJ.smcp" horiz-adv-x="474" 
d="M26 9l14 70q55 -20 118 -20q90 0 115 96l82 403h75l-81 -400q-13 -67 -47 -114q-43 -57 -141 -57q-87 0 -135 22zM130 141h-76l84 417h75z" />
    <glyph glyph-name="Jcircumflex.smcp" horiz-adv-x="297" 
d="M34 -9q-49 0 -76 13l13 69q21 -10 60 -10q22 0 37 16q14 14 20 30t13 50l82 399h75l-80 -396l-12 -52q-5 -18 -15 -44q-15 -37 -42 -54t-75 -21zM177 615h-94l128 97h61l86 -97h-85l-36 50z" />
    <glyph glyph-name="Kcommaaccent.smcp" horiz-adv-x="543" 
d="M85 0h-77l112 558h77l-56 -275l317 275h100l-287 -254l180 -304h-85l-152 258l-93 -80zM113 -154l66 116h97l-105 -116h-58z" />
    <glyph glyph-name="Lacute.smcp" horiz-adv-x="428" 
d="M204 596h-58l67 116h97zM323 0h-315l112 558h78l-99 -488h237z" />
    <glyph glyph-name="Lcaron.smcp" horiz-adv-x="428" 
d="M290 442h-57l66 116h98zM323 0h-315l112 558h78l-99 -488h237z" />
    <glyph glyph-name="Lcommaaccent.smcp" horiz-adv-x="428" 
d="M323 0h-315l112 558h78l-99 -488h237zM53 -154l65 116h98l-105 -116h-58z" />
    <glyph glyph-name="Ldot.smcp" horiz-adv-x="428" 
d="M323 0h-315l112 558h78l-99 -488h237zM262 245q-20 0 -32 11.5t-12 30.5q0 21 16 37.5t37 16.5q20 0 32.5 -12t12.5 -31q0 -21 -15.5 -37t-38.5 -16z" />
    <glyph glyph-name="Lslash.smcp" horiz-adv-x="427" 
d="M323 0h-315l44 219l-63 -29l15 74l63 29l53 265h78l-47 -229l132 62l-15 -74l-132 -63l-37 -184h237z" />
    <glyph glyph-name="Nacute.smcp" horiz-adv-x="650" 
d="M370 596h-58l67 116h97zM85 0h-77l113 558h68l259 -436l89 436h77l-113 -558h-63l-264 443z" />
    <glyph glyph-name="Ncaron.smcp" horiz-adv-x="650" 
d="M85 0h-77l113 558h68l259 -436l89 436h77l-113 -558h-63l-264 443zM404 615h-61l-92 97h85l42 -50l66 50h94z" />
    <glyph glyph-name="Ntilde.smcp" horiz-adv-x="650" 
d="M284 602l-46 4q12 37 38 59t59 22q22 0 50 -14q30 -14 40 -14q29 0 43 29l47 -4q-25 -85 -99 -85q-23 0 -51 14q-27 15 -40 15q-27 0 -41 -26zM85 0h-77l113 558h68l259 -436l89 436h77l-113 -558h-63l-264 443z" />
    <glyph glyph-name="Ncommaaccent.smcp" horiz-adv-x="650" 
d="M215 -154h-57l65 116h97zM85 0h-77l113 558h68l259 -436l89 436h77l-113 -558h-63l-264 443z" />
    <glyph glyph-name="Ograve.smcp" horiz-adv-x="661" 
d="M403 596h-58l-54 116h97zM16 245q0 129 94 224q94 97 229 97q122 0 200 -75q78 -74 78 -188q0 -125 -94 -220q-93 -96 -232 -96q-121 0 -198 72q-77 74 -77 186zM91 250q0 -85 56 -139q57 -54 150 -54q102 0 174 73q72 74 72 168q0 86 -57 142q-58 56 -150 56
q-104 0 -174 -76q-71 -76 -71 -170z" />
    <glyph glyph-name="Oacute.smcp" horiz-adv-x="661" 
d="M387 596h-57l62 116h97zM16 245q0 129 94 224q94 97 229 97q122 0 200 -75q78 -74 78 -188q0 -125 -94 -220q-93 -96 -232 -96q-121 0 -198 72q-77 74 -77 186zM91 250q0 -85 56 -139q57 -54 150 -54q102 0 174 73q72 74 72 168q0 86 -57 142q-58 56 -150 56
q-104 0 -174 -76q-71 -76 -71 -170z" />
    <glyph glyph-name="Ocircumflex.smcp" horiz-adv-x="661" 
d="M16 245q0 129 94 224q94 97 229 97q122 0 200 -75q78 -74 78 -188q0 -125 -94 -220q-93 -96 -232 -96q-121 0 -198 72q-77 74 -77 186zM91 250q0 -85 56 -139q57 -54 150 -54q102 0 174 73q72 74 72 168q0 86 -57 142q-58 56 -150 56q-104 0 -174 -76q-71 -76 -71 -170z
M313 615h-94l134 97h61l92 -97h-85l-42 50z" />
    <glyph glyph-name="Otilde.smcp" horiz-adv-x="661" 
d="M290 602l-46 4q12 37 37 59t57 22q20 0 46 -14t37 -14q25 0 40 29l47 -4q-25 -85 -96 -85q-22 0 -48 14q-26 15 -36 15q-24 0 -38 -26zM16 245q0 129 94 224q94 97 229 97q122 0 200 -75q78 -74 78 -188q0 -125 -94 -220q-93 -96 -232 -96q-121 0 -198 72q-77 74 -77 186
zM91 250q0 -85 56 -139q57 -54 150 -54q102 0 174 73q72 74 72 168q0 86 -57 142q-58 56 -150 56q-104 0 -174 -76q-71 -76 -71 -170z" />
    <glyph glyph-name="Odieresis.smcp" horiz-adv-x="661" 
d="M447 588q-20 0 -32 11.5t-12 30.5q0 21 16 37.5t37 16.5q20 0 32.5 -12t12.5 -31q0 -21 -15.5 -37t-38.5 -16zM272 588q-20 0 -32 11.5t-12 30.5q0 21 16 37.5t37 16.5q20 0 32.5 -12t12.5 -31q0 -21 -15.5 -37t-38.5 -16zM16 245q0 129 94 224q94 97 229 97
q122 0 200 -75q78 -74 78 -188q0 -125 -94 -220q-93 -96 -232 -96q-121 0 -198 72q-77 74 -77 186zM91 250q0 -85 56 -139q57 -54 150 -54q102 0 174 73q72 74 72 168q0 86 -57 142q-58 56 -150 56q-104 0 -174 -76q-71 -76 -71 -170z" />
    <glyph glyph-name="Omacron.smcp" horiz-adv-x="661" 
d="M478 616h-235l14 68h235zM16 245q0 129 94 224q94 97 229 97q122 0 200 -75q78 -74 78 -188q0 -125 -94 -220q-93 -96 -232 -96q-121 0 -198 72q-77 74 -77 186zM91 250q0 -85 56 -139q57 -54 150 -54q102 0 174 73q72 74 72 168q0 86 -57 142q-58 56 -150 56
q-104 0 -174 -76q-71 -76 -71 -170z" />
    <glyph glyph-name="Obreve.smcp" horiz-adv-x="661" 
d="M366 601q-58 0 -90.5 32t-32.5 91h67q8 -59 65 -59t81 59h70q-16 -60 -57.5 -91.5t-102.5 -31.5zM16 245q0 129 94 224q94 97 229 97q122 0 200 -75q78 -74 78 -188q0 -125 -94 -220q-93 -96 -232 -96q-121 0 -198 72q-77 74 -77 186zM91 250q0 -85 56 -139
q57 -54 150 -54q102 0 174 73q72 74 72 168q0 86 -57 142q-58 56 -150 56q-104 0 -174 -76q-71 -76 -71 -170z" />
    <glyph glyph-name="Ohungarumlaut.smcp" horiz-adv-x="661" 
d="M444 596h-53l71 116h93zM321 596h-53l70 116h93zM16 245q0 129 94 224q94 97 229 97q122 0 200 -75q78 -74 78 -188q0 -125 -94 -220q-93 -96 -232 -96q-121 0 -198 72q-77 74 -77 186zM91 250q0 -85 56 -139q57 -54 150 -54q102 0 174 73q72 74 72 168q0 86 -57 142
q-58 56 -150 56q-104 0 -174 -76q-71 -76 -71 -170z" />
    <glyph glyph-name="Oslash.smcp" horiz-adv-x="662" 
d="M66 -38l-46 41l63 66q-67 71 -67 176q0 129 94 224q94 97 229 97q96 0 169 -50l70 74l46 -41l-70 -74q63 -71 63 -172q0 -125 -94 -220q-93 -96 -232 -96q-90 0 -160 43zM135 124l322 339q-53 33 -121 33q-104 0 -174 -76q-71 -76 -71 -170q0 -73 44 -126zM503 421
l-320 -336q47 -28 114 -28q102 0 174 73q72 74 72 168q0 73 -40 123z" />
    <glyph glyph-name="Oslashacute.smcp" horiz-adv-x="662" 
d="M397 596h-57l63 116h97zM66 -38l-46 41l63 66q-67 71 -67 176q0 129 94 224q94 97 229 97q96 0 169 -50l70 74l46 -41l-70 -74q63 -71 63 -172q0 -125 -94 -220q-93 -96 -232 -96q-90 0 -160 43zM135 124l322 339q-53 33 -121 33q-104 0 -174 -76q-71 -76 -71 -170
q0 -73 44 -126zM503 421l-320 -336q47 -28 114 -28q102 0 174 73q72 74 72 168q0 73 -40 123z" />
    <glyph glyph-name="OE.smcp" horiz-adv-x="894" 
d="M20 245q0 129 94 224q94 97 229 97q76 0 142 -32q65 -32 92 -83l22 107h284l-14 -71h-206l-33 -157h190l-13 -71h-189l-40 -189h212l-14 -70h-289l14 70q-71 -83 -206 -83q-121 0 -198 72q-77 74 -77 186zM95 250q0 -85 56 -139q57 -54 150 -54q110 0 181 77
q70 76 70 179q0 80 -59 131q-58 52 -153 52q-104 0 -174 -76q-71 -76 -71 -170z" />
    <glyph glyph-name="Racute.smcp" horiz-adv-x="526" 
d="M317 596h-57l66 116h97zM86 0h-78l113 558h184q76 0 124 -45q49 -43 49 -112q0 -59 -40 -111q-38 -50 -102 -70l91 -220h-83l-87 213h-128zM184 487l-42 -204h139q49 0 84 35t35 81q0 39 -27.5 63.5t-72.5 24.5h-116z" />
    <glyph glyph-name="Rcaron.smcp" horiz-adv-x="526" 
d="M86 0h-78l113 558h184q76 0 124 -45q49 -43 49 -112q0 -59 -40 -111q-38 -50 -102 -70l91 -220h-83l-87 213h-128zM184 487l-42 -204h139q49 0 84 35t35 81q0 39 -27.5 63.5t-72.5 24.5h-116zM328 615h-61l-92 97h85l42 -50l66 50h94z" />
    <glyph glyph-name="Rcommaaccent.smcp" horiz-adv-x="526" 
d="M86 0h-78l113 558h184q76 0 124 -45q49 -43 49 -112q0 -59 -40 -111q-38 -50 -102 -70l91 -220h-83l-87 213h-128zM184 487l-42 -204h139q49 0 84 35t35 81q0 39 -27.5 63.5t-72.5 24.5h-116zM100 -154l65 116h98l-105 -116h-58z" />
    <glyph glyph-name="Sacute.smcp" horiz-adv-x="469" 
d="M316 596h-57l66 116h98zM-9 129l65 28q24 -99 139 -99q52 0 86 28q35 29 35 66q0 38 -25 62.5t-85 52.5q-65 28 -96.5 62t-31.5 83q0 63 50 110t127 47q58 0 101.5 -28t58.5 -77l-66 -31q-25 66 -99 66q-38 0 -66 -23.5t-28 -52.5q0 -32 21.5 -52.5t73.5 -43.5
q143 -65 143 -165q0 -70 -54 -122q-53 -52 -149 -52q-75 0 -132 36q-58 36 -68 105z" />
    <glyph glyph-name="Scircumflex.smcp" horiz-adv-x="469" 
d="M-9 129l65 28q24 -99 139 -99q52 0 86 28q35 29 35 66q0 38 -25 62.5t-85 52.5q-65 28 -96.5 62t-31.5 83q0 63 50 110t127 47q58 0 101.5 -28t58.5 -77l-66 -31q-25 66 -99 66q-38 0 -66 -23.5t-28 -52.5q0 -32 21.5 -52.5t73.5 -43.5q143 -65 143 -165q0 -70 -54 -122
q-53 -52 -149 -52q-75 0 -132 36q-58 36 -68 105zM221 615h-94l134 97h61l92 -97h-85l-42 50z" />
    <glyph glyph-name="Scaron.smcp" horiz-adv-x="469" 
d="M-9 129l65 28q24 -99 139 -99q52 0 86 28q35 29 35 66q0 38 -25 62.5t-85 52.5q-65 28 -96.5 62t-31.5 83q0 63 50 110t127 47q58 0 101.5 -28t58.5 -77l-66 -31q-25 66 -99 66q-38 0 -66 -23.5t-28 -52.5q0 -32 21.5 -52.5t73.5 -43.5q143 -65 143 -165q0 -70 -54 -122
q-53 -52 -149 -52q-75 0 -132 36q-58 36 -68 105zM313 615h-61l-92 97h85l42 -50l66 50h94z" />
    <glyph glyph-name="Scommaaccent.smcp" horiz-adv-x="469" 
d="M-9 129l65 28q24 -99 139 -99q52 0 86 28q35 29 35 66q0 38 -25 62.5t-85 52.5q-65 28 -96.5 62t-31.5 83q0 63 50 110t127 47q58 0 101.5 -28t58.5 -77l-66 -31q-25 66 -99 66q-38 0 -66 -23.5t-28 -52.5q0 -32 21.5 -52.5t73.5 -43.5q143 -65 143 -165q0 -70 -54 -122
q-53 -52 -149 -52q-75 0 -132 36q-58 36 -68 105zM62 -154l65 116h100l-105 -116h-60z" />
    <glyph glyph-name="Scedilla.smcp" horiz-adv-x="469" 
d="M61 -143l26 36q19 -16 45 -16q17 0 28 9t11 25q0 15 -11 21t-40 8h-1l31 51q-65 9 -107.5 44.5t-51.5 93.5l65 28q24 -99 139 -99q52 0 86 28q35 29 35 66q0 38 -25 62.5t-85 52.5q-65 28 -96.5 62t-31.5 83q0 63 50 110t127 47q58 0 101.5 -28t58.5 -77l-66 -31
q-25 66 -99 66q-38 0 -66 -23.5t-28 -52.5q0 -32 21.5 -52.5t73.5 -43.5q143 -65 143 -165q0 -66 -51 -119q-51 -51 -142 -55l-13 -20q41 -8 41 -56q0 -38 -25 -58t-71 -20t-72 23z" />
    <glyph glyph-name="germandbls.smcp" horiz-adv-x="948" 
d="M465 129l65 28q24 -99 139 -99q52 0 86 28q35 29 35 66q0 38 -25 62.5t-85 52.5q-65 28 -96.5 62t-31.5 83q0 63 50 110t127 47q58 0 101.5 -28t58.5 -77l-66 -31q-25 66 -99 66q-38 0 -66 -23.5t-28 -52.5q0 -32 21.5 -52.5t73.5 -43.5q143 -65 143 -165q0 -70 -54 -122
q-53 -52 -149 -52q-75 0 -132 36q-58 36 -68 105zM-9 129l65 28q24 -99 139 -99q52 0 86 28q35 29 35 66q0 38 -25 62.5t-85 52.5q-65 28 -96.5 62t-31.5 83q0 63 50 110t127 47q58 0 101.5 -28t58.5 -77l-66 -31q-25 66 -99 66q-38 0 -66 -23.5t-28 -52.5q0 -32 21.5 -52.5
t73.5 -43.5q143 -65 143 -165q0 -70 -54 -122q-53 -52 -149 -52q-75 0 -132 36q-58 36 -68 105z" />
    <glyph glyph-name="Tcaron.smcp" horiz-adv-x="442" 
d="M188 0h-77l99 487h-155l14 71h386l-13 -71h-155zM301 615h-61l-92 97h85l42 -50l66 50h94z" />
    <glyph glyph-name="Tcommaaccent.smcp" horiz-adv-x="442" 
d="M188 0h-77l99 487h-155l14 71h386l-13 -71h-155zM32 -154l66 116h97l-105 -116h-58z" />
    <glyph glyph-name="Tbar.smcp" horiz-adv-x="442" 
d="M188 0h-77l56 277h-82l14 67h82l29 143h-155l14 71h386l-13 -71h-155l-29 -143h91l-14 -67h-91z" />
    <glyph glyph-name="Ugrave.smcp" horiz-adv-x="605" 
d="M379 596h-57l-58 116h97zM39 176q0 35 7 66l64 316h78l-68 -333q-5 -25 -5 -43q0 -58 36 -90t102 -32t111.5 38.5t60.5 111.5l71 348h77l-73 -362q-20 -102 -87.5 -154.5t-164.5 -52.5q-96 0 -152.5 51t-56.5 136z" />
    <glyph glyph-name="Uacute.smcp" horiz-adv-x="605" 
d="M361 596h-57l66 116h97zM39 176q0 35 7 66l64 316h78l-68 -333q-5 -25 -5 -43q0 -58 36 -90t102 -32t111.5 38.5t60.5 111.5l71 348h77l-73 -362q-20 -102 -87.5 -154.5t-164.5 -52.5q-96 0 -152.5 51t-56.5 136z" />
    <glyph glyph-name="Ucircumflex.smcp" horiz-adv-x="605" 
d="M39 176q0 35 7 66l64 316h78l-68 -333q-5 -25 -5 -43q0 -58 36 -90t102 -32t111.5 38.5t60.5 111.5l71 348h77l-73 -362q-20 -102 -87.5 -154.5t-164.5 -52.5q-96 0 -152.5 51t-56.5 136zM300 615h-94l134 97h61l92 -97h-85l-42 50z" />
    <glyph glyph-name="Utilde.smcp" horiz-adv-x="605" 
d="M266 602l-46 4q12 37 38 59t59 22q22 0 50 -14q30 -14 40 -14q29 0 43 29l47 -4q-25 -85 -99 -85q-23 0 -51 14q-27 15 -40 15q-27 0 -41 -26zM39 176q0 35 7 66l64 316h78l-68 -333q-5 -25 -5 -43q0 -58 36 -90t102 -32t111.5 38.5t60.5 111.5l71 348h77l-73 -362
q-20 -102 -87.5 -154.5t-164.5 -52.5q-96 0 -152.5 51t-56.5 136z" />
    <glyph glyph-name="Udieresis.smcp" horiz-adv-x="605" 
d="M439 588q-20 0 -32 11.5t-12 30.5q0 21 16 37.5t37 16.5q20 0 32.5 -12t12.5 -31q0 -21 -15.5 -37t-38.5 -16zM264 588q-20 0 -32 11.5t-12 30.5q0 21 16 37.5t37 16.5q20 0 32.5 -12t12.5 -31q0 -21 -15.5 -37t-38.5 -16zM39 176q0 35 7 66l64 316h78l-68 -333
q-5 -25 -5 -43q0 -58 36 -90t102 -32t111.5 38.5t60.5 111.5l71 348h77l-73 -362q-20 -102 -87.5 -154.5t-164.5 -52.5q-96 0 -152.5 51t-56.5 136z" />
    <glyph glyph-name="Umacron.smcp" horiz-adv-x="605" 
d="M473 615h-250l14 68h250zM39 176q0 35 7 66l64 316h78l-68 -333q-5 -25 -5 -43q0 -58 36 -90t102 -32t111.5 38.5t60.5 111.5l71 348h77l-73 -362q-20 -102 -87.5 -154.5t-164.5 -52.5q-96 0 -152.5 51t-56.5 136z" />
    <glyph glyph-name="Ubreve.smcp" horiz-adv-x="605" 
d="M349 601q-58 0 -90.5 32t-32.5 91h67q8 -59 65 -59t81 59h70q-16 -60 -57.5 -91.5t-102.5 -31.5zM39 176q0 35 7 66l64 316h78l-68 -333q-5 -25 -5 -43q0 -58 36 -90t102 -32t111.5 38.5t60.5 111.5l71 348h77l-73 -362q-20 -102 -87.5 -154.5t-164.5 -52.5
q-96 0 -152.5 51t-56.5 136z" />
    <glyph glyph-name="Uring.smcp" horiz-adv-x="605" 
d="M340 569q-35 0 -58 21t-23 54q0 39 29 68q28 30 70 30q35 0 58.5 -21.5t23.5 -55.5q0 -36 -29 -67q-29 -29 -71 -29zM345 619q18 0 31 12.5t13 29.5q0 14 -9.5 22.5t-25.5 8.5q-18 0 -31 -13t-13 -29q0 -14 9.5 -22.5t25.5 -8.5zM39 176q0 35 7 66l64 316h78l-68 -333
q-5 -25 -5 -43q0 -58 36 -90t102 -32t111.5 38.5t60.5 111.5l71 348h77l-73 -362q-20 -102 -87.5 -154.5t-164.5 -52.5q-96 0 -152.5 51t-56.5 136z" />
    <glyph glyph-name="Uhungarumlaut.smcp" horiz-adv-x="605" 
d="M420 596h-53l71 116h93zM297 596h-53l70 116h93zM39 176q0 35 7 66l64 316h78l-68 -333q-5 -25 -5 -43q0 -58 36 -90t102 -32t111.5 38.5t60.5 111.5l71 348h77l-73 -362q-20 -102 -87.5 -154.5t-164.5 -52.5q-96 0 -152.5 51t-56.5 136z" />
    <glyph glyph-name="Uogonek.smcp" horiz-adv-x="605" 
d="M39 176q0 35 7 66l64 316h78l-68 -333q-5 -25 -5 -43q0 -58 36 -90t102 -32t111.5 38.5t60.5 111.5l71 348h77l-73 -362q-23 -112 -105 -167q-13 -9 -49 -26q-41 -20 -59.5 -38.5t-18.5 -43.5q0 -27 35 -27q23 0 52 12l-24 -57q-28 -11 -51 -11q-32 0 -54 18t-22 46
q0 49 64 88q-5 -1 -20 -1q-96 0 -152.5 51t-56.5 136z" />
    <glyph glyph-name="Wgrave.smcp" horiz-adv-x="812" 
d="M488 596h-58l-58 116h97zM193 0h-50l-76 558h73l56 -412l226 412h54l51 -412l223 412h81l-304 -558h-50l-54 417z" />
    <glyph glyph-name="Wacute.smcp" horiz-adv-x="812" 
d="M477 596h-58l66 116h98zM193 0h-50l-76 558h73l56 -412l226 412h54l51 -412l223 412h81l-304 -558h-50l-54 417z" />
    <glyph glyph-name="Wcircumflex.smcp" horiz-adv-x="812" 
d="M193 0h-50l-76 558h73l56 -412l226 412h54l51 -412l223 412h81l-304 -558h-50l-54 417zM409 615h-94l134 97h61l92 -97h-85l-42 50z" />
    <glyph glyph-name="Wdieresis.smcp" horiz-adv-x="812" 
d="M546 588q-20 0 -32 11.5t-12 30.5q0 21 16 37.5t37 16.5q20 0 32.5 -12t12.5 -31q0 -21 -15.5 -37t-38.5 -16zM371 588q-20 0 -32 11.5t-12 30.5q0 21 16 37.5t37 16.5q20 0 32.5 -12t12.5 -31q0 -21 -15.5 -37t-38.5 -16zM193 0h-50l-76 558h73l56 -412l226 412h54
l51 -412l223 412h81l-304 -558h-50l-54 417z" />
    <glyph glyph-name="Ygrave.smcp" horiz-adv-x="543" 
d="M341 596h-58l-58 116h97zM230 0h-77l44 223l-140 335h79l112 -266l209 266h89l-274 -348z" />
    <glyph glyph-name="Yacute.smcp" horiz-adv-x="543" 
d="M323 596h-58l67 116h97zM230 0h-77l44 223l-140 335h79l112 -266l209 266h89l-274 -348z" />
    <glyph glyph-name="Ycircumflex.smcp" horiz-adv-x="543" 
d="M230 0h-77l44 223l-140 335h79l112 -266l209 266h89l-274 -348zM248 615h-94l134 97h61l92 -97h-85l-42 50z" />
    <glyph glyph-name="Ydieresis.smcp" horiz-adv-x="543" 
d="M388 587q-20 0 -32 11.5t-12 30.5q0 21 16 37.5t37 16.5q20 0 32.5 -12t12.5 -31q0 -21 -15.5 -37t-38.5 -16zM213 587q-20 0 -32 11.5t-12 30.5q0 21 16 37.5t37 16.5q20 0 32.5 -12t12.5 -31q0 -21 -15.5 -37t-38.5 -16zM230 0h-77l44 223l-140 335h79l112 -266
l209 266h89l-274 -348z" />
    <glyph glyph-name="Zacute.smcp" horiz-adv-x="554" 
d="M363 596h-58l66 116h98zM444 0h-460l10 48l430 439h-307l15 71h418l-11 -52l-429 -436h348z" />
    <glyph glyph-name="Zcaron.smcp" horiz-adv-x="553" 
d="M444 0h-460l10 48l430 439h-307l15 71h418l-11 -52l-429 -436h348zM382 615h-61l-92 97h85l42 -50l66 50h94z" />
    <glyph glyph-name="Zdotaccent.smcp" horiz-adv-x="553" 
d="M354 607q-20 0 -32 11.5t-12 30.5q0 21 16 37.5t37 16.5q20 0 32.5 -12t12.5 -31q0 -21 -15.5 -37t-38.5 -16zM444 0h-460l10 48l430 439h-307l15 71h418l-11 -52l-429 -436h348z" />
    <glyph glyph-name="Eng.smcp" horiz-adv-x="650" 
d="M86 0h-78l112 558h67l258 -445l91 445h78l-112 -554q-10 -55 -26 -93q-15 -38 -41 -56.5t-72 -21.5q-45 0 -70 11l14 70q24 -10 53 -10q22 0 35 16q9 10 14.5 22.5t8 21.5t7.5 35v1l-252 434z" />
    <glyph glyph-name="Eth.smcp" horiz-adv-x="624" 
d="M253 0h-245l50 251h-56l14 70h56l48 237h176q123 0 200 -73q78 -73 78 -185q0 -118 -93 -209q-91 -91 -228 -91zM137 251l-38 -181h158q100 0 171 68q71 69 71 157q0 84 -57 138t-147 54h-109l-35 -166h122l-14 -70h-122z" />
    <glyph glyph-name="Thorn.smcp" horiz-adv-x="431" 
d="M86 0h-78l112 558h78l-24 -117h30q81 0 130 -40.5t49 -108.5q0 -72 -53 -125t-141 -53h-80zM161 370l-39 -185h66q53 0 85.5 30.5t32.5 74.5q0 38 -29 59t-78 21h-38z" />
    <glyph glyph-name="arrowleft.case" horiz-adv-x="647" 
d="M266 167l-60 -50l-185 231l279 231l40 -50l-175 -145h462l-15 -72h-463z" />
    <glyph glyph-name="arrowup.case" horiz-adv-x="647" 
d="M304 70h-76l88 432l-150 -126l-44 55l262 219l174 -219l-56 -47l-107 134z" />
    <glyph glyph-name="arrowright.case" horiz-adv-x="647" 
d="M470 312h-451l14 72h469l-119 148l57 47l185 -231l-279 -231l-44 55z" />
    <glyph glyph-name="arrowdown.case" horiz-adv-x="647" 
d="M523 265l-262 -219l-174 219l56 47l107 -134l91 448h76l-88 -432l150 126z" />
    <glyph glyph-name="arrowboth.case" horiz-adv-x="924" 
d="M263 164l-57 -47l-185 231l279 231l44 -55l-168 -140h604l-119 148l57 47l185 -231l-279 -231l-44 55l168 140h-604z" />
    <glyph glyph-name="arrowupdn.case" horiz-adv-x="647" 
d="M245 -34l-157 198l56 47l90 -113l100 494l-125 -105l-44 55l237 198l157 -198l-56 -47l-90 113l-100 -494l125 105l44 -55z" />
    <glyph glyph-name="arrownorthwest.case" horiz-adv-x="647" 
d="M170 225h-76l67 328h328l-15 -74h-206l265 -334l-57 -48l-263 332z" />
    <glyph glyph-name="arrownortheast.case" horiz-adv-x="647" 
d="M464 416l-393 -324l-46 58l399 329h-197l15 74h328l-67 -328h-78z" />
    <glyph glyph-name="arrowsoutheast.case" horiz-adv-x="647" 
d="M485 136h-328l15 74h206l-267 335l57 48l265 -333l43 204h76z" />
    <glyph glyph-name="arrowsouthwest.case" horiz-adv-x="647" 
d="M404 136h-328l67 328h78l-39 -191l392 324l46 -58l-398 -329h197z" />
    <glyph glyph-name="triagup.case" horiz-adv-x="539" 
d="M430 229h-369l243 315z" />
    <glyph glyph-name="triagrt.case" horiz-adv-x="539" 
d="M453 361l-353 -190l75 369z" />
    <glyph glyph-name="triagdn.case" horiz-adv-x="539" 
d="M481 484l-254 -315l-115 315h369z" />
    <glyph glyph-name="triaglf.case" horiz-adv-x="539" 
d="M367 171l-277 190l352 179z" />
    <glyph glyph-name="uni25E2.case" horiz-adv-x="539" 
d="M402 197l-339 88l314 261z" />
    <glyph glyph-name="uni25E3.case" horiz-adv-x="539" 
d="M450 285l-375 -88l167 349z" />
    <glyph glyph-name="uni25E4.case" horiz-adv-x="539" 
d="M479 427l-314 -261l-25 349z" />
    <glyph glyph-name="uni25E5.case" horiz-adv-x="539" 
d="M467 515l-161 -357l-208 261z" />
    <glyph glyph-name="A.swsh11" horiz-adv-x="804" 
d="M143 0h-85l392 625h-106q-88 0 -146 -58q-58 -57 -58 -131q0 -85 68 -126l-42 -62q-48 27 -75 75t-27 107q0 111 83 189t209 78h198l154 -697h-78l-38 172h-341zM504 578l-207 -334h279z" />
    <glyph glyph-name="A.swsh12" horiz-adv-x="814" 
d="M39 0h-85l437 697h141q112 0 183 -60q72 -60 72 -153q0 -82 -55 -152q-53 -69 -137 -89l-16 72q58 13 95 61q37 46 37 103q0 64 -51.5 105t-134.5 41h-59l138 -625h-78l-38 172h-341zM400 578l-207 -334h279z" />
    <glyph glyph-name="A.swsh21" horiz-adv-x="1027" 
d="M12 188q0 108 79 188q80 81 188 81q118 0 193 -78l-43 -67q-61 73 -157 73q-77 0 -131 -59q-53 -59 -53 -133q0 -66 42 -106t111 -40q110 0 191 130l326 520h59l154 -697h-78l-38 172h-341l-22 -35q-50 -83 -110.5 -122.5t-147.5 -39.5q-98 0 -160 59q-62 60 -62 154z
M767 578l-207 -334h279z" />
    <glyph glyph-name="A.swsh22" horiz-adv-x="1070" 
d="M39 0h-85l437 697h59l112 -509q32 -141 161 -141q79 0 135 57q56 59 56 131q0 66 -44 108t-115 42q-84 0 -152 -62l-16 74q73 60 177 60q98 0 162 -62q64 -61 64 -156q0 -106 -76 -185t-195 -79q-187 0 -230 192l-1 5h-341zM400 578l-207 -334h279z" />
    <glyph glyph-name="B.swsh11" horiz-adv-x="840" 
d="M542 0h-273l127 625h-54q-88 0 -146 -58q-58 -57 -58 -131q0 -51 27 -88.5t76 -52.5l-30 -65q-67 17 -108 72t-41 128q0 111 83 189t209 78h252q76 0 124 -45q48 -44 48 -112q0 -50 -27 -96t-72 -71q39 -17 62 -55.5t23 -86.5q0 -95 -61 -163q-60 -68 -161 -68zM418 336
l-54 -264h178q63 0 105 45q43 46 43 104q0 50 -35 82.5t-90 32.5h-147zM477 625l-45 -219h150q51 0 87 37t36 86q0 42 -27.5 69t-72.5 27h-128z" />
    <glyph glyph-name="D.swsh11" horiz-adv-x="974" 
d="M548 0h-279l127 625h-54q-88 0 -146 -58q-58 -57 -58 -131q0 -51 27 -88.5t76 -52.5l-30 -65q-67 17 -108 72t-41 128q0 111 83 189t209 78h253q144 0 235 -88t91 -225q0 -150 -111 -267t-274 -117zM477 625l-113 -553h189q127 0 215 93q88 94 88 213q0 108 -69 177
q-67 70 -180 70h-130z" />
    <glyph glyph-name="E.swsh11" horiz-adv-x="798" 
d="M671 0h-401l127 625h-54q-88 0 -146 -58q-58 -57 -58 -131q0 -51 27 -88.5t76 -52.5l-30 -65q-67 17 -108 72t-41 128q0 111 83 189q82 78 209 78h451l-15 -72h-314l-45 -221h295l-14 -72h-295l-53 -260h321z" />
    <glyph glyph-name="E.swsh12" horiz-adv-x="833" 
d="M448 0h-427l142 697h394l-15 -72h-314l-45 -221h295l-14 -72h-295l-53 -260h329q88 0 136 20q53 22 83 66t30 98q0 53 -27.5 90.5t-74.5 50.5l29 70q68 -20 108.5 -75.5t40.5 -129.5q0 -75 -40.5 -138.5t-109.5 -94.5q-66 -29 -172 -29z" />
    <glyph glyph-name="F.swsh11" horiz-adv-x="754" 
d="M349 0h-80l127 625h-54q-88 0 -146 -58q-58 -57 -58 -131q0 -51 27 -88.5t76 -52.5l-30 -65q-67 17 -108 72t-41 128q0 111 83 189t209 78h421l-15 -72h-284l-46 -225h259l-14 -72h-259z" />
    <glyph glyph-name="G.swsh11" horiz-adv-x="740" 
d="M39 295q0 108 49 202q50 95 142 153q93 60 209 60q154 0 253 -115l-58 -51q-75 94 -202 94q-126 0 -221 -98q-93 -98 -93 -226q0 -116 72 -187q72 -69 191 -69q96 0 172 53l40 197h-213l14 72h291l-93 -464q-5 -25 -10 -40q-5 -19 -24 -53q-19 -37 -43 -58
q-26 -25 -73 -43t-103 -18q-99 0 -158 54q-58 52 -58 135v4l77 18v-8q0 -62 40 -96.5t106 -34.5q65 0 110 38.5t60 115.5l19 91q-75 -35 -161 -35q-150 0 -243 90q-92 92 -92 219z" />
    <glyph glyph-name="H.swsh11" horiz-adv-x="975" 
d="M349 0h-80l127 625h-54q-88 0 -146 -58q-58 -57 -58 -131q0 -51 27 -88.5t76 -52.5l-30 -65q-67 17 -108 72t-41 128q0 111 83 189t209 78h137l-59 -291h383l59 291h80l-142 -697h-80l68 334h-383z" />
    <glyph glyph-name="H.swsh12" horiz-adv-x="974" 
d="M101 0h-80l142 697h80l-59 -291h383l59 291h80l-128 -625h9q87 0 136 20q53 22 83 66t30 98q0 53 -27.5 90.5t-74.5 50.5l29 70q68 -20 108.5 -75.5t40.5 -129.5q0 -75 -40.5 -138.5t-109.5 -94.5q-66 -29 -172 -29h-106l68 334h-383z" />
    <glyph glyph-name="I.swsh11" horiz-adv-x="520" 
d="M353 0h-80l127 625h-58q-88 0 -146 -58q-58 -57 -58 -131q0 -51 27 -88.5t76 -52.5l-30 -65q-67 17 -108 72t-41 128q0 111 83 189t209 78h141z" />
    <glyph glyph-name="I.swsh21" horiz-adv-x="620" 
d="M453 0h-80l93 456q6 26 6 45q0 63 -41.5 103t-109.5 40q-74 0 -127 -56q-52 -55 -52 -127q0 -61 40.5 -100t108.5 -39q25 0 47 6l12 -70q-37 -8 -66 -8q-96 0 -157 57q-61 58 -61 149q0 104 75 182q77 78 187 78q99 0 160 -59q61 -58 61 -152q0 -36 -8 -73z" />
    <glyph glyph-name="J.swsh11" horiz-adv-x="502" 
d="M43 -82l16 71q49 -24 108 -24q54 0 82 35t42 105l106 520h-54q-88 0 -146 -58q-58 -57 -58 -131q0 -51 27 -88.5t76 -52.5l-30 -65q-67 17 -108 72t-41 128q0 111 83 189q82 78 209 78h135l-120 -589q-17 -80 -38 -121q-21 -46 -61.5 -69t-109.5 -26q-69 0 -118 26z" />
    <glyph glyph-name="J.swsh12" horiz-adv-x="563" 
d="M-59 1l15 70q27 -12 64 -12q39 0 58.5 30.5t33.5 99.5l104 508h95q58 0 105 -17.5t72 -43.5q25 -25 38 -57q22 -47 22 -95q0 -100 -68 -176q-68 -75 -177 -81v72q71 5 120 58t49 122q0 32 -13 63q-32 83 -152 83h-28l-88 -433q-7 -37 -19 -81q-7 -24 -26 -61
q-34 -64 -124 -64q-54 0 -81 15z" />
    <glyph glyph-name="J.swsh21" horiz-adv-x="593" 
d="M-5 104q0 94 64 167t163 85l10 -72q-67 -8 -114 -55t-47 -117q0 -60 39 -98t104 -38q66 0 110.5 44.5t59.5 116.5l100 488h-262l15 72h340l-117 -572q-20 -98 -83 -158q-63 -63 -164 -63q-97 0 -158 58q-60 59 -60 142z" />
    <glyph glyph-name="K.swsh11" horiz-adv-x="877" 
d="M349 0h-79l127 625h-54q-88 0 -146 -58q-58 -57 -58 -131q0 -51 27 -88.5t76 -52.5l-30 -65q-67 17 -108 72t-41 128q0 111 83 189q82 78 209 78h136l-73 -361l401 361h102l-346 -315l212 -382h-86l-185 333l-121 -109z" />
    <glyph glyph-name="K.swsh12" horiz-adv-x="943" 
d="M100 0h-79l142 697h79l-73 -361l401 361h102l-346 -315l126 -227q34 -61 70 -88.5t91 -27.5q77 0 131 56q54 57 54 129q0 66 -43 107t-112 41q-37 0 -75 -18l-33 62q53 28 117 28q98 0 159 -61q63 -60 63 -155q0 -103 -75 -182q-73 -79 -188 -79q-80 0 -129 35t-93 111
l-122 220l-121 -109z" />
    <glyph glyph-name="L.swsh11" horiz-adv-x="745" 
d="M635 0h-365l127 625h-54q-88 0 -146 -58q-58 -57 -58 -131q0 -51 27 -88.5t76 -52.5l-30 -65q-67 17 -108 72t-41 128q0 111 83 189q82 78 209 78h137l-127 -625h285z" />
    <glyph glyph-name="L.swsh12" horiz-adv-x="618" 
d="M462 0h-441l100 490q19 99 90 162q70 64 174 64q94 0 156 -59t62 -148q0 -97 -70 -170q-69 -74 -172 -81v74q70 6 118 57q48 53 48 116q0 61 -42 100t-108 39q-68 0 -116 -48q-48 -46 -63 -119l-82 -405h361z" />
    <glyph glyph-name="M.swsh11" horiz-adv-x="1108" 
d="M347 0h-77l127 625h-54q-88 0 -146 -58q-58 -57 -58 -131q0 -51 27 -88.5t76 -52.5l-30 -65q-67 17 -108 72t-41 128q0 111 83 189q82 78 209 78h129l170 -444l362 444h71l-142 -697h-77l110 537l-346 -420l-172 436z" />
    <glyph glyph-name="M.swsh12" horiz-adv-x="1107" 
d="M98 0h-77l142 697h72l170 -444l362 444h71l-128 -625h9q88 0 136 20q53 22 83 66t30 98q0 53 -27.5 90.5t-74.5 50.5l29 70q68 -20 108.5 -75.5t40.5 -129.5q0 -75 -40.5 -138.5t-109.5 -94.5q-66 -29 -172 -29h-103l110 537l-346 -420l-172 436z" />
    <glyph glyph-name="M.swsh21" horiz-adv-x="1156" 
d="M395 0h-77l103 505q7 29 7 50q0 86 -100 86q-75 0 -131 -59q-55 -58 -55 -132q0 -52 27.5 -89.5t76.5 -52.5l-34 -67q-67 21 -106.5 75.5t-39.5 126.5q0 109 78 189q78 81 193 81q128 0 186 -64q28 -30 43.5 -57t34.5 -74l101 -265l362 444h71l-142 -697h-77l110 537
l-346 -420l-154 388q-12 28 -19 43z" />
    <glyph glyph-name="M.swsh22" horiz-adv-x="1156" 
d="M98 0h-77l142 697h72l170 -444l240 294q69 87 131 127q62 39 146 39q97 0 158 -60q62 -60 62 -153q0 -100 -67 -174q-68 -76 -176 -86l-6 73q74 5 123 58q50 56 50 123q0 66 -41 106.5t-109 40.5q-88 0 -111 -107l-109 -534h-77l109 532q-12 -10 -36 -40l-309 -375
l-172 436z" />
    <glyph glyph-name="N.swsh11" horiz-adv-x="1000" 
d="M348 0h-78l127 625h-54q-88 0 -146 -58q-58 -57 -58 -131q0 -51 27 -88.5t76 -52.5l-30 -65q-67 17 -108 72t-41 128q0 111 83 189q82 78 209 78h118l314 -562l114 562h78l-142 -697h-57l-317 567z" />
    <glyph glyph-name="N.swsh12" horiz-adv-x="999" 
d="M99 0h-78l142 697h61l314 -562l114 562h94q58 0 105 -17.5t72 -43.5q25 -25 38 -57q22 -47 22 -95q0 -99 -70 -175q-70 -75 -175 -82v74q70 5 120 57q49 53 49 121q0 32 -13 63q-32 83 -152 83h-27l-127 -625h-57l-317 567z" />
    <glyph glyph-name="N.swsh21" horiz-adv-x="1048" 
d="M396 0h-78l100 492q8 40 8 57q0 48 -24 70t-75 22q-77 0 -131 -59q-54 -58 -54 -132q0 -53 28 -90.5t76 -51.5l-33 -67q-67 21 -107 75.5t-40 126.5q0 113 75 191q76 79 195 79q95 0 162 -44q28 -17 52 -44t35 -44q16 -26 25 -42l225 -404l114 562h78l-142 -697h-57
l-297 531q-13 24 -21 31z" />
    <glyph glyph-name="N.swsh22" horiz-adv-x="1105" 
d="M99 0h-78l142 697h61l314 -562l76 375q20 98 87 159q68 62 174 62q97 0 158 -60q61 -58 61 -151q0 -102 -74 -179q-73 -76 -188 -76q-62 0 -105 26l37 63q32 -17 74 -17q74 0 127 54q53 56 53 125q0 63 -41 103t-109 40q-69 0 -116.5 -42.5t-60.5 -109.5l-103 -507h-57
l-317 567z" />
    <glyph glyph-name="O.swsh11" horiz-adv-x="987" 
d="M71 479q0 77 40 143.5t109 103.5l27 -70q-47 -27 -73.5 -73t-26.5 -98q0 -96 64 -139v1q16 149 129 256q115 107 269 107q148 0 243 -92t95 -233q0 -101 -51 -193q-50 -90 -145 -149q-93 -57 -207 -57q-138 0 -229 78q-90 77 -104 203q-65 24 -102.5 80t-37.5 132z
M307 256h-16q16 -88 86 -144q71 -54 174 -54q133 0 226 98q93 97 93 223q0 114 -73 186q-73 73 -192 73q-19 0 -39 -3q23 -48 23 -102q0 -110 -82 -193q-81 -84 -200 -84zM286 327v-1h20q83 0 145 62q62 64 62 141q0 49 -22 86q-86 -36 -144 -116q-57 -81 -61 -172z" />
    <glyph glyph-name="O.swsh12" horiz-adv-x="989" 
d="M42 305q0 106 52 198t145 150q93 57 203 57q148 0 243 -92t95 -233q0 -22 -5 -55l3 1q56 23 91 76q36 53 36 112q0 73 -51 119l48 57q79 -63 79 -174q0 -93 -63 -171q-64 -78 -160 -97h-2q-42 -116 -145 -192q-102 -75 -234 -75q-146 0 -241 89q-94 90 -94 230zM119 311
q0 -112 73 -182q74 -71 192 -71q98 0 177 55q77 54 116 142q-89 7 -147 69q-58 61 -58 150q0 82 47 153q-41 11 -81 11q-133 0 -226 -100t-93 -227zM548 482q0 -72 39 -113.5t111 -44.5q5 32 5 51q0 73 -30.5 131t-86.5 92q-38 -55 -38 -116z" />
    <glyph glyph-name="P.swsh11" horiz-adv-x="822" 
d="M350 0h-80l127 625h-54q-88 0 -146 -58q-58 -57 -58 -131q0 -51 27 -88.5t76 -52.5l-30 -65q-67 17 -108 72t-41 128q0 111 83 189q82 78 209 78h254q89 0 144 -54q56 -53 56 -136q0 -92 -68 -163t-167 -71h-168zM477 625l-57 -280h161q63 0 107 48q44 50 44 111
q0 53 -35 87t-91 34h-129z" />
    <glyph glyph-name="P.swsh21" horiz-adv-x="925" 
d="M-13 55q0 102 77 181q78 79 185 79q54 0 106 -23l-39 -65q-33 16 -74 16q-74 0 -127 -56q-52 -55 -52 -127q0 -61 40.5 -100t108.5 -39q70 0 116 46q48 48 61 114l126 616h197q88 0 144 -54q56 -53 56 -136q0 -92 -68 -163t-167 -71h-168l-42 -205q-19 -94 -87 -156
q-68 -63 -174 -63q-97 0 -158 58q-61 57 -61 148zM580 625l-57 -280h161q64 0 107 48q44 50 44 111q0 53 -35 87t-91 34h-129z" />
    <glyph glyph-name="Q.swsh11" horiz-adv-x="820" 
d="M42 305q0 106 52 198t145 150q93 57 203 57q148 0 243 -92t95 -233q0 -154 -113 -275q-112 -119 -281 -124h-1q-26 -28 -26 -74q0 -58 39 -95t102 -37q70 0 119 52t49 118q0 44 -24 77l63 50q37 -52 37 -121q0 -100 -71 -174t-180 -74q-93 0 -152 56q-58 55 -58 144
q0 47 22 84q-120 21 -191 106q-72 86 -72 207zM119 311q0 -112 73 -182q74 -71 192 -71q133 0 226 98t93 223q0 114 -73 186q-73 73 -192 73q-133 0 -226 -100t-93 -227z" />
    <glyph glyph-name="R.swsh11" horiz-adv-x="855" 
d="M350 0h-80l127 625h-54q-88 0 -146 -58q-58 -57 -58 -131q0 -51 27 -88.5t76 -52.5l-30 -65q-67 17 -108 72t-41 128q0 111 83 189q82 78 209 78h266q89 0 144 -54q56 -53 56 -135q0 -76 -49 -140q-48 -64 -126 -84l106 -284h-83l-104 276h-159zM476 625l-56 -277h170
q64 0 108 48q45 48 45 109q0 52 -35 86t-91 34h-141z" />
    <glyph glyph-name="R.swsh12" horiz-adv-x="957" 
d="M101 0h-80l142 697h209q88 0 144 -54q56 -53 56 -135q0 -76 -49 -140q-48 -64 -126 -84l64 -172q48 -125 157 -125q76 0 129 54q54 54 54 122q0 61 -42 100t-110 39q-40 0 -75 -20l-26 67q51 25 108 25q97 0 159 -59t62 -148q0 -99 -74 -176q-73 -76 -189 -76
q-85 0 -139.5 43t-88.5 131l-70 187h-159zM227 625l-56 -277h170q65 0 108 48q45 48 45 109q0 52 -35 86t-91 34h-141z" />
    <glyph glyph-name="R.swsh21" horiz-adv-x="962" 
d="M-9 55q0 102 77 181q78 79 185 79q54 0 106 -23l-39 -65q-33 16 -74 16q-74 0 -127 -56q-52 -55 -52 -127q0 -61 40.5 -100t108.5 -39q70 0 116 46q48 48 61 114l126 616h209q88 0 144 -54q56 -53 56 -135q0 -76 -49 -140q-48 -64 -126 -84l106 -284h-83l-104 276h-159
l-42 -208q-19 -94 -87 -156q-68 -63 -174 -63q-97 0 -158 58q-61 57 -61 148zM583 625l-56 -277h170q65 0 108 48q45 48 45 109q0 52 -35 86t-91 34h-141z" />
    <glyph glyph-name="T.swsh11" horiz-adv-x="717" 
d="M427 0h-80l127 625h-131q-88 0 -146 -58q-58 -57 -58 -131q0 -51 27 -88.5t76 -52.5l-30 -65q-67 17 -108 72t-41 128q0 111 83 189q82 78 209 78h403l-15 -72h-189z" />
    <glyph glyph-name="T.swsh12" horiz-adv-x="716" 
d="M228 0h-80l127 625h-189l15 72h363q58 0 104 -17t72 -44q25 -25 38 -57q21 -48 21 -95q0 -99 -70 -175q-68 -74 -173 -82v74q72 6 119 58q48 53 48 120q0 32 -13 63q-26 80 -150 83h-105z" />
    <glyph glyph-name="U.swsh11" horiz-adv-x="955" 
d="M320 210q0 34 9 78l68 337h-54q-88 0 -146 -58q-58 -57 -58 -131q0 -51 27 -88.5t76 -52.5l-30 -65q-67 17 -108 72t-41 128q0 111 83 189q82 78 209 78h137l-91 -442q-3 -16 -3 -43q0 -70 42.5 -111t119.5 -41q80 0 133.5 48.5t73.5 142.5l91 446h79l-93 -461
q-26 -122 -102.5 -185t-187.5 -63q-107 0 -171 61q-63 61 -63 161z" />
    <glyph glyph-name="U.swsh12" horiz-adv-x="947" 
d="M61 210q0 34 9 78l83 409h80l-91 -442q-3 -16 -3 -43q0 -70 42.5 -111t119.5 -41q80 0 133.5 48.5t73.5 142.5l91 446h97q58 0 104 -17t72 -44q25 -25 38 -57q21 -48 21 -95q0 -99 -70 -175q-68 -74 -173 -82v74q72 6 119 58q48 53 48 120q0 32 -13 63q-26 80 -150 83
h-29l-78 -389q-24 -122 -101.5 -185t-188.5 -63q-107 0 -171 61q-63 61 -63 161z" />
    <glyph glyph-name="U.swsh21" horiz-adv-x="1058" 
d="M423 210q0 34 9 78l27 133q11 58 11 80q0 65 -39.5 104t-108.5 39q-74 0 -127 -56q-52 -55 -52 -127q0 -61 40.5 -100t108.5 -39q24 0 48 7l11 -71q-34 -8 -65 -8q-97 0 -158 58t-61 148q0 106 74 183q75 77 188 77q101 0 160 -59t59 -152q0 -32 -11 -90l-33 -160
q-3 -16 -3 -43q0 -70 42.5 -111t119.5 -41q80 0 133.5 48.5t73.5 142.5l91 446h79l-93 -461q-26 -122 -102.5 -185t-187.5 -63q-107 0 -171 61q-63 62 -63 161z" />
    <glyph glyph-name="U.swsh22" horiz-adv-x="1057" 
d="M61 210q0 34 9 78l83 409h80l-91 -442q-3 -16 -3 -43q0 -70 42.5 -111t119.5 -41q80 0 133.5 48.5t73.5 142.5l50 245q20 98 86 158q68 62 176 62q96 0 158 -60q62 -59 62 -151q0 -103 -73 -179t-190 -76q-55 0 -105 27l38 64q32 -19 73 -19q75 0 128 54q53 56 53 125
q0 63 -41.5 103t-109.5 40q-72 0 -117.5 -43.5t-60.5 -116.5l-50 -248q-26 -122 -102.5 -185t-187.5 -63q-107 0 -171 61q-63 61 -63 161z" />
    <glyph glyph-name="V.swsh11" horiz-adv-x="930" 
d="M539 0h-55l-135 625h-6q-88 0 -146 -58q-58 -57 -58 -131q0 -51 27 -88.5t76 -52.5l-30 -65q-67 17 -108 72t-41 128q0 111 83 189q82 78 209 78h56l123 -566l353 566h86z" />
    <glyph glyph-name="V.swsh12" horiz-adv-x="937" 
d="M298 0h-55l-150 697h77l123 -566l353 566h26q58 0 104 -17t72 -44q25 -25 38 -57q21 -48 21 -95q0 -99 -70 -175q-68 -74 -173 -82v74q72 6 119 58q48 53 48 120q0 36 -20 78q-27 61 -123 67h-1z" />
    <glyph glyph-name="V.swsh21" horiz-adv-x="1044" 
d="M653 0h-55l-108 502q-15 70 -56.5 109t-103.5 39q-78 0 -132 -59t-54 -132q0 -65 42.5 -106t112.5 -41q78 0 149 62l19 -77q-74 -57 -175 -57q-98 0 -162 59q-62 60 -62 154q0 109 77 189t191 80q88 0 147.5 -53t79.5 -147l85 -391l353 566h86z" />
    <glyph glyph-name="V.swsh22" horiz-adv-x="1050" 
d="M298 0h-55l-150 697h77l123 -566l277 444q92 147 233 147q95 0 157 -62t62 -156q0 -105 -74 -185q-73 -79 -188 -79q-128 0 -198 85l40 62q61 -75 163 -75q75 0 128 57q53 59 53 131q0 66 -41.5 108t-109.5 42q-93 0 -159 -107z" />
    <glyph glyph-name="W.swsh11" horiz-adv-x="1179" 
d="M467 0h-50l-55 625h-19q-88 0 -146 -58q-58 -57 -58 -131q0 -51 27 -88.5t76 -52.5l-30 -65q-67 17 -108 72t-41 128q0 111 83 189q82 78 209 78h76l47 -530l283 530h54l63 -529l262 529h81l-346 -697h-50l-65 543z" />
    <glyph glyph-name="W.swsh12" horiz-adv-x="1177" 
d="M208 0h-50l-62 697h76l47 -530l283 530h54l63 -529l262 529h43q58 0 104 -17t72 -44q25 -25 38 -57q21 -48 21 -95q0 -99 -70 -175q-68 -74 -173 -82v74q72 6 119 58q48 53 48 120q0 31 -12 62q-33 82 -144 84h-1l-310 -625h-50l-65 543z" />
    <glyph glyph-name="W.swsh21" horiz-adv-x="1293" 
d="M581 0h-50l-43 484q-7 79 -47.5 122.5t-110.5 43.5q-78 0 -132 -59t-54 -132q0 -65 42.5 -106t112.5 -41q69 0 134 41l9 -75q-62 -38 -150 -38q-98 0 -162 59q-62 60 -62 154q0 108 77 188q78 81 191 81q100 0 159 -61.5t68 -166.5l29 -327l283 530h54l63 -529l262 529
h81l-346 -697h-50l-65 543z" />
    <glyph glyph-name="W.swsh22" horiz-adv-x="1293" 
d="M208 0h-50l-62 697h76l47 -530l283 530h54l63 -529l191 386q82 168 246 168q96 0 158 -62t62 -156q0 -106 -73 -185t-191 -79q-116 0 -185 84l38 68q59 -80 152 -80q77 0 130 57q53 58 53 131q0 66 -42 108t-111 42q-110 0 -165 -115l-266 -535h-50l-65 543z" />
    <glyph glyph-name="X.swsh11" horiz-adv-x="861" 
d="M274 0h-95l310 367l-121 258h-25q-88 0 -146 -58q-58 -57 -58 -131q0 -51 27 -88.5t76 -52.5l-30 -65q-67 17 -108 72t-41 128q0 111 83 189q82 78 209 78h63l127 -274l233 274h95l-292 -345l167 -352h-84l-139 296z" />
    <glyph glyph-name="X.swsh12" horiz-adv-x="849" 
d="M56 0h-95l310 367l-154 330h83l127 -274l233 274h36q58 0 104 -17t72 -44q25 -25 38 -57q21 -48 21 -95q0 -99 -70 -175q-68 -74 -173 -82v74q72 6 119 58q48 53 48 120q0 32 -12 63q-32 83 -148 83h-1l-231 -273l167 -352h-84l-139 296z" />
    <glyph glyph-name="X.swsh21" horiz-adv-x="946" 
d="M359 0h-95l310 367l-59 125q-38 82 -77 115q-38 34 -109 34q-79 0 -133 -58q-54 -57 -54 -131q0 -64 42.5 -104t113.5 -40q42 0 78 15l28 -65q-51 -22 -113 -22q-99 0 -163 59q-62 59 -62 152q0 107 78 186q78 80 192 80q88 0 144 -44t102 -143l48 -103l233 274h95
l-292 -345l167 -352h-84l-139 296z" />
    <glyph glyph-name="X.swsh22" horiz-adv-x="991" 
d="M56 0h-95l310 367l-154 330h83l127 -274l233 274h95l-292 -345l100 -211q33 -67 74.5 -97.5t102.5 -30.5q78 0 134 56q55 56 55 129q0 66 -43.5 107t-114.5 41q-42 0 -81 -17l-29 63q60 26 118 26q101 0 163 -61q63 -60 63 -155q0 -104 -76 -183q-77 -78 -194 -78
q-84 0 -141.5 40.5t-97.5 125.5l-89 189z" />
    <glyph glyph-name="Y.swsh11" horiz-adv-x="848" 
d="M507 0h-79l57 282l-134 343h-8q-88 0 -146 -58q-58 -57 -58 -131q0 -51 27 -88.5t76 -52.5l-30 -65q-67 17 -108 72t-41 128q0 111 83 189q82 78 209 78h50l133 -339l261 339h92l-329 -426z" />
    </font>
</defs>
</svg>
